%TF.GenerationSoftware,KiCad,Pcbnew,7.0.9*%
%TF.CreationDate,2024-03-17T18:44:57-07:00*%
%TF.ProjectId,ESP32S3_Board,45535033-3253-4335-9f42-6f6172642e6b,rev?*%
%TF.SameCoordinates,Original*%
%TF.FileFunction,Copper,L1,Top*%
%TF.FilePolarity,Positive*%
%FSLAX46Y46*%
G04 Gerber Fmt 4.6, Leading zero omitted, Abs format (unit mm)*
G04 Created by KiCad (PCBNEW 7.0.9) date 2024-03-17 18:44:57*
%MOMM*%
%LPD*%
G01*
G04 APERTURE LIST*
G04 Aperture macros list*
%AMRoundRect*
0 Rectangle with rounded corners*
0 $1 Rounding radius*
0 $2 $3 $4 $5 $6 $7 $8 $9 X,Y pos of 4 corners*
0 Add a 4 corners polygon primitive as box body*
4,1,4,$2,$3,$4,$5,$6,$7,$8,$9,$2,$3,0*
0 Add four circle primitives for the rounded corners*
1,1,$1+$1,$2,$3*
1,1,$1+$1,$4,$5*
1,1,$1+$1,$6,$7*
1,1,$1+$1,$8,$9*
0 Add four rect primitives between the rounded corners*
20,1,$1+$1,$2,$3,$4,$5,0*
20,1,$1+$1,$4,$5,$6,$7,0*
20,1,$1+$1,$6,$7,$8,$9,0*
20,1,$1+$1,$8,$9,$2,$3,0*%
G04 Aperture macros list end*
%TA.AperFunction,SMDPad,CuDef*%
%ADD10R,0.600000X1.450000*%
%TD*%
%TA.AperFunction,SMDPad,CuDef*%
%ADD11R,0.300000X1.450000*%
%TD*%
%TA.AperFunction,ComponentPad*%
%ADD12O,1.000000X2.100000*%
%TD*%
%TA.AperFunction,ComponentPad*%
%ADD13O,1.000000X1.600000*%
%TD*%
%TA.AperFunction,SMDPad,CuDef*%
%ADD14RoundRect,0.225000X0.225000X0.250000X-0.225000X0.250000X-0.225000X-0.250000X0.225000X-0.250000X0*%
%TD*%
%TA.AperFunction,SMDPad,CuDef*%
%ADD15RoundRect,0.250000X-0.250000X-0.475000X0.250000X-0.475000X0.250000X0.475000X-0.250000X0.475000X0*%
%TD*%
%TA.AperFunction,SMDPad,CuDef*%
%ADD16RoundRect,0.250000X0.250000X0.475000X-0.250000X0.475000X-0.250000X-0.475000X0.250000X-0.475000X0*%
%TD*%
%TA.AperFunction,SMDPad,CuDef*%
%ADD17R,1.250000X0.700000*%
%TD*%
%TA.AperFunction,SMDPad,CuDef*%
%ADD18R,0.700000X0.350000*%
%TD*%
%TA.AperFunction,SMDPad,CuDef*%
%ADD19R,1.000000X1.750000*%
%TD*%
%TA.AperFunction,ComponentPad*%
%ADD20O,2.400000X1.700000*%
%TD*%
%TA.AperFunction,SMDPad,CuDef*%
%ADD21RoundRect,0.140000X-0.140000X-0.170000X0.140000X-0.170000X0.140000X0.170000X-0.140000X0.170000X0*%
%TD*%
%TA.AperFunction,SMDPad,CuDef*%
%ADD22RoundRect,0.150000X-0.150000X0.512500X-0.150000X-0.512500X0.150000X-0.512500X0.150000X0.512500X0*%
%TD*%
%TA.AperFunction,SMDPad,CuDef*%
%ADD23RoundRect,0.135000X0.185000X-0.135000X0.185000X0.135000X-0.185000X0.135000X-0.185000X-0.135000X0*%
%TD*%
%TA.AperFunction,SMDPad,CuDef*%
%ADD24R,1.000000X1.550000*%
%TD*%
%TA.AperFunction,ViaPad*%
%ADD25C,0.700000*%
%TD*%
%TA.AperFunction,Conductor*%
%ADD26C,0.300000*%
%TD*%
%TA.AperFunction,Conductor*%
%ADD27C,0.200000*%
%TD*%
G04 APERTURE END LIST*
D10*
%TO.P,J1,A1,GND*%
%TO.N,GND*%
X149300000Y-83293000D03*
%TO.P,J1,A4,VBUS*%
%TO.N,VBUS*%
X148500000Y-83293000D03*
D11*
%TO.P,J1,A5,CC1*%
%TO.N,Net-(J1-CC1)*%
X147300000Y-83293000D03*
%TO.P,J1,A6,D+*%
%TO.N,/USB_D+*%
X146300000Y-83293000D03*
%TO.P,J1,A7,D-*%
%TO.N,/USB_D-*%
X145800000Y-83293000D03*
%TO.P,J1,A8,SBU1*%
%TO.N,unconnected-(J1-SBU1-PadA8)*%
X144800000Y-83293000D03*
D10*
%TO.P,J1,A9,VBUS*%
%TO.N,VBUS*%
X143600000Y-83293000D03*
%TO.P,J1,A12,GND*%
%TO.N,GND*%
X142800000Y-83293000D03*
%TO.P,J1,B1,GND*%
X142800000Y-83293000D03*
%TO.P,J1,B4,VBUS*%
%TO.N,VBUS*%
X143600000Y-83293000D03*
D11*
%TO.P,J1,B5,CC2*%
%TO.N,Net-(J1-CC2)*%
X144300000Y-83293000D03*
%TO.P,J1,B6,D+*%
%TO.N,/USB_D+*%
X145300000Y-83293000D03*
%TO.P,J1,B7,D-*%
%TO.N,/USB_D-*%
X146800000Y-83293000D03*
%TO.P,J1,B8,SBU2*%
%TO.N,unconnected-(J1-SBU2-PadB8)*%
X147800000Y-83293000D03*
D10*
%TO.P,J1,B9,VBUS*%
%TO.N,VBUS*%
X148500000Y-83293000D03*
%TO.P,J1,B12,GND*%
%TO.N,GND*%
X149300000Y-83293000D03*
D12*
%TO.P,J1,S1,SHIELD*%
X150370000Y-82378000D03*
D13*
X150370000Y-78198000D03*
D12*
X141730000Y-82378000D03*
D13*
X141730000Y-78198000D03*
%TD*%
D14*
%TO.P,C7,1*%
%TO.N,+3.3V*%
X149873000Y-98044000D03*
%TO.P,C7,2*%
%TO.N,GND*%
X148323000Y-98044000D03*
%TD*%
D15*
%TO.P,C13,1*%
%TO.N,VBUS*%
X144592000Y-86360000D03*
%TO.P,C13,2*%
%TO.N,GND*%
X146492000Y-86360000D03*
%TD*%
D16*
%TO.P,C12,1*%
%TO.N,+3.3V*%
X142870000Y-90424000D03*
%TO.P,C12,2*%
%TO.N,GND*%
X140970000Y-90424000D03*
%TD*%
D17*
%TO.P,SW2,1,1*%
%TO.N,GND*%
X146710000Y-92372000D03*
X150470000Y-92372000D03*
%TO.P,SW2,2,2*%
%TO.N,/BOOT*%
X146710000Y-94572000D03*
X150470000Y-94572000D03*
D18*
%TO.P,SW2,3*%
%TO.N,N/C*%
X148590000Y-95102000D03*
%TO.P,SW2,4*%
X148590000Y-91842000D03*
%TD*%
D19*
%TO.P,AE1,1,ANT*%
%TO.N,Net-(AE1-ANT)*%
X140914000Y-98806000D03*
%TO.P,AE1,2,2*%
%TO.N,unconnected-(AE1-Pad2)*%
X144074000Y-98806000D03*
%TD*%
D20*
%TO.P,J2,1,Pin_1*%
%TO.N,/IO7*%
X136930000Y-79710000D03*
X137780000Y-79710000D03*
%TO.P,J2,2,Pin_2*%
%TO.N,/IO6*%
X136930000Y-82250000D03*
X137780000Y-82250000D03*
%TO.P,J2,3,Pin_3*%
%TO.N,/IO5*%
X136930000Y-84790000D03*
X137780000Y-84790000D03*
%TO.P,J2,4,Pin_4*%
%TO.N,/IO4*%
X136930000Y-87330000D03*
X137780000Y-87330000D03*
%TO.P,J2,5,Pin_5*%
%TO.N,/IO3*%
X136930000Y-89870000D03*
X137780000Y-89870000D03*
%TO.P,J2,6,Pin_6*%
%TO.N,/IO2*%
X136930000Y-92410000D03*
X137780000Y-92410000D03*
%TO.P,J2,7,Pin_7*%
%TO.N,+3.3V*%
X136930000Y-94950000D03*
X137780000Y-94950000D03*
%TO.P,J2,8,Pin_8*%
%TO.N,GND*%
X136930000Y-97490000D03*
X137780000Y-97490000D03*
%TD*%
D21*
%TO.P,C11,1*%
%TO.N,/RESET*%
X144300000Y-91440000D03*
%TO.P,C11,2*%
%TO.N,GND*%
X145260000Y-91440000D03*
%TD*%
D17*
%TO.P,SW1,1,1*%
%TO.N,GND*%
X144628000Y-94572000D03*
X140868000Y-94572000D03*
%TO.P,SW1,2,2*%
%TO.N,/RESET*%
X144628000Y-92372000D03*
X140868000Y-92372000D03*
D18*
%TO.P,SW1,3*%
%TO.N,N/C*%
X142748000Y-91842000D03*
%TO.P,SW1,4*%
X142748000Y-95102000D03*
%TD*%
D22*
%TO.P,U2,1,VIN*%
%TO.N,VBUS*%
X142870000Y-86238500D03*
%TO.P,U2,2,GND*%
%TO.N,GND*%
X141920000Y-86238500D03*
%TO.P,U2,3,EN*%
%TO.N,VBUS*%
X140970000Y-86238500D03*
%TO.P,U2,4,NC*%
%TO.N,unconnected-(U2-NC-Pad4)*%
X140970000Y-88513500D03*
%TO.P,U2,5,VOUT*%
%TO.N,+3.3V*%
X142870000Y-88513500D03*
%TD*%
D23*
%TO.P,R2,1*%
%TO.N,+3.3V*%
X139700000Y-93982000D03*
%TO.P,R2,2*%
%TO.N,/RESET*%
X139700000Y-92962000D03*
%TD*%
D20*
%TO.P,J3,1,Pin_1*%
%TO.N,/IO17*%
X153740000Y-80010000D03*
X154590000Y-80010000D03*
%TO.P,J3,2,Pin_2*%
%TO.N,/IO33*%
X153740000Y-82550000D03*
X154590000Y-82550000D03*
%TO.P,J3,3,Pin_3*%
%TO.N,/IO34*%
X153740000Y-85090000D03*
X154590000Y-85090000D03*
%TO.P,J3,4,Pin_4*%
%TO.N,/IO35*%
X153740000Y-87630000D03*
X154590000Y-87630000D03*
%TO.P,J3,5,Pin_5*%
%TO.N,/IO36*%
X153740000Y-90170000D03*
X154590000Y-90170000D03*
%TO.P,J3,6,Pin_6*%
%TO.N,/IO37*%
X153740000Y-92710000D03*
X154590000Y-92710000D03*
%TO.P,J3,7,Pin_7*%
%TO.N,/IO38*%
X153740000Y-95250000D03*
X154590000Y-95250000D03*
%TO.P,J3,8,Pin_8*%
%TO.N,/IO45*%
X153740000Y-97790000D03*
X154590000Y-97790000D03*
%TD*%
D24*
%TO.P,LED1,1,VDD*%
%TO.N,VBUS*%
X150242000Y-86244000D03*
%TO.P,LED1,2,DOUT*%
%TO.N,unconnected-(LED1-DOUT-Pad2)*%
X148462000Y-86244000D03*
%TO.P,LED1,3,VSS*%
%TO.N,GND*%
X148462000Y-89524000D03*
%TO.P,LED1,4,DIN*%
%TO.N,/IO21*%
X150242000Y-89524000D03*
%TD*%
D25*
%TO.N,Net-(J1-CC1)*%
X147828756Y-79365519D03*
%TO.N,/RESET*%
X139428929Y-92044028D03*
%TO.N,/BOOT*%
X147740965Y-91656048D03*
%TO.N,+3.3V*%
X150876000Y-95504000D03*
X145542000Y-97663000D03*
X142876042Y-87504042D03*
X151384000Y-93599000D03*
%TO.N,/USB_D-*%
X146349124Y-81234876D03*
%TO.N,/USB_D+*%
X147020876Y-80563124D03*
%TO.N,GND*%
X146304000Y-89281000D03*
X146268666Y-93531762D03*
X149860000Y-88011000D03*
X144526000Y-88265000D03*
X146304000Y-90170000D03*
X150241000Y-93345000D03*
X144526000Y-89281000D03*
X151765000Y-96393000D03*
X146558000Y-98806000D03*
X146304000Y-88265000D03*
X145415000Y-90170000D03*
X140187680Y-90332578D03*
X138430000Y-99314000D03*
X146177000Y-99695000D03*
X142113000Y-84963000D03*
X145415000Y-89281000D03*
X145415000Y-88265000D03*
X144526000Y-90170000D03*
X144018000Y-96774000D03*
%TO.N,/IO21*%
X150657500Y-87630000D03*
%TO.N,Net-(J1-CC2)*%
X144991089Y-80221089D03*
%TO.N,Net-(C10-Pad2)*%
X145796000Y-96520000D03*
%TO.N,Net-(AE1-ANT)*%
X140970000Y-97282000D03*
%TD*%
D26*
%TO.N,Net-(J1-CC1)*%
X147300000Y-81544162D02*
X147300000Y-83293000D01*
X147907170Y-79443933D02*
X147828756Y-79365519D01*
X147907170Y-80936992D02*
X147907170Y-79443933D01*
X147907170Y-80936992D02*
X147300000Y-81544162D01*
D27*
%TO.N,/RESET*%
X140540028Y-92044028D02*
X140868000Y-92372000D01*
X139428929Y-92044028D02*
X140540028Y-92044028D01*
D26*
X144628000Y-91768000D02*
X144300000Y-91440000D01*
X139700000Y-92962000D02*
X140278000Y-92962000D01*
X140278000Y-92962000D02*
X140868000Y-92372000D01*
X144628000Y-92372000D02*
X144628000Y-91768000D01*
X140868000Y-92372000D02*
X144628000Y-92372000D01*
D27*
%TO.N,/BOOT*%
X147740965Y-93541035D02*
X146710000Y-94572000D01*
D26*
X146710000Y-94572000D02*
X150470000Y-94572000D01*
D27*
X147740965Y-91656048D02*
X147740965Y-93541035D01*
D26*
%TO.N,+3.3V*%
X150876000Y-95504000D02*
X149873000Y-96507000D01*
X149873000Y-96507000D02*
X149873000Y-98044000D01*
X139098000Y-93982000D02*
X138130000Y-94950000D01*
X142870000Y-88513500D02*
X142870000Y-90424000D01*
X142870000Y-88513500D02*
X142870000Y-87510084D01*
X142870000Y-87510084D02*
X142876042Y-87504042D01*
X139700000Y-93982000D02*
X139098000Y-93982000D01*
D27*
%TO.N,/USB_D-*%
X145775000Y-81809000D02*
X145775000Y-82180499D01*
X146580000Y-82318000D02*
X146800000Y-82538000D01*
X145775000Y-82180499D02*
X145800000Y-82205499D01*
X146349124Y-81234876D02*
X145775000Y-81809000D01*
X145800000Y-82368000D02*
X145850000Y-82318000D01*
X146800000Y-82538000D02*
X146800000Y-83293000D01*
X145800000Y-83293000D02*
X145800000Y-82368000D01*
X145800000Y-82205499D02*
X145800000Y-83293000D01*
X145850000Y-82318000D02*
X146580000Y-82318000D01*
%TO.N,/USB_D+*%
X146312726Y-80634876D02*
X146100595Y-80634876D01*
X146384478Y-80563124D02*
X146312726Y-80634876D01*
X145749124Y-80986347D02*
X145749124Y-81198478D01*
X145300000Y-84218000D02*
X145410000Y-84328000D01*
X145749124Y-81198478D02*
X145325000Y-81622602D01*
X145300000Y-82205499D02*
X145300000Y-83293000D01*
X145325000Y-81622602D02*
X145325000Y-82180499D01*
X145325000Y-82180499D02*
X145300000Y-82205499D01*
X145300000Y-83293000D02*
X145300000Y-84218000D01*
X146300000Y-84218000D02*
X146300000Y-83293000D01*
X145410000Y-84328000D02*
X146190000Y-84328000D01*
X147020876Y-80563124D02*
X146384478Y-80563124D01*
X146190000Y-84328000D02*
X146300000Y-84218000D01*
X146100595Y-80634876D02*
X145749124Y-80986347D01*
%TO.N,GND*%
X142113000Y-86045500D02*
X141920000Y-86238500D01*
X148143000Y-88011000D02*
X149860000Y-88011000D01*
X146492000Y-86360000D02*
X148143000Y-88011000D01*
D26*
X150470000Y-92372000D02*
X150470000Y-93116000D01*
X142800000Y-83293000D02*
X142645000Y-83293000D01*
X145228428Y-94572000D02*
X146268666Y-93531762D01*
X146710000Y-92372000D02*
X146710000Y-93090428D01*
X149300000Y-83293000D02*
X149455000Y-83293000D01*
X142645000Y-83293000D02*
X141730000Y-82378000D01*
X148323000Y-98044000D02*
X147320000Y-98044000D01*
X145260000Y-91440000D02*
X145778000Y-91440000D01*
D27*
X142113000Y-84963000D02*
X142113000Y-86045500D01*
D26*
X140868000Y-94752000D02*
X138130000Y-97490000D01*
X140868000Y-94572000D02*
X140868000Y-94752000D01*
X145260000Y-91440000D02*
X145260000Y-90325000D01*
X146710000Y-91669000D02*
X146710000Y-92372000D01*
X148462000Y-89524000D02*
X148462000Y-89917000D01*
X149455000Y-83293000D02*
X150370000Y-82378000D01*
X150470000Y-93116000D02*
X150241000Y-93345000D01*
X145778000Y-91440000D02*
X146710000Y-92372000D01*
X148462000Y-89917000D02*
X146710000Y-91669000D01*
X146710000Y-93090428D02*
X146268666Y-93531762D01*
X140187680Y-90332578D02*
X140878578Y-90332578D01*
X144628000Y-94572000D02*
X145228428Y-94572000D01*
X147320000Y-98044000D02*
X146558000Y-98806000D01*
X145260000Y-90325000D02*
X145415000Y-90170000D01*
X140878578Y-90332578D02*
X140970000Y-90424000D01*
%TO.N,VBUS*%
X148215000Y-81547695D02*
X148590000Y-81172695D01*
X144592000Y-86360000D02*
X142991500Y-86360000D01*
X148500000Y-84502000D02*
X150242000Y-86244000D01*
X148590000Y-79121000D02*
X148082000Y-78613000D01*
X142991500Y-86360000D02*
X142870000Y-86238500D01*
X148215000Y-82233000D02*
X148215000Y-81547695D01*
X143600000Y-82433305D02*
X143600000Y-83293000D01*
X145161000Y-78613000D02*
X144018000Y-79756000D01*
X140970000Y-86238500D02*
X140970000Y-86900999D01*
X148500000Y-83293000D02*
X148500000Y-82518000D01*
X148082000Y-78613000D02*
X145161000Y-78613000D01*
X143600000Y-83293000D02*
X143600000Y-85508500D01*
X144018000Y-82015305D02*
X143600000Y-82433305D01*
X148500000Y-82518000D02*
X148215000Y-82233000D01*
X140970000Y-86900999D02*
X141318001Y-87249000D01*
X148590000Y-81172695D02*
X148590000Y-79121000D01*
X141318001Y-87249000D02*
X142212552Y-87249000D01*
X143600000Y-85508500D02*
X142870000Y-86238500D01*
X142212552Y-87249000D02*
X142870000Y-86591552D01*
X144018000Y-79756000D02*
X144018000Y-82015305D01*
X142870000Y-86591552D02*
X142870000Y-86238500D01*
X148500000Y-83293000D02*
X148500000Y-84502000D01*
D27*
%TO.N,/IO21*%
X150657500Y-87630000D02*
X150749000Y-87721500D01*
X150749000Y-89017000D02*
X150242000Y-89524000D01*
X150749000Y-87721500D02*
X150749000Y-89017000D01*
D26*
%TO.N,Net-(J1-CC2)*%
X144300000Y-83293000D02*
X144300000Y-82369701D01*
X144595000Y-80617178D02*
X144991089Y-80221089D01*
X144595000Y-82074701D02*
X144595000Y-80617178D01*
X144300000Y-82369701D02*
X144595000Y-82074701D01*
D27*
%TO.N,Net-(AE1-ANT)*%
X140970000Y-98750000D02*
X140914000Y-98806000D01*
X140970000Y-97282000D02*
X140970000Y-98750000D01*
%TD*%
%TA.AperFunction,Conductor*%
%TO.N,GND*%
G36*
X140418129Y-89544076D02*
G01*
X140418133Y-89544079D01*
X140418135Y-89544081D01*
X140559602Y-89627744D01*
X140601224Y-89639836D01*
X140717426Y-89673597D01*
X140717429Y-89673597D01*
X140717431Y-89673598D01*
X140729722Y-89674565D01*
X140754304Y-89676500D01*
X140754306Y-89676500D01*
X141185696Y-89676500D01*
X141204131Y-89675049D01*
X141222569Y-89673598D01*
X141222571Y-89673597D01*
X141222573Y-89673597D01*
X141264191Y-89661505D01*
X141380398Y-89627744D01*
X141521865Y-89544081D01*
X141530946Y-89535000D01*
X141732000Y-89535000D01*
X141732000Y-91440000D01*
X140029521Y-91440000D01*
X140001164Y-91408506D01*
X140001161Y-91408504D01*
X140001160Y-91408503D01*
X140001159Y-91408502D01*
X139856522Y-91303416D01*
X139693196Y-91230699D01*
X139693194Y-91230698D01*
X139597319Y-91210319D01*
X139573000Y-91186000D01*
X139573000Y-89789000D01*
X139827000Y-89535000D01*
X140409053Y-89535000D01*
X140418129Y-89544076D01*
G37*
%TD.AperFunction*%
%TD*%
%TA.AperFunction,Conductor*%
%TO.N,GND*%
G36*
X137017680Y-97224128D02*
G01*
X138564696Y-98771144D01*
X138593492Y-98763429D01*
X138593493Y-98763429D01*
X138666044Y-98729597D01*
X137815696Y-97879249D01*
X137856900Y-97914952D01*
X137987685Y-97974680D01*
X138094237Y-97990000D01*
X138165763Y-97990000D01*
X138272315Y-97974680D01*
X138403100Y-97914952D01*
X138486359Y-97842807D01*
X139094004Y-98450452D01*
X139135039Y-98462502D01*
X139180794Y-98515306D01*
X139183583Y-98528126D01*
X139192000Y-98548447D01*
X139192000Y-98879776D01*
X139192000Y-100205500D01*
X139172315Y-100272539D01*
X139119511Y-100318294D01*
X139068000Y-100329500D01*
X137527710Y-100329500D01*
X137522303Y-100329264D01*
X137520015Y-100329063D01*
X137479554Y-100325523D01*
X137353238Y-100313082D01*
X137333299Y-100309454D01*
X137266669Y-100291601D01*
X137173435Y-100263319D01*
X137157027Y-100257040D01*
X137108433Y-100234381D01*
X137089618Y-100225607D01*
X137086605Y-100224101D01*
X137002671Y-100179236D01*
X136996331Y-100175341D01*
X136930170Y-100129015D01*
X136926398Y-100126154D01*
X136854190Y-100066895D01*
X136849688Y-100062815D01*
X136792182Y-100005309D01*
X136788103Y-100000808D01*
X136728844Y-99928600D01*
X136725983Y-99924828D01*
X136679657Y-99858667D01*
X136675762Y-99852327D01*
X136650982Y-99805969D01*
X136630888Y-99768375D01*
X136629406Y-99765411D01*
X136597958Y-99697971D01*
X136591682Y-99681570D01*
X136563398Y-99588330D01*
X136545541Y-99521685D01*
X136541918Y-99501771D01*
X136529482Y-99375519D01*
X136525735Y-99332695D01*
X136525500Y-99327293D01*
X136525500Y-98964000D01*
X136545185Y-98896961D01*
X136597989Y-98851206D01*
X136649500Y-98840000D01*
X137338946Y-98840000D01*
X137344189Y-98839541D01*
X137365811Y-98839541D01*
X137371054Y-98840000D01*
X137926446Y-98840000D01*
X136932552Y-97846106D01*
X136961761Y-97820798D01*
X137039493Y-97699844D01*
X137080000Y-97561889D01*
X137080000Y-97418111D01*
X137039493Y-97280156D01*
X136993498Y-97208587D01*
X137017680Y-97224128D01*
G37*
%TD.AperFunction*%
%TA.AperFunction,Conductor*%
G36*
X153942695Y-76708735D02*
G01*
X153985519Y-76712482D01*
X154111771Y-76724918D01*
X154131685Y-76728541D01*
X154198349Y-76746403D01*
X154291570Y-76774682D01*
X154307971Y-76780958D01*
X154308848Y-76781367D01*
X154375411Y-76812406D01*
X154378375Y-76813888D01*
X154415969Y-76833982D01*
X154462327Y-76858762D01*
X154468667Y-76862657D01*
X154534828Y-76908983D01*
X154538600Y-76911844D01*
X154544494Y-76916681D01*
X154583609Y-76948782D01*
X154610808Y-76971103D01*
X154615309Y-76975182D01*
X154672815Y-77032688D01*
X154676895Y-77037190D01*
X154736154Y-77109398D01*
X154739015Y-77113170D01*
X154785341Y-77179331D01*
X154789236Y-77185671D01*
X154834101Y-77269605D01*
X154835614Y-77272631D01*
X154867040Y-77340027D01*
X154873319Y-77356435D01*
X154901601Y-77449669D01*
X154919454Y-77516299D01*
X154923082Y-77536238D01*
X154935523Y-77662554D01*
X154939264Y-77705302D01*
X154939500Y-77710710D01*
X154939500Y-78535500D01*
X154919815Y-78602539D01*
X154867011Y-78648294D01*
X154815500Y-78659500D01*
X154181028Y-78659500D01*
X154175784Y-78659958D01*
X154154216Y-78659958D01*
X154148972Y-78659500D01*
X154148966Y-78659500D01*
X153331034Y-78659500D01*
X153154596Y-78674936D01*
X153154586Y-78674938D01*
X152926344Y-78736094D01*
X152926335Y-78736098D01*
X152712171Y-78835964D01*
X152712169Y-78835965D01*
X152518597Y-78971505D01*
X152351506Y-79138597D01*
X152351501Y-79138604D01*
X152215967Y-79332165D01*
X152215965Y-79332169D01*
X152184133Y-79400434D01*
X152117503Y-79543323D01*
X152116098Y-79546335D01*
X152116094Y-79546344D01*
X152054938Y-79774586D01*
X152054936Y-79774596D01*
X152034341Y-80009999D01*
X152034341Y-80010000D01*
X152054936Y-80245403D01*
X152054938Y-80245413D01*
X152116094Y-80473655D01*
X152116096Y-80473659D01*
X152116097Y-80473663D01*
X152166031Y-80580746D01*
X152215964Y-80687828D01*
X152215965Y-80687830D01*
X152351505Y-80881402D01*
X152518597Y-81048494D01*
X152704158Y-81178425D01*
X152747783Y-81233002D01*
X152754977Y-81302500D01*
X152723454Y-81364855D01*
X152704158Y-81381575D01*
X152518597Y-81511505D01*
X152351506Y-81678597D01*
X152351501Y-81678604D01*
X152215967Y-81872165D01*
X152215965Y-81872169D01*
X152116098Y-82086335D01*
X152116094Y-82086344D01*
X152054938Y-82314586D01*
X152054936Y-82314596D01*
X152034341Y-82549999D01*
X152034341Y-82550000D01*
X152054936Y-82785403D01*
X152054938Y-82785413D01*
X152116094Y-83013655D01*
X152116096Y-83013659D01*
X152116097Y-83013663D01*
X152151072Y-83088666D01*
X152215964Y-83227828D01*
X152215965Y-83227830D01*
X152351505Y-83421402D01*
X152518597Y-83588494D01*
X152704158Y-83718425D01*
X152747783Y-83773002D01*
X152754977Y-83842500D01*
X152723454Y-83904855D01*
X152704158Y-83921575D01*
X152518597Y-84051505D01*
X152351506Y-84218597D01*
X152351501Y-84218604D01*
X152215967Y-84412165D01*
X152215965Y-84412169D01*
X152116098Y-84626335D01*
X152116094Y-84626344D01*
X152054938Y-84854586D01*
X152054936Y-84854596D01*
X152034341Y-85089999D01*
X152034341Y-85090000D01*
X152054936Y-85325403D01*
X152054938Y-85325413D01*
X152116094Y-85553655D01*
X152116096Y-85553659D01*
X152116097Y-85553663D01*
X152148628Y-85623426D01*
X152215964Y-85767828D01*
X152215965Y-85767830D01*
X152351505Y-85961402D01*
X152518597Y-86128494D01*
X152704158Y-86258425D01*
X152747783Y-86313002D01*
X152754977Y-86382500D01*
X152723454Y-86444855D01*
X152704158Y-86461575D01*
X152518597Y-86591505D01*
X152351506Y-86758597D01*
X152351501Y-86758604D01*
X152215967Y-86952165D01*
X152215965Y-86952169D01*
X152116098Y-87166335D01*
X152116094Y-87166344D01*
X152054938Y-87394586D01*
X152054936Y-87394596D01*
X152034341Y-87629999D01*
X152034341Y-87630000D01*
X152054936Y-87865403D01*
X152054938Y-87865413D01*
X152116094Y-88093655D01*
X152116096Y-88093659D01*
X152116097Y-88093663D01*
X152134170Y-88132420D01*
X152215964Y-88307828D01*
X152215965Y-88307830D01*
X152351505Y-88501402D01*
X152518597Y-88668494D01*
X152704158Y-88798425D01*
X152747783Y-88853002D01*
X152754977Y-88922500D01*
X152723454Y-88984855D01*
X152704158Y-89001575D01*
X152518597Y-89131505D01*
X152351506Y-89298597D01*
X152351501Y-89298604D01*
X152215967Y-89492165D01*
X152215965Y-89492169D01*
X152116098Y-89706335D01*
X152116094Y-89706344D01*
X152054938Y-89934586D01*
X152054936Y-89934596D01*
X152034341Y-90169999D01*
X152034341Y-90170000D01*
X152054936Y-90405403D01*
X152054938Y-90405413D01*
X152116094Y-90633655D01*
X152116096Y-90633659D01*
X152116097Y-90633663D01*
X152150338Y-90707092D01*
X152215964Y-90847828D01*
X152215965Y-90847830D01*
X152351505Y-91041402D01*
X152518597Y-91208494D01*
X152704158Y-91338425D01*
X152747783Y-91393002D01*
X152754977Y-91462500D01*
X152723454Y-91524855D01*
X152704158Y-91541575D01*
X152518597Y-91671505D01*
X152351506Y-91838597D01*
X152351501Y-91838604D01*
X152215967Y-92032165D01*
X152215965Y-92032169D01*
X152116098Y-92246335D01*
X152116094Y-92246344D01*
X152054938Y-92474586D01*
X152054936Y-92474596D01*
X152034341Y-92709999D01*
X152034341Y-92710003D01*
X152039609Y-92770225D01*
X152025842Y-92838725D01*
X151977226Y-92888907D01*
X151909197Y-92904840D01*
X151843354Y-92881464D01*
X151843194Y-92881348D01*
X151811593Y-92858388D01*
X151668564Y-92794707D01*
X151615327Y-92749457D01*
X151595006Y-92682608D01*
X151595000Y-92681428D01*
X151595000Y-92622000D01*
X150720000Y-92622000D01*
X150720000Y-93017795D01*
X150700315Y-93084834D01*
X150695695Y-93090887D01*
X150695960Y-93091079D01*
X150692138Y-93096338D01*
X150602750Y-93251164D01*
X150602747Y-93251170D01*
X150547504Y-93421192D01*
X150547503Y-93421194D01*
X150543617Y-93458172D01*
X150530180Y-93586018D01*
X150528136Y-93605463D01*
X150526526Y-93605293D01*
X150509130Y-93664539D01*
X150456326Y-93710294D01*
X150404815Y-93721500D01*
X149797129Y-93721500D01*
X149797123Y-93721501D01*
X149737516Y-93727908D01*
X149602671Y-93778202D01*
X149602664Y-93778206D01*
X149487457Y-93864451D01*
X149487451Y-93864457D01*
X149481948Y-93871809D01*
X149426015Y-93913681D01*
X149382680Y-93921500D01*
X148418927Y-93921500D01*
X148351888Y-93901815D01*
X148306133Y-93849011D01*
X148296189Y-93779853D01*
X148304366Y-93750047D01*
X148305009Y-93748495D01*
X148326009Y-93697797D01*
X148336941Y-93614760D01*
X148339016Y-93599000D01*
X148346647Y-93541036D01*
X148346647Y-93541034D01*
X148344838Y-93527301D01*
X148341995Y-93505704D01*
X148341465Y-93497606D01*
X148341465Y-92641499D01*
X148361150Y-92574460D01*
X148413954Y-92528705D01*
X148465465Y-92517499D01*
X148987871Y-92517499D01*
X148987872Y-92517499D01*
X149047483Y-92511091D01*
X149177669Y-92462534D01*
X149247358Y-92457551D01*
X149308681Y-92491036D01*
X149342166Y-92552359D01*
X149345000Y-92578717D01*
X149345000Y-92769844D01*
X149351401Y-92829372D01*
X149351403Y-92829379D01*
X149401645Y-92964086D01*
X149401649Y-92964093D01*
X149487809Y-93079187D01*
X149487812Y-93079190D01*
X149602906Y-93165350D01*
X149602913Y-93165354D01*
X149737620Y-93215596D01*
X149737627Y-93215598D01*
X149797155Y-93221999D01*
X149797172Y-93222000D01*
X150220000Y-93222000D01*
X150220000Y-91522000D01*
X150720000Y-91522000D01*
X150720000Y-92122000D01*
X151595000Y-92122000D01*
X151595000Y-91974172D01*
X151594999Y-91974155D01*
X151588598Y-91914627D01*
X151588596Y-91914620D01*
X151538354Y-91779913D01*
X151538350Y-91779906D01*
X151452190Y-91664812D01*
X151452187Y-91664809D01*
X151337093Y-91578649D01*
X151337086Y-91578645D01*
X151202379Y-91528403D01*
X151202372Y-91528401D01*
X151142844Y-91522000D01*
X150720000Y-91522000D01*
X150220000Y-91522000D01*
X149797155Y-91522000D01*
X149737627Y-91528401D01*
X149737620Y-91528403D01*
X149602913Y-91578645D01*
X149595128Y-91582897D01*
X149593467Y-91579855D01*
X149543523Y-91598423D01*
X149475267Y-91583497D01*
X149425915Y-91534038D01*
X149418629Y-91518061D01*
X149383798Y-91424673D01*
X149383793Y-91424664D01*
X149297547Y-91309455D01*
X149297544Y-91309452D01*
X149182335Y-91223206D01*
X149182328Y-91223202D01*
X149047482Y-91172908D01*
X149047483Y-91172908D01*
X148987883Y-91166501D01*
X148987881Y-91166500D01*
X148987873Y-91166500D01*
X148987865Y-91166500D01*
X148499843Y-91166500D01*
X148432804Y-91146815D01*
X148407693Y-91125472D01*
X148313200Y-91020526D01*
X148313197Y-91020524D01*
X148313196Y-91020523D01*
X148313195Y-91020522D01*
X148243735Y-90970056D01*
X148201071Y-90914726D01*
X148195092Y-90845113D01*
X148212000Y-90813068D01*
X148212000Y-89774000D01*
X147462000Y-89774000D01*
X147462000Y-90346844D01*
X147468401Y-90406372D01*
X147468403Y-90406379D01*
X147518645Y-90541086D01*
X147518647Y-90541089D01*
X147591453Y-90638344D01*
X147615871Y-90703808D01*
X147601020Y-90772081D01*
X147551615Y-90821487D01*
X147517969Y-90833946D01*
X147476697Y-90842719D01*
X147476693Y-90842720D01*
X147313373Y-90915435D01*
X147168733Y-91020523D01*
X147049105Y-91153384D01*
X146959715Y-91308212D01*
X146959712Y-91308218D01*
X146904469Y-91478240D01*
X146904468Y-91478242D01*
X146885780Y-91656048D01*
X146904468Y-91833852D01*
X146906012Y-91838604D01*
X146953931Y-91986084D01*
X146960000Y-92024398D01*
X146960000Y-93222000D01*
X146996319Y-93258319D01*
X146994463Y-93260174D01*
X147024197Y-93294489D01*
X147034141Y-93363647D01*
X147005116Y-93427203D01*
X146999088Y-93433676D01*
X146869020Y-93563744D01*
X146747583Y-93685181D01*
X146686260Y-93718666D01*
X146659902Y-93721500D01*
X146037129Y-93721500D01*
X146037123Y-93721501D01*
X145977516Y-93727908D01*
X145842671Y-93778202D01*
X145842668Y-93778204D01*
X145742894Y-93852895D01*
X145677429Y-93877312D01*
X145609156Y-93862460D01*
X145594272Y-93852895D01*
X145495089Y-93778647D01*
X145495086Y-93778645D01*
X145360379Y-93728403D01*
X145360372Y-93728401D01*
X145300844Y-93722000D01*
X144878000Y-93722000D01*
X144878000Y-95422000D01*
X145300828Y-95422000D01*
X145300844Y-95421999D01*
X145360372Y-95415598D01*
X145360379Y-95415596D01*
X145495086Y-95365354D01*
X145495093Y-95365350D01*
X145594272Y-95291105D01*
X145659736Y-95266687D01*
X145728009Y-95281538D01*
X145742890Y-95291101D01*
X145742895Y-95291105D01*
X145842669Y-95365796D01*
X145842671Y-95365797D01*
X145977517Y-95416091D01*
X145977516Y-95416091D01*
X145984444Y-95416835D01*
X146037127Y-95422500D01*
X147382872Y-95422499D01*
X147442483Y-95416091D01*
X147577331Y-95365796D01*
X147577334Y-95365793D01*
X147585114Y-95361546D01*
X147586794Y-95364624D01*
X147636508Y-95346075D01*
X147704783Y-95360918D01*
X147754195Y-95410317D01*
X147761552Y-95426425D01*
X147796202Y-95519328D01*
X147796206Y-95519335D01*
X147882452Y-95634544D01*
X147882455Y-95634547D01*
X147997664Y-95720793D01*
X147997671Y-95720797D01*
X148132517Y-95771091D01*
X148132516Y-95771091D01*
X148139444Y-95771835D01*
X148192127Y-95777500D01*
X148987872Y-95777499D01*
X149047483Y-95771091D01*
X149182331Y-95720796D01*
X149297546Y-95634546D01*
X149383796Y-95519331D01*
X149418447Y-95426425D01*
X149460317Y-95370492D01*
X149525781Y-95346074D01*
X149594054Y-95360925D01*
X149595786Y-95362037D01*
X149602671Y-95365797D01*
X149647618Y-95382561D01*
X149737517Y-95416091D01*
X149756523Y-95418134D01*
X149821071Y-95444870D01*
X149860921Y-95502262D01*
X149863416Y-95572087D01*
X149830948Y-95629104D01*
X149473483Y-95986569D01*
X149460910Y-95996643D01*
X149461065Y-95996830D01*
X149455059Y-96001798D01*
X149430434Y-96028021D01*
X149405809Y-96054244D01*
X149394949Y-96065104D01*
X149384088Y-96075965D01*
X149384078Y-96075977D01*
X149379587Y-96081765D01*
X149375801Y-96086197D01*
X149342552Y-96121606D01*
X149332322Y-96140213D01*
X149321646Y-96156464D01*
X149308640Y-96173232D01*
X149308636Y-96173238D01*
X149289348Y-96217811D01*
X149286777Y-96223058D01*
X149263372Y-96265630D01*
X149263372Y-96265631D01*
X149258091Y-96286199D01*
X149251791Y-96304601D01*
X149243364Y-96324073D01*
X149235766Y-96372047D01*
X149234581Y-96377770D01*
X149222500Y-96424818D01*
X149222500Y-96446044D01*
X149220973Y-96465444D01*
X149217653Y-96486403D01*
X149222225Y-96534767D01*
X149222500Y-96540606D01*
X149222500Y-97142125D01*
X149202815Y-97209164D01*
X149186181Y-97229806D01*
X149185327Y-97230660D01*
X149124004Y-97264145D01*
X149054312Y-97259161D01*
X149009965Y-97230660D01*
X149000732Y-97221427D01*
X149000728Y-97221424D01*
X148856492Y-97132457D01*
X148856481Y-97132452D01*
X148695606Y-97079144D01*
X148596322Y-97069000D01*
X148573000Y-97069000D01*
X148573000Y-99018999D01*
X148596308Y-99018999D01*
X148596322Y-99018998D01*
X148695607Y-99008855D01*
X148856481Y-98955547D01*
X148856492Y-98955542D01*
X149000731Y-98866573D01*
X149009959Y-98857345D01*
X149071279Y-98823856D01*
X149140971Y-98828835D01*
X149185327Y-98857339D01*
X149194955Y-98866967D01*
X149194959Y-98866970D01*
X149339294Y-98955998D01*
X149339297Y-98955999D01*
X149339303Y-98956003D01*
X149500292Y-99009349D01*
X149599655Y-99019500D01*
X150146344Y-99019499D01*
X150146352Y-99019498D01*
X150146355Y-99019498D01*
X150200760Y-99013940D01*
X150245708Y-99009349D01*
X150406697Y-98956003D01*
X150551044Y-98866968D01*
X150670968Y-98747044D01*
X150760003Y-98602697D01*
X150813349Y-98441708D01*
X150823500Y-98342345D01*
X150823499Y-97745656D01*
X150813349Y-97646292D01*
X150760003Y-97485303D01*
X150759999Y-97485297D01*
X150759998Y-97485294D01*
X150670970Y-97340959D01*
X150670969Y-97340958D01*
X150670968Y-97340956D01*
X150559818Y-97229806D01*
X150526334Y-97168483D01*
X150523500Y-97142125D01*
X150523500Y-96827808D01*
X150543185Y-96760769D01*
X150559819Y-96740127D01*
X150695091Y-96604855D01*
X150914092Y-96385853D01*
X150975413Y-96352370D01*
X150975477Y-96352356D01*
X151140267Y-96317329D01*
X151303593Y-96244612D01*
X151448230Y-96139526D01*
X151464365Y-96121607D01*
X151474148Y-96110741D01*
X151567859Y-96006665D01*
X151657250Y-95851835D01*
X151712497Y-95681803D01*
X151731185Y-95504000D01*
X151712497Y-95326197D01*
X151678804Y-95222500D01*
X151657252Y-95156170D01*
X151657249Y-95156164D01*
X151608535Y-95071789D01*
X151592062Y-95003889D01*
X151592630Y-94996559D01*
X151595500Y-94969873D01*
X151595499Y-94516348D01*
X151615183Y-94449310D01*
X151667987Y-94403555D01*
X151668959Y-94403116D01*
X151811593Y-94339612D01*
X151956230Y-94234526D01*
X152075859Y-94101665D01*
X152165250Y-93946835D01*
X152220497Y-93776803D01*
X152224367Y-93739982D01*
X152250950Y-93675370D01*
X152308248Y-93635385D01*
X152378067Y-93632725D01*
X152435368Y-93665265D01*
X152518597Y-93748494D01*
X152704158Y-93878425D01*
X152747783Y-93933002D01*
X152754977Y-94002500D01*
X152723454Y-94064855D01*
X152704158Y-94081575D01*
X152518597Y-94211505D01*
X152351506Y-94378597D01*
X152351501Y-94378604D01*
X152215967Y-94572165D01*
X152215965Y-94572169D01*
X152116098Y-94786335D01*
X152116094Y-94786344D01*
X152054938Y-95014586D01*
X152054936Y-95014596D01*
X152034341Y-95249999D01*
X152034341Y-95250000D01*
X152054936Y-95485403D01*
X152054938Y-95485413D01*
X152116094Y-95713655D01*
X152116096Y-95713659D01*
X152116097Y-95713663D01*
X152146746Y-95779389D01*
X152215964Y-95927828D01*
X152215965Y-95927830D01*
X152351505Y-96121402D01*
X152518597Y-96288494D01*
X152704158Y-96418425D01*
X152747783Y-96473002D01*
X152754977Y-96542500D01*
X152723454Y-96604855D01*
X152704158Y-96621575D01*
X152518597Y-96751505D01*
X152351506Y-96918597D01*
X152351501Y-96918604D01*
X152215967Y-97112165D01*
X152215965Y-97112169D01*
X152116098Y-97326335D01*
X152116094Y-97326344D01*
X152054938Y-97554586D01*
X152054936Y-97554596D01*
X152034341Y-97789999D01*
X152034341Y-97790000D01*
X152054936Y-98025403D01*
X152054938Y-98025413D01*
X152116094Y-98253655D01*
X152116096Y-98253659D01*
X152116097Y-98253663D01*
X152134907Y-98294000D01*
X152215964Y-98467828D01*
X152215965Y-98467830D01*
X152351505Y-98661402D01*
X152518597Y-98828494D01*
X152712169Y-98964034D01*
X152712171Y-98964035D01*
X152926337Y-99063903D01*
X153154592Y-99125063D01*
X153331034Y-99140500D01*
X154148960Y-99140500D01*
X154148966Y-99140500D01*
X154154189Y-99140043D01*
X154175811Y-99140043D01*
X154181034Y-99140500D01*
X154815500Y-99140500D01*
X154882539Y-99160185D01*
X154928294Y-99212989D01*
X154939500Y-99264500D01*
X154939500Y-99327289D01*
X154939264Y-99332697D01*
X154935523Y-99375445D01*
X154923082Y-99501760D01*
X154919454Y-99521699D01*
X154901601Y-99588330D01*
X154873318Y-99681563D01*
X154867040Y-99697971D01*
X154835614Y-99765367D01*
X154834101Y-99768393D01*
X154789236Y-99852327D01*
X154785341Y-99858667D01*
X154739015Y-99924828D01*
X154736154Y-99928600D01*
X154676895Y-100000808D01*
X154672806Y-100005320D01*
X154615320Y-100062806D01*
X154610808Y-100066895D01*
X154538600Y-100126154D01*
X154534828Y-100129015D01*
X154468667Y-100175341D01*
X154462327Y-100179236D01*
X154378393Y-100224101D01*
X154375367Y-100225614D01*
X154307971Y-100257040D01*
X154291563Y-100263318D01*
X154198330Y-100291601D01*
X154131699Y-100309454D01*
X154111760Y-100313082D01*
X153985445Y-100325523D01*
X153944789Y-100329080D01*
X153942696Y-100329264D01*
X153937290Y-100329500D01*
X145666000Y-100329500D01*
X145598961Y-100309815D01*
X145553206Y-100257011D01*
X145542000Y-100205500D01*
X145542000Y-98632913D01*
X145561685Y-98565874D01*
X145614489Y-98520119D01*
X145640214Y-98511624D01*
X145806267Y-98476329D01*
X145969593Y-98403612D01*
X146114230Y-98298526D01*
X146118306Y-98294000D01*
X147373001Y-98294000D01*
X147373001Y-98342322D01*
X147383144Y-98441607D01*
X147436452Y-98602481D01*
X147436457Y-98602492D01*
X147525424Y-98746728D01*
X147525427Y-98746732D01*
X147645267Y-98866572D01*
X147645271Y-98866575D01*
X147789507Y-98955542D01*
X147789518Y-98955547D01*
X147950393Y-99008855D01*
X148049683Y-99018999D01*
X148073000Y-99018998D01*
X148073000Y-98294000D01*
X147373001Y-98294000D01*
X146118306Y-98294000D01*
X146154632Y-98253655D01*
X146233859Y-98165665D01*
X146323250Y-98010835D01*
X146378497Y-97840803D01*
X146383416Y-97794000D01*
X147373000Y-97794000D01*
X148073000Y-97794000D01*
X148073000Y-97068999D01*
X148049693Y-97069000D01*
X148049674Y-97069001D01*
X147950392Y-97079144D01*
X147789518Y-97132452D01*
X147789507Y-97132457D01*
X147645271Y-97221424D01*
X147645267Y-97221427D01*
X147525427Y-97341267D01*
X147525424Y-97341271D01*
X147436457Y-97485507D01*
X147436452Y-97485518D01*
X147383144Y-97646393D01*
X147373000Y-97745677D01*
X147373000Y-97794000D01*
X146383416Y-97794000D01*
X146397185Y-97663000D01*
X146378497Y-97485197D01*
X146349912Y-97397222D01*
X146323251Y-97315167D01*
X146321387Y-97310982D01*
X146312093Y-97241733D01*
X146341714Y-97178453D01*
X146361773Y-97160217D01*
X146368230Y-97155526D01*
X146487859Y-97022665D01*
X146577250Y-96867835D01*
X146632497Y-96697803D01*
X146651185Y-96520000D01*
X146632497Y-96342197D01*
X146592466Y-96218994D01*
X146577252Y-96172170D01*
X146577249Y-96172164D01*
X146568185Y-96156464D01*
X146487859Y-96017335D01*
X146441003Y-95965296D01*
X146368235Y-95884478D01*
X146368232Y-95884476D01*
X146368231Y-95884475D01*
X146368230Y-95884474D01*
X146223593Y-95779388D01*
X146060267Y-95706671D01*
X146060265Y-95706670D01*
X145932594Y-95679533D01*
X145885391Y-95669500D01*
X145706609Y-95669500D01*
X145675954Y-95676015D01*
X145531733Y-95706670D01*
X145531728Y-95706672D01*
X145368408Y-95779387D01*
X145223768Y-95884475D01*
X145104140Y-96017336D01*
X145014750Y-96172164D01*
X145014747Y-96172170D01*
X144959504Y-96342192D01*
X144959503Y-96342194D01*
X144940815Y-96520000D01*
X144959503Y-96697805D01*
X144959504Y-96697807D01*
X145014050Y-96865682D01*
X145016045Y-96935523D01*
X144979965Y-96995356D01*
X144917264Y-97026184D01*
X144896119Y-97028000D01*
X141871830Y-97028000D01*
X141804791Y-97008315D01*
X141759036Y-96955511D01*
X141753898Y-96942315D01*
X141751251Y-96934169D01*
X141751250Y-96934165D01*
X141661859Y-96779335D01*
X141588449Y-96697805D01*
X141542235Y-96646478D01*
X141542232Y-96646476D01*
X141542231Y-96646475D01*
X141542230Y-96646474D01*
X141397593Y-96541388D01*
X141234267Y-96468671D01*
X141234265Y-96468670D01*
X141106594Y-96441533D01*
X141059391Y-96431500D01*
X140880609Y-96431500D01*
X140849954Y-96438015D01*
X140705733Y-96468670D01*
X140705728Y-96468672D01*
X140542408Y-96541387D01*
X140397768Y-96646475D01*
X140278140Y-96779336D01*
X140188750Y-96934164D01*
X140188748Y-96934169D01*
X140186102Y-96942315D01*
X140146666Y-96999992D01*
X140082308Y-97027191D01*
X140068170Y-97028000D01*
X139483122Y-97028000D01*
X139416083Y-97008315D01*
X139370740Y-96956404D01*
X139303602Y-96812426D01*
X139303599Y-96812420D01*
X139168113Y-96618926D01*
X139168108Y-96618920D01*
X139086370Y-96537182D01*
X139086369Y-96537182D01*
X138486359Y-97137191D01*
X138403100Y-97065048D01*
X138272315Y-97005320D01*
X138165763Y-96990000D01*
X138094237Y-96990000D01*
X137987685Y-97005320D01*
X137856900Y-97065048D01*
X137815695Y-97100751D01*
X138678363Y-96238081D01*
X138680492Y-96218994D01*
X138724547Y-96164764D01*
X138742443Y-96154524D01*
X138807829Y-96124035D01*
X139001401Y-95988495D01*
X139168495Y-95821401D01*
X139304035Y-95627830D01*
X139403903Y-95413663D01*
X139465063Y-95185408D01*
X139485659Y-94950000D01*
X139480174Y-94887307D01*
X139493941Y-94818807D01*
X139542556Y-94768624D01*
X139603702Y-94752499D01*
X139619000Y-94752499D01*
X139686039Y-94772184D01*
X139731794Y-94824988D01*
X139743000Y-94876499D01*
X139743000Y-94969844D01*
X139749401Y-95029372D01*
X139749403Y-95029379D01*
X139799645Y-95164086D01*
X139799649Y-95164093D01*
X139885809Y-95279187D01*
X139885812Y-95279190D01*
X140000906Y-95365350D01*
X140000913Y-95365354D01*
X140135620Y-95415596D01*
X140135627Y-95415598D01*
X140195155Y-95421999D01*
X140195172Y-95422000D01*
X140618000Y-95422000D01*
X140618000Y-93722000D01*
X141118000Y-93722000D01*
X141118000Y-95422000D01*
X141540828Y-95422000D01*
X141540844Y-95421999D01*
X141600372Y-95415598D01*
X141600379Y-95415596D01*
X141735086Y-95365354D01*
X141742872Y-95361103D01*
X141744543Y-95364163D01*
X141794319Y-95345588D01*
X141862595Y-95360427D01*
X141912009Y-95409823D01*
X141919370Y-95425937D01*
X141954202Y-95519328D01*
X141954206Y-95519335D01*
X142040452Y-95634544D01*
X142040455Y-95634547D01*
X142155664Y-95720793D01*
X142155671Y-95720797D01*
X142290517Y-95771091D01*
X142290516Y-95771091D01*
X142297444Y-95771835D01*
X142350127Y-95777500D01*
X143145872Y-95777499D01*
X143205483Y-95771091D01*
X143340331Y-95720796D01*
X143455546Y-95634546D01*
X143541796Y-95519331D01*
X143576629Y-95425937D01*
X143618499Y-95370004D01*
X143683963Y-95345586D01*
X143752236Y-95360437D01*
X143754093Y-95361630D01*
X143760913Y-95365354D01*
X143895620Y-95415596D01*
X143895627Y-95415598D01*
X143955155Y-95421999D01*
X143955172Y-95422000D01*
X144378000Y-95422000D01*
X144378000Y-93722000D01*
X143955155Y-93722000D01*
X143895627Y-93728401D01*
X143895620Y-93728403D01*
X143760913Y-93778645D01*
X143760906Y-93778649D01*
X143645812Y-93864809D01*
X143645809Y-93864812D01*
X143559649Y-93979906D01*
X143559645Y-93979913D01*
X143509403Y-94114620D01*
X143509401Y-94114627D01*
X143503000Y-94174155D01*
X143503000Y-94365282D01*
X143483315Y-94432321D01*
X143430511Y-94478076D01*
X143361353Y-94488020D01*
X143335667Y-94481464D01*
X143205482Y-94432908D01*
X143205483Y-94432908D01*
X143145883Y-94426501D01*
X143145881Y-94426500D01*
X143145873Y-94426500D01*
X143145864Y-94426500D01*
X142350129Y-94426500D01*
X142350123Y-94426501D01*
X142290516Y-94432908D01*
X142160333Y-94481464D01*
X142090641Y-94486448D01*
X142029318Y-94452963D01*
X141995834Y-94391639D01*
X141993000Y-94365282D01*
X141993000Y-94174172D01*
X141992999Y-94174155D01*
X141986598Y-94114627D01*
X141986596Y-94114620D01*
X141936354Y-93979913D01*
X141936350Y-93979906D01*
X141850190Y-93864812D01*
X141850187Y-93864809D01*
X141735093Y-93778649D01*
X141735086Y-93778645D01*
X141600379Y-93728403D01*
X141600372Y-93728401D01*
X141540844Y-93722000D01*
X141118000Y-93722000D01*
X140618000Y-93722000D01*
X140603106Y-93707106D01*
X140569621Y-93645783D01*
X140574605Y-93576091D01*
X140616477Y-93520158D01*
X140617710Y-93519247D01*
X140633182Y-93508006D01*
X140638038Y-93504816D01*
X140679865Y-93480081D01*
X140694870Y-93465075D01*
X140709668Y-93452436D01*
X140726837Y-93439963D01*
X140757809Y-93402522D01*
X140761713Y-93398231D01*
X140901129Y-93258815D01*
X140962450Y-93225333D01*
X140988808Y-93222499D01*
X141540871Y-93222499D01*
X141540872Y-93222499D01*
X141600483Y-93216091D01*
X141735331Y-93165796D01*
X141850546Y-93079546D01*
X141856052Y-93072191D01*
X141911985Y-93030319D01*
X141955320Y-93022500D01*
X143540680Y-93022500D01*
X143607719Y-93042185D01*
X143639948Y-93072191D01*
X143645454Y-93079546D01*
X143660895Y-93091105D01*
X143760664Y-93165793D01*
X143760671Y-93165797D01*
X143895517Y-93216091D01*
X143895516Y-93216091D01*
X143902444Y-93216835D01*
X143955127Y-93222500D01*
X145300872Y-93222499D01*
X145360483Y-93216091D01*
X145495331Y-93165796D01*
X145595106Y-93091104D01*
X145660568Y-93066687D01*
X145728841Y-93081538D01*
X145743727Y-93091104D01*
X145842911Y-93165352D01*
X145842913Y-93165354D01*
X145977620Y-93215596D01*
X145977627Y-93215598D01*
X146037155Y-93221999D01*
X146037172Y-93222000D01*
X146460000Y-93222000D01*
X146460000Y-91522000D01*
X146080000Y-91522000D01*
X146080000Y-91566000D01*
X146060315Y-91633039D01*
X146007511Y-91678794D01*
X145956000Y-91690000D01*
X145685942Y-91690000D01*
X145618903Y-91670315D01*
X145611631Y-91665266D01*
X145495335Y-91578206D01*
X145495328Y-91578202D01*
X145360482Y-91527908D01*
X145360484Y-91527908D01*
X145301191Y-91521534D01*
X145236640Y-91494796D01*
X145205778Y-91457970D01*
X145202565Y-91452124D01*
X145182620Y-91424673D01*
X145174014Y-91412827D01*
X145170811Y-91407951D01*
X145161970Y-91393002D01*
X145146081Y-91366135D01*
X145146079Y-91366133D01*
X145146078Y-91366131D01*
X145131075Y-91351129D01*
X145118438Y-91336333D01*
X145105963Y-91319163D01*
X145105962Y-91319162D01*
X145104180Y-91316709D01*
X145080702Y-91250902D01*
X145080500Y-91243826D01*
X145080500Y-91205308D01*
X145079295Y-91190000D01*
X145510000Y-91190000D01*
X146038790Y-91190000D01*
X146037145Y-91169089D01*
X145992031Y-91013804D01*
X145909721Y-90874625D01*
X145909714Y-90874616D01*
X145795383Y-90760285D01*
X145795374Y-90760278D01*
X145656193Y-90677967D01*
X145656190Y-90677965D01*
X145510001Y-90635493D01*
X145510000Y-90635494D01*
X145510000Y-91190000D01*
X145079295Y-91190000D01*
X145077643Y-91169008D01*
X145077642Y-91169002D01*
X145032495Y-91013608D01*
X145032492Y-91013600D01*
X145027266Y-91004763D01*
X145010000Y-90941645D01*
X145010000Y-90635494D01*
X145009998Y-90635493D01*
X144863809Y-90677965D01*
X144863806Y-90677967D01*
X144843608Y-90689912D01*
X144775884Y-90707092D01*
X144717370Y-90689910D01*
X144696397Y-90677507D01*
X144696390Y-90677504D01*
X144540997Y-90632357D01*
X144540991Y-90632356D01*
X144504692Y-90629500D01*
X144504690Y-90629500D01*
X144095310Y-90629500D01*
X144095308Y-90629500D01*
X144059010Y-90632356D01*
X144059007Y-90632357D01*
X144029092Y-90641047D01*
X143959224Y-90640848D01*
X143900554Y-90602906D01*
X143871711Y-90539267D01*
X143870499Y-90521971D01*
X143870499Y-89898998D01*
X143870498Y-89898981D01*
X143859999Y-89796203D01*
X143859998Y-89796200D01*
X143852642Y-89774000D01*
X143804814Y-89629666D01*
X143712712Y-89480344D01*
X143650229Y-89417861D01*
X143616744Y-89356538D01*
X143621190Y-89294361D01*
X143619568Y-89293890D01*
X143625347Y-89274000D01*
X147462000Y-89274000D01*
X148212000Y-89274000D01*
X148212000Y-88249000D01*
X147914155Y-88249000D01*
X147854627Y-88255401D01*
X147854620Y-88255403D01*
X147719913Y-88305645D01*
X147719906Y-88305649D01*
X147604812Y-88391809D01*
X147604809Y-88391812D01*
X147518649Y-88506906D01*
X147518645Y-88506913D01*
X147468403Y-88641620D01*
X147468401Y-88641627D01*
X147462000Y-88701155D01*
X147462000Y-89274000D01*
X143625347Y-89274000D01*
X143667597Y-89128573D01*
X143667598Y-89128567D01*
X143670500Y-89091696D01*
X143670500Y-87935304D01*
X143667598Y-87898434D01*
X143667598Y-87898431D01*
X143666236Y-87893743D01*
X143666432Y-87823876D01*
X143667355Y-87820905D01*
X143712539Y-87681845D01*
X143726804Y-87546116D01*
X143753389Y-87481504D01*
X143810686Y-87441519D01*
X143880505Y-87438859D01*
X143915219Y-87453541D01*
X143952689Y-87476652D01*
X144022657Y-87519809D01*
X144022660Y-87519810D01*
X144022666Y-87519814D01*
X144189203Y-87574999D01*
X144291991Y-87585500D01*
X144892008Y-87585499D01*
X144892016Y-87585498D01*
X144892019Y-87585498D01*
X144948302Y-87579748D01*
X144994797Y-87574999D01*
X145161334Y-87519814D01*
X145310656Y-87427712D01*
X145434712Y-87303656D01*
X145436752Y-87300347D01*
X145438745Y-87298555D01*
X145439193Y-87297989D01*
X145439289Y-87298065D01*
X145488694Y-87253623D01*
X145557656Y-87242395D01*
X145621740Y-87270234D01*
X145647829Y-87300339D01*
X145649681Y-87303341D01*
X145649683Y-87303344D01*
X145773654Y-87427315D01*
X145922875Y-87519356D01*
X145922880Y-87519358D01*
X146089302Y-87574505D01*
X146089309Y-87574506D01*
X146192019Y-87584999D01*
X146241999Y-87584998D01*
X146242000Y-87584998D01*
X146242000Y-85134999D01*
X146235853Y-85128852D01*
X146202368Y-85067529D01*
X146207352Y-84997837D01*
X146249224Y-84941904D01*
X146307347Y-84918232D01*
X146346762Y-84913044D01*
X146492841Y-84852536D01*
X146557340Y-84803044D01*
X146618282Y-84756282D01*
X146639979Y-84728004D01*
X146645314Y-84721919D01*
X146693923Y-84673310D01*
X146700000Y-84667981D01*
X146728282Y-84646282D01*
X146737463Y-84634317D01*
X146752452Y-84614785D01*
X146789108Y-84567013D01*
X146845535Y-84525810D01*
X146887484Y-84518499D01*
X146997872Y-84518499D01*
X146997885Y-84518498D01*
X147036744Y-84514320D01*
X147063252Y-84514320D01*
X147102127Y-84518500D01*
X147497872Y-84518499D01*
X147497873Y-84518498D01*
X147497885Y-84518498D01*
X147536744Y-84514320D01*
X147563252Y-84514320D01*
X147602127Y-84518500D01*
X147734295Y-84518499D01*
X147801334Y-84538183D01*
X147847089Y-84590987D01*
X147853371Y-84607903D01*
X147858322Y-84624944D01*
X147862268Y-84643996D01*
X147864928Y-84665054D01*
X147864931Y-84665064D01*
X147882813Y-84710230D01*
X147884705Y-84715758D01*
X147898254Y-84762395D01*
X147898255Y-84762397D01*
X147898256Y-84762398D01*
X147908339Y-84779448D01*
X147909060Y-84780666D01*
X147917622Y-84798145D01*
X147923914Y-84814038D01*
X147930289Y-84883616D01*
X147898035Y-84945595D01*
X147851954Y-84975864D01*
X147719671Y-85025202D01*
X147719664Y-85025206D01*
X147604455Y-85111452D01*
X147604452Y-85111455D01*
X147518206Y-85226664D01*
X147518203Y-85226670D01*
X147484066Y-85318195D01*
X147442194Y-85374128D01*
X147376730Y-85398545D01*
X147308457Y-85383693D01*
X147280203Y-85362542D01*
X147210345Y-85292684D01*
X147061124Y-85200643D01*
X147061119Y-85200641D01*
X146894697Y-85145494D01*
X146894690Y-85145493D01*
X146791986Y-85135000D01*
X146742000Y-85135000D01*
X146742000Y-87584999D01*
X146791972Y-87584999D01*
X146791986Y-87584998D01*
X146894697Y-87574505D01*
X147061119Y-87519358D01*
X147061124Y-87519356D01*
X147210345Y-87427315D01*
X147334315Y-87303345D01*
X147335953Y-87300690D01*
X147337555Y-87299248D01*
X147338798Y-87297677D01*
X147339066Y-87297889D01*
X147387897Y-87253961D01*
X147456858Y-87242733D01*
X147520943Y-87270571D01*
X147540763Y-87291467D01*
X147604452Y-87376544D01*
X147604455Y-87376547D01*
X147719664Y-87462793D01*
X147719671Y-87462797D01*
X147854517Y-87513091D01*
X147854516Y-87513091D01*
X147861444Y-87513835D01*
X147914127Y-87519500D01*
X149009872Y-87519499D01*
X149069483Y-87513091D01*
X149204331Y-87462796D01*
X149277690Y-87407879D01*
X149343152Y-87383462D01*
X149411425Y-87398313D01*
X149426303Y-87407874D01*
X149499665Y-87462793D01*
X149499668Y-87462795D01*
X149499671Y-87462797D01*
X149634517Y-87513091D01*
X149634516Y-87513091D01*
X149692209Y-87519294D01*
X149756760Y-87546032D01*
X149796609Y-87603424D01*
X149802275Y-87629621D01*
X149821003Y-87807804D01*
X149821004Y-87807807D01*
X149876247Y-87977829D01*
X149876249Y-87977832D01*
X149876250Y-87977835D01*
X149893568Y-88007830D01*
X149925132Y-88062501D01*
X149941604Y-88130401D01*
X149918751Y-88196428D01*
X149863829Y-88239618D01*
X149817745Y-88248500D01*
X149694130Y-88248500D01*
X149694123Y-88248501D01*
X149634516Y-88254908D01*
X149499671Y-88305202D01*
X149499669Y-88305204D01*
X149425894Y-88360432D01*
X149360430Y-88384849D01*
X149292157Y-88369998D01*
X149277272Y-88360432D01*
X149204088Y-88305646D01*
X149204086Y-88305645D01*
X149069379Y-88255403D01*
X149069372Y-88255401D01*
X149009844Y-88249000D01*
X148712000Y-88249000D01*
X148712000Y-90799000D01*
X149009828Y-90799000D01*
X149009844Y-90798999D01*
X149069372Y-90792598D01*
X149069379Y-90792596D01*
X149204086Y-90742354D01*
X149204089Y-90742352D01*
X149277271Y-90687568D01*
X149342735Y-90663150D01*
X149411008Y-90678001D01*
X149425887Y-90687563D01*
X149451975Y-90707092D01*
X149499668Y-90742795D01*
X149499671Y-90742797D01*
X149634517Y-90793091D01*
X149634516Y-90793091D01*
X149641444Y-90793835D01*
X149694127Y-90799500D01*
X150789872Y-90799499D01*
X150849483Y-90793091D01*
X150984331Y-90742796D01*
X151099546Y-90656546D01*
X151185796Y-90541331D01*
X151236091Y-90406483D01*
X151242500Y-90346873D01*
X151242499Y-89402380D01*
X151262183Y-89335342D01*
X151268127Y-89326890D01*
X151268452Y-89326465D01*
X151273536Y-89319841D01*
X151273536Y-89319840D01*
X151273537Y-89319840D01*
X151299925Y-89256132D01*
X151334044Y-89173762D01*
X151349500Y-89056361D01*
X151354682Y-89017000D01*
X151350030Y-88981669D01*
X151349500Y-88973571D01*
X151349500Y-88165645D01*
X151366113Y-88103645D01*
X151438750Y-87977835D01*
X151440650Y-87971989D01*
X151445695Y-87956461D01*
X151493997Y-87807803D01*
X151512685Y-87630000D01*
X151493997Y-87452197D01*
X151447967Y-87310532D01*
X151438752Y-87282170D01*
X151438749Y-87282164D01*
X151349359Y-87127335D01*
X151305096Y-87078176D01*
X151274349Y-87044028D01*
X151244119Y-86981037D01*
X151242499Y-86961056D01*
X151242499Y-85421129D01*
X151242498Y-85421123D01*
X151242341Y-85419665D01*
X151236091Y-85361517D01*
X151229626Y-85344184D01*
X151185797Y-85226671D01*
X151185793Y-85226664D01*
X151099547Y-85111455D01*
X151099544Y-85111452D01*
X150984335Y-85025206D01*
X150984328Y-85025202D01*
X150849482Y-84974908D01*
X150849483Y-84974908D01*
X150789883Y-84968501D01*
X150789881Y-84968500D01*
X150789873Y-84968500D01*
X150789865Y-84968500D01*
X149937808Y-84968500D01*
X149870769Y-84948815D01*
X149850127Y-84932181D01*
X149639779Y-84721833D01*
X149606294Y-84660510D01*
X149611278Y-84590818D01*
X149653150Y-84534885D01*
X149700516Y-84516277D01*
X149699832Y-84513380D01*
X149707379Y-84511596D01*
X149842086Y-84461354D01*
X149842093Y-84461350D01*
X149957187Y-84375190D01*
X149957190Y-84375187D01*
X150043350Y-84260093D01*
X150043354Y-84260086D01*
X150093596Y-84125379D01*
X150093598Y-84125372D01*
X150099999Y-84065844D01*
X150100000Y-84065827D01*
X150100000Y-83972550D01*
X150119685Y-83905511D01*
X150120000Y-83905167D01*
X150120000Y-83094110D01*
X150144457Y-83133610D01*
X150233962Y-83201201D01*
X150341840Y-83231895D01*
X150453521Y-83221546D01*
X150553922Y-83171552D01*
X150620000Y-83099069D01*
X150620000Y-83901366D01*
X150621944Y-83901069D01*
X150621945Y-83901069D01*
X150812660Y-83830436D01*
X150812664Y-83830434D01*
X150985267Y-83722850D01*
X151132668Y-83582735D01*
X151132669Y-83582733D01*
X151248856Y-83415804D01*
X151329059Y-83228907D01*
X151370000Y-83029690D01*
X151370000Y-82628000D01*
X150670000Y-82628000D01*
X150670000Y-82128000D01*
X151370000Y-82128000D01*
X151370000Y-81777286D01*
X151354581Y-81625661D01*
X151293700Y-81431618D01*
X151293695Y-81431608D01*
X151194994Y-81253784D01*
X151194994Y-81253783D01*
X151062521Y-81099469D01*
X151062520Y-81099468D01*
X150901695Y-80974981D01*
X150719093Y-80885411D01*
X150620000Y-80859753D01*
X150620000Y-81661889D01*
X150595543Y-81622390D01*
X150506038Y-81554799D01*
X150398160Y-81524105D01*
X150286479Y-81534454D01*
X150186078Y-81584448D01*
X150120000Y-81656930D01*
X150120000Y-80854633D01*
X150118053Y-80854931D01*
X150118047Y-80854933D01*
X149927342Y-80925562D01*
X149927335Y-80925565D01*
X149754732Y-81033149D01*
X149607331Y-81173264D01*
X149607330Y-81173266D01*
X149491142Y-81340197D01*
X149491140Y-81340200D01*
X149487760Y-81348078D01*
X149443232Y-81401921D01*
X149376663Y-81423142D01*
X149309189Y-81405005D01*
X149298328Y-81397553D01*
X149284400Y-81386866D01*
X149243199Y-81330439D01*
X149239045Y-81260692D01*
X149239769Y-81257717D01*
X149240500Y-81254872D01*
X149240500Y-81233650D01*
X149242027Y-81214250D01*
X149242462Y-81211505D01*
X149245347Y-81193290D01*
X149240775Y-81144925D01*
X149240500Y-81139087D01*
X149240500Y-79206501D01*
X149242268Y-79190488D01*
X149242026Y-79190466D01*
X149242758Y-79182710D01*
X149242760Y-79182703D01*
X149240500Y-79110795D01*
X149240500Y-79080075D01*
X149239579Y-79072788D01*
X149239122Y-79066979D01*
X149237597Y-79018430D01*
X149237595Y-79018424D01*
X149236602Y-79012149D01*
X149245553Y-78942855D01*
X149290547Y-78889401D01*
X149357297Y-78868758D01*
X149424612Y-78887480D01*
X149467493Y-78932567D01*
X149545005Y-79072215D01*
X149545005Y-79072216D01*
X149677478Y-79226530D01*
X149677479Y-79226531D01*
X149838304Y-79351018D01*
X150020907Y-79440589D01*
X150120000Y-79466244D01*
X150120000Y-78664110D01*
X150144457Y-78703610D01*
X150233962Y-78771201D01*
X150341840Y-78801895D01*
X150453521Y-78791546D01*
X150553922Y-78741552D01*
X150620000Y-78669069D01*
X150620000Y-79471365D01*
X150621944Y-79471069D01*
X150621945Y-79471069D01*
X150812660Y-79400436D01*
X150812664Y-79400434D01*
X150985267Y-79292850D01*
X151132668Y-79152735D01*
X151132669Y-79152733D01*
X151248856Y-78985804D01*
X151329059Y-78798907D01*
X151370000Y-78599690D01*
X151370000Y-78448000D01*
X150670000Y-78448000D01*
X150670000Y-77948000D01*
X151370000Y-77948000D01*
X151370000Y-77847286D01*
X151354581Y-77695661D01*
X151293700Y-77501618D01*
X151293695Y-77501608D01*
X151194994Y-77323784D01*
X151194994Y-77323783D01*
X151062521Y-77169469D01*
X151062520Y-77169468D01*
X150901695Y-77044981D01*
X150719092Y-76955410D01*
X150719093Y-76955410D01*
X150708009Y-76952541D01*
X150648043Y-76916681D01*
X150616985Y-76854094D01*
X150624694Y-76784651D01*
X150668723Y-76730400D01*
X150735093Y-76708564D01*
X150739090Y-76708500D01*
X153937293Y-76708500D01*
X153942695Y-76708735D01*
G37*
%TD.AperFunction*%
%TA.AperFunction,Conductor*%
G36*
X137670507Y-97280156D02*
G01*
X137630000Y-97418111D01*
X137630000Y-97561889D01*
X137670507Y-97699844D01*
X137732042Y-97795595D01*
X137514128Y-97577681D01*
X137480643Y-97516358D01*
X137485627Y-97446666D01*
X137514128Y-97402319D01*
X137732042Y-97184404D01*
X137670507Y-97280156D01*
G37*
%TD.AperFunction*%
%TA.AperFunction,Conductor*%
G36*
X141437631Y-76728185D02*
G01*
X141483386Y-76780989D01*
X141493330Y-76850147D01*
X141464305Y-76913703D01*
X141413657Y-76948782D01*
X141287334Y-76995565D01*
X141114732Y-77103149D01*
X140967331Y-77243264D01*
X140967330Y-77243266D01*
X140851143Y-77410195D01*
X140770940Y-77597092D01*
X140730000Y-77796309D01*
X140730000Y-77948000D01*
X141430000Y-77948000D01*
X141430000Y-78448000D01*
X140730000Y-78448000D01*
X140730000Y-78548713D01*
X140745418Y-78700338D01*
X140806299Y-78894381D01*
X140806304Y-78894391D01*
X140905005Y-79072215D01*
X140905005Y-79072216D01*
X141037478Y-79226530D01*
X141037479Y-79226531D01*
X141198304Y-79351018D01*
X141380907Y-79440589D01*
X141480000Y-79466244D01*
X141480000Y-78664110D01*
X141504457Y-78703610D01*
X141593962Y-78771201D01*
X141701840Y-78801895D01*
X141813521Y-78791546D01*
X141913922Y-78741552D01*
X141980000Y-78669069D01*
X141980000Y-79471366D01*
X141981944Y-79471069D01*
X141981945Y-79471069D01*
X142172660Y-79400436D01*
X142172664Y-79400434D01*
X142345267Y-79292850D01*
X142492668Y-79152735D01*
X142492669Y-79152733D01*
X142608856Y-78985804D01*
X142689059Y-78798907D01*
X142730000Y-78599690D01*
X142730000Y-78448000D01*
X142030000Y-78448000D01*
X142030000Y-77948000D01*
X142730000Y-77948000D01*
X142730000Y-77847286D01*
X142714581Y-77695661D01*
X142653700Y-77501618D01*
X142653695Y-77501608D01*
X142554994Y-77323784D01*
X142554994Y-77323783D01*
X142422521Y-77169469D01*
X142422520Y-77169468D01*
X142261695Y-77044981D01*
X142079092Y-76955410D01*
X142079093Y-76955410D01*
X142068009Y-76952541D01*
X142008043Y-76916681D01*
X141976985Y-76854094D01*
X141984694Y-76784651D01*
X142028723Y-76730400D01*
X142095093Y-76708564D01*
X142099090Y-76708500D01*
X150010592Y-76708500D01*
X150077631Y-76728185D01*
X150123386Y-76780989D01*
X150133330Y-76850147D01*
X150104305Y-76913703D01*
X150053657Y-76948782D01*
X149927334Y-76995565D01*
X149754732Y-77103149D01*
X149607331Y-77243264D01*
X149607330Y-77243266D01*
X149491143Y-77410195D01*
X149410940Y-77597092D01*
X149370000Y-77796309D01*
X149370000Y-77948000D01*
X150070000Y-77948000D01*
X150070000Y-78448000D01*
X149370000Y-78448000D01*
X149370000Y-78548713D01*
X149385419Y-78700340D01*
X149386684Y-78706495D01*
X149384417Y-78706960D01*
X149385514Y-78766391D01*
X149348831Y-78825856D01*
X149285821Y-78856048D01*
X149216491Y-78847383D01*
X149165595Y-78806543D01*
X149136019Y-78765835D01*
X149132810Y-78760950D01*
X149118110Y-78736094D01*
X149108081Y-78719135D01*
X149093075Y-78704129D01*
X149080435Y-78689330D01*
X149067961Y-78672160D01*
X149030528Y-78641194D01*
X149026206Y-78637260D01*
X148602434Y-78213488D01*
X148592361Y-78200914D01*
X148592174Y-78201070D01*
X148587201Y-78195059D01*
X148534756Y-78145810D01*
X148513035Y-78124089D01*
X148507240Y-78119594D01*
X148502798Y-78115799D01*
X148467396Y-78082554D01*
X148467388Y-78082548D01*
X148448792Y-78072325D01*
X148432531Y-78061644D01*
X148415763Y-78048637D01*
X148392180Y-78038432D01*
X148371178Y-78029343D01*
X148365956Y-78026786D01*
X148323368Y-78003373D01*
X148323365Y-78003372D01*
X148302801Y-77998092D01*
X148284396Y-77991790D01*
X148264927Y-77983365D01*
X148264921Y-77983363D01*
X148216951Y-77975766D01*
X148211236Y-77974582D01*
X148194772Y-77970355D01*
X148164180Y-77962500D01*
X148164177Y-77962500D01*
X148142955Y-77962500D01*
X148123555Y-77960973D01*
X148102596Y-77957653D01*
X148102595Y-77957653D01*
X148078786Y-77959903D01*
X148054230Y-77962225D01*
X148048392Y-77962500D01*
X145246504Y-77962500D01*
X145230493Y-77960732D01*
X145230471Y-77960974D01*
X145222704Y-77960240D01*
X145222703Y-77960240D01*
X145150796Y-77962500D01*
X145120075Y-77962500D01*
X145120071Y-77962500D01*
X145120061Y-77962501D01*
X145112793Y-77963419D01*
X145106976Y-77963876D01*
X145058436Y-77965402D01*
X145058425Y-77965404D01*
X145038049Y-77971323D01*
X145019008Y-77975266D01*
X144997953Y-77977926D01*
X144997937Y-77977930D01*
X144952776Y-77995810D01*
X144947250Y-77997702D01*
X144900602Y-78011255D01*
X144882332Y-78022060D01*
X144864863Y-78030618D01*
X144845128Y-78038432D01*
X144845126Y-78038433D01*
X144805839Y-78066977D01*
X144800956Y-78070184D01*
X144759132Y-78094919D01*
X144744126Y-78109926D01*
X144729336Y-78122558D01*
X144712167Y-78135032D01*
X144712165Y-78135034D01*
X144681194Y-78172470D01*
X144677262Y-78176791D01*
X143618483Y-79235569D01*
X143605910Y-79245643D01*
X143606065Y-79245830D01*
X143600059Y-79250798D01*
X143585106Y-79266722D01*
X143550809Y-79303244D01*
X143539949Y-79314104D01*
X143529088Y-79324965D01*
X143529078Y-79324977D01*
X143524587Y-79330765D01*
X143520801Y-79335197D01*
X143487552Y-79370606D01*
X143477322Y-79389213D01*
X143466646Y-79405464D01*
X143453640Y-79422232D01*
X143453636Y-79422238D01*
X143434348Y-79466811D01*
X143431777Y-79472058D01*
X143408372Y-79514630D01*
X143408372Y-79514631D01*
X143403091Y-79535199D01*
X143396791Y-79553601D01*
X143388364Y-79573073D01*
X143380766Y-79621047D01*
X143379581Y-79626770D01*
X143367500Y-79673818D01*
X143367500Y-79695044D01*
X143365973Y-79714443D01*
X143362653Y-79735405D01*
X143366357Y-79774586D01*
X143367225Y-79783767D01*
X143367500Y-79789606D01*
X143367500Y-81153457D01*
X143347815Y-81220496D01*
X143295011Y-81266251D01*
X143227315Y-81276396D01*
X143197730Y-81272501D01*
X143197725Y-81272500D01*
X143197720Y-81272500D01*
X143122280Y-81272500D01*
X143122272Y-81272500D01*
X143009764Y-81287313D01*
X143009763Y-81287313D01*
X142869769Y-81345300D01*
X142847821Y-81362142D01*
X142798743Y-81399800D01*
X142733575Y-81424994D01*
X142665131Y-81410956D01*
X142615141Y-81362142D01*
X142614839Y-81361602D01*
X142554994Y-81253784D01*
X142554994Y-81253783D01*
X142422521Y-81099469D01*
X142422520Y-81099468D01*
X142261695Y-80974981D01*
X142079093Y-80885411D01*
X141980000Y-80859753D01*
X141980000Y-81661889D01*
X141955543Y-81622390D01*
X141866038Y-81554799D01*
X141758160Y-81524105D01*
X141646479Y-81534454D01*
X141546078Y-81584448D01*
X141480000Y-81656930D01*
X141480000Y-80854633D01*
X141478053Y-80854931D01*
X141478047Y-80854933D01*
X141287342Y-80925562D01*
X141287335Y-80925565D01*
X141114732Y-81033149D01*
X140967331Y-81173264D01*
X140967330Y-81173266D01*
X140851143Y-81340195D01*
X140770940Y-81527092D01*
X140730000Y-81726309D01*
X140730000Y-82128000D01*
X141430000Y-82128000D01*
X141430000Y-82628000D01*
X140730000Y-82628000D01*
X140730000Y-82978713D01*
X140745418Y-83130338D01*
X140806299Y-83324381D01*
X140806304Y-83324391D01*
X140905005Y-83502215D01*
X140905005Y-83502216D01*
X141037478Y-83656530D01*
X141037479Y-83656531D01*
X141198304Y-83781018D01*
X141380907Y-83870589D01*
X141480000Y-83896244D01*
X141480000Y-83543000D01*
X141980000Y-83543000D01*
X141980000Y-83917200D01*
X141994824Y-83940047D01*
X142000000Y-83975500D01*
X142000000Y-84065844D01*
X142006401Y-84125372D01*
X142006403Y-84125379D01*
X142056645Y-84260086D01*
X142056649Y-84260093D01*
X142142809Y-84375187D01*
X142142812Y-84375190D01*
X142257906Y-84461350D01*
X142257913Y-84461354D01*
X142392620Y-84511596D01*
X142392627Y-84511598D01*
X142452155Y-84517999D01*
X142452172Y-84518000D01*
X142550000Y-84518000D01*
X142550000Y-83543000D01*
X141980000Y-83543000D01*
X141480000Y-83543000D01*
X141480000Y-83094110D01*
X141504457Y-83133610D01*
X141593962Y-83201201D01*
X141701840Y-83231895D01*
X141813521Y-83221546D01*
X141913922Y-83171552D01*
X141989484Y-83088666D01*
X142007175Y-83043000D01*
X142550000Y-83043000D01*
X142550000Y-82356779D01*
X142569685Y-82289740D01*
X142622489Y-82243985D01*
X142691647Y-82234041D01*
X142749487Y-82258404D01*
X142779230Y-82281227D01*
X142820433Y-82337655D01*
X142824587Y-82407401D01*
X142819926Y-82422933D01*
X142805908Y-82460517D01*
X142803232Y-82485413D01*
X142799501Y-82520123D01*
X142799500Y-82520135D01*
X142799500Y-84065870D01*
X142799501Y-84065876D01*
X142805908Y-84125483D01*
X142856202Y-84260328D01*
X142856203Y-84260330D01*
X142924767Y-84351919D01*
X142949184Y-84417383D01*
X142949500Y-84426230D01*
X142949500Y-84951500D01*
X142929815Y-85018539D01*
X142877011Y-85064294D01*
X142825500Y-85075500D01*
X142654304Y-85075500D01*
X142617432Y-85078401D01*
X142617426Y-85078402D01*
X142459607Y-85124254D01*
X142459594Y-85124259D01*
X142457620Y-85125427D01*
X142455872Y-85125870D01*
X142452441Y-85127355D01*
X142452201Y-85126801D01*
X142389895Y-85142603D01*
X142337601Y-85127248D01*
X142337356Y-85127816D01*
X142332758Y-85125826D01*
X142331398Y-85125427D01*
X142330203Y-85124720D01*
X142330193Y-85124716D01*
X142172494Y-85078900D01*
X142172497Y-85078900D01*
X142170000Y-85078703D01*
X142170000Y-85344184D01*
X142152733Y-85407304D01*
X142118254Y-85465605D01*
X142118254Y-85465606D01*
X142072402Y-85623426D01*
X142072401Y-85623432D01*
X142069500Y-85660304D01*
X142069500Y-86364500D01*
X142049815Y-86431539D01*
X141997011Y-86477294D01*
X141945500Y-86488500D01*
X141894500Y-86488500D01*
X141827461Y-86468815D01*
X141781706Y-86416011D01*
X141770500Y-86364500D01*
X141770500Y-85660304D01*
X141767598Y-85623432D01*
X141767597Y-85623426D01*
X141721745Y-85465606D01*
X141721745Y-85465605D01*
X141721744Y-85465603D01*
X141721744Y-85465602D01*
X141687267Y-85407304D01*
X141670000Y-85344184D01*
X141670000Y-85078703D01*
X141667504Y-85078900D01*
X141509806Y-85124716D01*
X141509791Y-85124722D01*
X141508599Y-85125428D01*
X141507543Y-85125695D01*
X141502641Y-85127817D01*
X141502298Y-85127025D01*
X141440873Y-85142603D01*
X141387710Y-85126992D01*
X141387554Y-85127353D01*
X141384630Y-85126087D01*
X141382377Y-85125426D01*
X141380399Y-85124256D01*
X141380393Y-85124254D01*
X141222573Y-85078402D01*
X141222567Y-85078401D01*
X141185696Y-85075500D01*
X141185694Y-85075500D01*
X140754306Y-85075500D01*
X140754304Y-85075500D01*
X140717432Y-85078401D01*
X140717426Y-85078402D01*
X140559606Y-85124254D01*
X140559603Y-85124255D01*
X140418137Y-85207917D01*
X140418129Y-85207923D01*
X140301923Y-85324129D01*
X140301917Y-85324137D01*
X140218255Y-85465603D01*
X140218254Y-85465606D01*
X140172402Y-85623426D01*
X140172401Y-85623432D01*
X140169500Y-85660304D01*
X140169500Y-86816696D01*
X140172401Y-86853567D01*
X140172402Y-86853573D01*
X140218254Y-87011393D01*
X140218255Y-87011396D01*
X140301917Y-87152862D01*
X140301923Y-87152870D01*
X140418127Y-87269074D01*
X140418131Y-87269077D01*
X140418135Y-87269081D01*
X140418139Y-87269083D01*
X140424295Y-87273858D01*
X140422571Y-87276079D01*
X140444926Y-87298421D01*
X140447141Y-87296704D01*
X140450836Y-87301468D01*
X140452683Y-87306174D01*
X140455602Y-87309091D01*
X140455921Y-87309631D01*
X140454394Y-87310532D01*
X140476368Y-87366505D01*
X140462685Y-87435022D01*
X140423145Y-87476652D01*
X140424298Y-87478139D01*
X140418129Y-87482923D01*
X140301923Y-87599129D01*
X140301917Y-87599137D01*
X140218255Y-87740603D01*
X140218254Y-87740606D01*
X140172402Y-87898426D01*
X140172401Y-87898432D01*
X140169500Y-87935304D01*
X140169500Y-89091696D01*
X140172401Y-89128567D01*
X140172402Y-89128573D01*
X140220432Y-89293890D01*
X140217737Y-89294672D01*
X140224665Y-89350762D01*
X140194379Y-89413727D01*
X140189985Y-89418354D01*
X140127682Y-89480657D01*
X140094163Y-89535000D01*
X139827000Y-89535000D01*
X139573000Y-89789000D01*
X139573000Y-91186000D01*
X139597319Y-91210319D01*
X139565523Y-91203561D01*
X139518320Y-91193528D01*
X139339538Y-91193528D01*
X139308883Y-91200043D01*
X139164662Y-91230698D01*
X139006022Y-91301330D01*
X138936772Y-91310614D01*
X138884465Y-91289626D01*
X138863781Y-91275143D01*
X138815839Y-91241573D01*
X138772215Y-91186999D01*
X138765021Y-91117501D01*
X138796543Y-91055146D01*
X138815836Y-91038428D01*
X139001401Y-90908495D01*
X139168495Y-90741401D01*
X139304035Y-90547830D01*
X139403903Y-90333663D01*
X139465063Y-90105408D01*
X139485659Y-89870000D01*
X139465063Y-89634592D01*
X139403903Y-89406337D01*
X139304035Y-89192171D01*
X139304034Y-89192169D01*
X139168494Y-88998597D01*
X139001403Y-88831506D01*
X138931410Y-88782497D01*
X138815838Y-88701573D01*
X138772215Y-88646999D01*
X138765021Y-88577500D01*
X138796543Y-88515145D01*
X138815836Y-88498428D01*
X139001401Y-88368495D01*
X139168495Y-88201401D01*
X139304035Y-88007830D01*
X139403903Y-87793663D01*
X139465063Y-87565408D01*
X139485659Y-87330000D01*
X139482968Y-87299248D01*
X139480747Y-87273858D01*
X139465063Y-87094592D01*
X139403903Y-86866337D01*
X139304035Y-86652171D01*
X139304034Y-86652169D01*
X139168494Y-86458597D01*
X139001403Y-86291506D01*
X138931410Y-86242497D01*
X138815838Y-86161573D01*
X138772215Y-86106999D01*
X138765021Y-86037500D01*
X138796543Y-85975145D01*
X138815836Y-85958428D01*
X139001401Y-85828495D01*
X139168495Y-85661401D01*
X139304035Y-85467830D01*
X139403903Y-85253663D01*
X139465063Y-85025408D01*
X139485659Y-84790000D01*
X139484823Y-84780450D01*
X139479695Y-84721833D01*
X139465063Y-84554592D01*
X139403903Y-84326337D01*
X139304035Y-84112171D01*
X139304034Y-84112169D01*
X139168494Y-83918597D01*
X139001403Y-83751506D01*
X138865762Y-83656530D01*
X138815838Y-83621573D01*
X138772215Y-83566999D01*
X138765021Y-83497500D01*
X138796543Y-83435145D01*
X138815836Y-83418428D01*
X139001401Y-83288495D01*
X139168495Y-83121401D01*
X139304035Y-82927830D01*
X139403903Y-82713663D01*
X139465063Y-82485408D01*
X139485659Y-82250000D01*
X139465063Y-82014592D01*
X139403903Y-81786337D01*
X139304035Y-81572171D01*
X139304034Y-81572169D01*
X139168494Y-81378597D01*
X139001403Y-81211506D01*
X138931410Y-81162497D01*
X138815838Y-81081573D01*
X138772215Y-81026999D01*
X138765021Y-80957500D01*
X138796543Y-80895145D01*
X138815836Y-80878428D01*
X139001401Y-80748495D01*
X139168495Y-80581401D01*
X139304035Y-80387830D01*
X139403903Y-80173663D01*
X139465063Y-79945408D01*
X139485659Y-79710000D01*
X139484350Y-79695044D01*
X139472415Y-79558629D01*
X139465063Y-79474592D01*
X139403903Y-79246337D01*
X139304035Y-79032171D01*
X139304034Y-79032169D01*
X139168494Y-78838597D01*
X139001402Y-78671505D01*
X138807830Y-78535965D01*
X138807828Y-78535964D01*
X138700746Y-78486031D01*
X138593663Y-78436097D01*
X138593659Y-78436096D01*
X138593655Y-78436094D01*
X138365413Y-78374938D01*
X138365403Y-78374936D01*
X138188966Y-78359500D01*
X137371034Y-78359500D01*
X137371028Y-78359500D01*
X137365784Y-78359958D01*
X137344216Y-78359958D01*
X137338972Y-78359500D01*
X137338966Y-78359500D01*
X136649500Y-78359500D01*
X136582461Y-78339815D01*
X136536706Y-78287011D01*
X136525500Y-78235500D01*
X136525500Y-77710705D01*
X136525736Y-77705299D01*
X136526580Y-77695661D01*
X136529476Y-77662544D01*
X136541918Y-77536223D01*
X136545542Y-77516309D01*
X136563402Y-77449653D01*
X136591683Y-77356424D01*
X136597953Y-77340037D01*
X136629420Y-77272558D01*
X136630872Y-77269653D01*
X136675764Y-77185666D01*
X136679657Y-77179331D01*
X136725994Y-77113155D01*
X136728827Y-77109420D01*
X136788122Y-77037168D01*
X136792162Y-77032710D01*
X136849710Y-76975162D01*
X136854168Y-76971122D01*
X136926420Y-76911827D01*
X136930155Y-76908994D01*
X136996334Y-76862654D01*
X137002666Y-76858764D01*
X137086653Y-76813872D01*
X137089558Y-76812420D01*
X137157037Y-76780953D01*
X137173424Y-76774683D01*
X137266653Y-76746402D01*
X137333309Y-76728542D01*
X137353223Y-76724918D01*
X137479542Y-76712477D01*
X137522305Y-76708735D01*
X137527706Y-76708500D01*
X141370592Y-76708500D01*
X141437631Y-76728185D01*
G37*
%TD.AperFunction*%
%TA.AperFunction,Conductor*%
G36*
X149484126Y-82247246D02*
G01*
X149534117Y-82296059D01*
X149550000Y-82356778D01*
X149550000Y-83419000D01*
X149530315Y-83486039D01*
X149477511Y-83531794D01*
X149426000Y-83543000D01*
X149424500Y-83543000D01*
X149357461Y-83523315D01*
X149311706Y-83470511D01*
X149300500Y-83419000D01*
X149300499Y-82520129D01*
X149300498Y-82520123D01*
X149300497Y-82520116D01*
X149294091Y-82460517D01*
X149280074Y-82422935D01*
X149275090Y-82353243D01*
X149308575Y-82291920D01*
X149320762Y-82281232D01*
X149350451Y-82258451D01*
X149350453Y-82258448D01*
X149350512Y-82258403D01*
X149415681Y-82233208D01*
X149484126Y-82247246D01*
G37*
%TD.AperFunction*%
%TD*%
M02*
