%TF.GenerationSoftware,KiCad,Pcbnew,7.0.9*%
%TF.CreationDate,2024-03-18T09:44:21-07:00*%
%TF.ProjectId,ESP32S3_Board,45535033-3253-4335-9f42-6f6172642e6b,rev?*%
%TF.SameCoordinates,Original*%
%TF.FileFunction,Copper,L2,Inr*%
%TF.FilePolarity,Positive*%
%FSLAX46Y46*%
G04 Gerber Fmt 4.6, Leading zero omitted, Abs format (unit mm)*
G04 Created by KiCad (PCBNEW 7.0.9) date 2024-03-18 09:44:21*
%MOMM*%
%LPD*%
G01*
G04 APERTURE LIST*
%TA.AperFunction,ComponentPad*%
%ADD10O,1.000000X2.100000*%
%TD*%
%TA.AperFunction,ComponentPad*%
%ADD11O,1.000000X1.600000*%
%TD*%
%TA.AperFunction,ComponentPad*%
%ADD12O,2.400000X1.700000*%
%TD*%
%TA.AperFunction,ViaPad*%
%ADD13C,0.700000*%
%TD*%
G04 APERTURE END LIST*
D10*
%TO.N,GND*%
%TO.C,J1*%
X150370000Y-82378000D03*
D11*
X150370000Y-78198000D03*
D10*
X141730000Y-82378000D03*
D11*
X141730000Y-78198000D03*
%TD*%
D12*
%TO.N,/IO7*%
%TO.C,J2*%
X136930000Y-79710000D03*
X137780000Y-79710000D03*
%TO.N,/IO6*%
X136930000Y-82250000D03*
X137780000Y-82250000D03*
%TO.N,/IO5*%
X136930000Y-84790000D03*
X137780000Y-84790000D03*
%TO.N,/IO4*%
X136930000Y-87330000D03*
X137780000Y-87330000D03*
%TO.N,/IO3*%
X136930000Y-89870000D03*
X137780000Y-89870000D03*
%TO.N,/IO2*%
X136930000Y-92410000D03*
X137780000Y-92410000D03*
%TO.N,+3.3V*%
X136930000Y-94950000D03*
X137780000Y-94950000D03*
%TO.N,GND*%
X136930000Y-97490000D03*
X137780000Y-97490000D03*
%TD*%
%TO.N,/IO17*%
%TO.C,J3*%
X153740000Y-80010000D03*
X154590000Y-80010000D03*
%TO.N,/IO33*%
X153740000Y-82550000D03*
X154590000Y-82550000D03*
%TO.N,/IO34*%
X153740000Y-85090000D03*
X154590000Y-85090000D03*
%TO.N,/IO35*%
X153740000Y-87630000D03*
X154590000Y-87630000D03*
%TO.N,/IO36*%
X153740000Y-90170000D03*
X154590000Y-90170000D03*
%TO.N,/IO37*%
X153740000Y-92710000D03*
X154590000Y-92710000D03*
%TO.N,/IO38*%
X153740000Y-95250000D03*
X154590000Y-95250000D03*
%TO.N,/IO45*%
X153740000Y-97790000D03*
X154590000Y-97790000D03*
%TD*%
D13*
%TO.N,Net-(J1-CC1)*%
X147828756Y-79365519D03*
%TO.N,/RESET*%
X139077729Y-91325729D03*
%TO.N,/BOOT*%
X147740965Y-91656048D03*
%TO.N,+3.3V*%
X150876000Y-95504000D03*
X145542000Y-97663000D03*
X142876042Y-87504042D03*
X151384000Y-93599000D03*
%TO.N,/USB_D-*%
X146349124Y-81234876D03*
%TO.N,/USB_D+*%
X147020876Y-80563124D03*
%TO.N,GND*%
X146304000Y-89281000D03*
X146268666Y-93531762D03*
X149860000Y-88011000D03*
X144526000Y-88265000D03*
X146304000Y-90170000D03*
X150241000Y-93345000D03*
X144526000Y-89281000D03*
X151765000Y-96393000D03*
X146558000Y-98806000D03*
X146304000Y-88265000D03*
X145415000Y-90170000D03*
X140187680Y-90332578D03*
X138430000Y-99314000D03*
X146177000Y-99695000D03*
X142113000Y-84963000D03*
X145415000Y-89281000D03*
X145415000Y-88265000D03*
X144526000Y-90170000D03*
X144018000Y-96774000D03*
%TO.N,/IO21*%
X150657500Y-87630000D03*
%TO.N,Net-(J1-CC2)*%
X144991089Y-80221089D03*
%TO.N,Net-(C10-Pad2)*%
X145796000Y-96520000D03*
%TO.N,Net-(AE1-ANT)*%
X140970000Y-97282000D03*
%TD*%
%TA.AperFunction,Conductor*%
%TO.N,GND*%
G36*
X141437631Y-76728185D02*
G01*
X141483386Y-76780989D01*
X141493330Y-76850147D01*
X141464305Y-76913703D01*
X141413657Y-76948782D01*
X141287334Y-76995565D01*
X141114732Y-77103149D01*
X140967331Y-77243264D01*
X140967330Y-77243266D01*
X140851143Y-77410195D01*
X140770940Y-77597092D01*
X140730000Y-77796309D01*
X140730000Y-77948000D01*
X141430000Y-77948000D01*
X141430000Y-78448000D01*
X140730000Y-78448000D01*
X140730000Y-78548713D01*
X140745418Y-78700338D01*
X140806299Y-78894381D01*
X140806304Y-78894391D01*
X140905005Y-79072215D01*
X140905005Y-79072216D01*
X141037478Y-79226530D01*
X141037479Y-79226531D01*
X141198304Y-79351018D01*
X141380907Y-79440589D01*
X141480000Y-79466244D01*
X141480000Y-78664110D01*
X141504457Y-78703610D01*
X141593962Y-78771201D01*
X141701840Y-78801895D01*
X141813521Y-78791546D01*
X141913922Y-78741552D01*
X141980000Y-78669069D01*
X141980000Y-79471366D01*
X141981944Y-79471069D01*
X141981945Y-79471069D01*
X142172660Y-79400436D01*
X142172664Y-79400434D01*
X142345267Y-79292850D01*
X142492668Y-79152735D01*
X142492669Y-79152733D01*
X142608856Y-78985804D01*
X142689059Y-78798907D01*
X142730000Y-78599690D01*
X142730000Y-78448000D01*
X142030000Y-78448000D01*
X142030000Y-77948000D01*
X142730000Y-77948000D01*
X142730000Y-77847286D01*
X142714581Y-77695661D01*
X142653700Y-77501618D01*
X142653695Y-77501608D01*
X142554994Y-77323784D01*
X142554994Y-77323783D01*
X142422521Y-77169469D01*
X142422520Y-77169468D01*
X142261695Y-77044981D01*
X142079092Y-76955410D01*
X142079093Y-76955410D01*
X142068009Y-76952541D01*
X142008043Y-76916681D01*
X141976985Y-76854094D01*
X141984694Y-76784651D01*
X142028723Y-76730400D01*
X142095093Y-76708564D01*
X142099090Y-76708500D01*
X150010592Y-76708500D01*
X150077631Y-76728185D01*
X150123386Y-76780989D01*
X150133330Y-76850147D01*
X150104305Y-76913703D01*
X150053657Y-76948782D01*
X149927334Y-76995565D01*
X149754732Y-77103149D01*
X149607331Y-77243264D01*
X149607330Y-77243266D01*
X149491143Y-77410195D01*
X149410940Y-77597092D01*
X149370000Y-77796309D01*
X149370000Y-77948000D01*
X150070000Y-77948000D01*
X150070000Y-78448000D01*
X149370000Y-78448000D01*
X149370000Y-78548713D01*
X149385418Y-78700338D01*
X149446299Y-78894381D01*
X149446304Y-78894391D01*
X149545005Y-79072215D01*
X149545005Y-79072216D01*
X149677478Y-79226530D01*
X149677479Y-79226531D01*
X149838304Y-79351018D01*
X150020907Y-79440589D01*
X150120000Y-79466244D01*
X150120000Y-78664110D01*
X150144457Y-78703610D01*
X150233962Y-78771201D01*
X150341840Y-78801895D01*
X150453521Y-78791546D01*
X150553922Y-78741552D01*
X150620000Y-78669069D01*
X150620000Y-79471366D01*
X150621944Y-79471069D01*
X150621945Y-79471069D01*
X150812660Y-79400436D01*
X150812664Y-79400434D01*
X150985267Y-79292850D01*
X151132668Y-79152735D01*
X151132669Y-79152733D01*
X151248856Y-78985804D01*
X151329059Y-78798907D01*
X151370000Y-78599690D01*
X151370000Y-78448000D01*
X150670000Y-78448000D01*
X150670000Y-77948000D01*
X151370000Y-77948000D01*
X151370000Y-77847286D01*
X151354581Y-77695661D01*
X151293700Y-77501618D01*
X151293695Y-77501608D01*
X151194994Y-77323784D01*
X151194994Y-77323783D01*
X151062521Y-77169469D01*
X151062520Y-77169468D01*
X150901695Y-77044981D01*
X150719092Y-76955410D01*
X150719093Y-76955410D01*
X150708009Y-76952541D01*
X150648043Y-76916681D01*
X150616985Y-76854094D01*
X150624694Y-76784651D01*
X150668723Y-76730400D01*
X150735093Y-76708564D01*
X150739090Y-76708500D01*
X153937293Y-76708500D01*
X153942695Y-76708735D01*
X153985519Y-76712482D01*
X154111771Y-76724918D01*
X154131685Y-76728541D01*
X154198349Y-76746403D01*
X154291570Y-76774682D01*
X154307971Y-76780958D01*
X154308848Y-76781367D01*
X154375411Y-76812406D01*
X154378375Y-76813888D01*
X154415969Y-76833982D01*
X154462327Y-76858762D01*
X154468667Y-76862657D01*
X154534828Y-76908983D01*
X154538600Y-76911844D01*
X154544494Y-76916681D01*
X154583609Y-76948782D01*
X154610808Y-76971103D01*
X154615309Y-76975182D01*
X154672815Y-77032688D01*
X154676895Y-77037190D01*
X154736154Y-77109398D01*
X154739015Y-77113170D01*
X154785341Y-77179331D01*
X154789236Y-77185671D01*
X154834101Y-77269605D01*
X154835614Y-77272631D01*
X154867040Y-77340027D01*
X154873319Y-77356435D01*
X154901601Y-77449669D01*
X154919454Y-77516299D01*
X154923082Y-77536238D01*
X154935523Y-77662554D01*
X154939264Y-77705302D01*
X154939500Y-77710710D01*
X154939500Y-78535500D01*
X154919815Y-78602539D01*
X154867011Y-78648294D01*
X154815500Y-78659500D01*
X154181028Y-78659500D01*
X154175784Y-78659958D01*
X154154216Y-78659958D01*
X154148972Y-78659500D01*
X154148966Y-78659500D01*
X153331034Y-78659500D01*
X153154596Y-78674936D01*
X153154586Y-78674938D01*
X152926344Y-78736094D01*
X152926335Y-78736098D01*
X152712171Y-78835964D01*
X152712169Y-78835965D01*
X152518597Y-78971505D01*
X152351506Y-79138597D01*
X152351501Y-79138604D01*
X152215967Y-79332165D01*
X152215965Y-79332169D01*
X152116098Y-79546335D01*
X152116094Y-79546344D01*
X152054938Y-79774586D01*
X152054936Y-79774596D01*
X152034341Y-80009999D01*
X152034341Y-80010000D01*
X152054936Y-80245403D01*
X152054938Y-80245413D01*
X152116094Y-80473655D01*
X152116096Y-80473659D01*
X152116097Y-80473663D01*
X152160518Y-80568924D01*
X152215964Y-80687828D01*
X152215965Y-80687830D01*
X152351505Y-80881402D01*
X152518597Y-81048494D01*
X152704158Y-81178425D01*
X152747783Y-81233002D01*
X152754977Y-81302500D01*
X152723454Y-81364855D01*
X152704158Y-81381575D01*
X152518597Y-81511505D01*
X152351506Y-81678597D01*
X152351501Y-81678604D01*
X152215967Y-81872165D01*
X152215965Y-81872169D01*
X152116098Y-82086335D01*
X152116094Y-82086344D01*
X152054938Y-82314586D01*
X152054936Y-82314596D01*
X152034341Y-82549999D01*
X152034341Y-82550000D01*
X152054936Y-82785403D01*
X152054938Y-82785413D01*
X152116094Y-83013655D01*
X152116096Y-83013659D01*
X152116097Y-83013663D01*
X152151072Y-83088666D01*
X152215964Y-83227828D01*
X152215965Y-83227830D01*
X152351505Y-83421402D01*
X152518597Y-83588494D01*
X152704158Y-83718425D01*
X152747783Y-83773002D01*
X152754977Y-83842500D01*
X152723454Y-83904855D01*
X152704158Y-83921575D01*
X152518597Y-84051505D01*
X152351506Y-84218597D01*
X152351501Y-84218604D01*
X152215967Y-84412165D01*
X152215965Y-84412169D01*
X152116098Y-84626335D01*
X152116094Y-84626344D01*
X152054938Y-84854586D01*
X152054936Y-84854596D01*
X152034341Y-85089999D01*
X152034341Y-85090000D01*
X152054936Y-85325403D01*
X152054938Y-85325413D01*
X152116094Y-85553655D01*
X152116096Y-85553659D01*
X152116097Y-85553663D01*
X152166031Y-85660746D01*
X152215964Y-85767828D01*
X152215965Y-85767830D01*
X152351505Y-85961402D01*
X152518597Y-86128494D01*
X152704158Y-86258425D01*
X152747783Y-86313002D01*
X152754977Y-86382500D01*
X152723454Y-86444855D01*
X152704158Y-86461575D01*
X152518597Y-86591505D01*
X152351506Y-86758597D01*
X152351501Y-86758604D01*
X152215967Y-86952165D01*
X152215965Y-86952169D01*
X152116098Y-87166335D01*
X152116094Y-87166344D01*
X152054938Y-87394586D01*
X152054936Y-87394596D01*
X152034341Y-87629999D01*
X152034341Y-87630000D01*
X152054936Y-87865403D01*
X152054938Y-87865413D01*
X152116094Y-88093655D01*
X152116096Y-88093659D01*
X152116097Y-88093663D01*
X152134283Y-88132663D01*
X152215964Y-88307828D01*
X152215965Y-88307830D01*
X152351505Y-88501402D01*
X152518597Y-88668494D01*
X152704158Y-88798425D01*
X152747783Y-88853002D01*
X152754977Y-88922500D01*
X152723454Y-88984855D01*
X152704158Y-89001575D01*
X152518597Y-89131505D01*
X152351506Y-89298597D01*
X152351501Y-89298604D01*
X152215967Y-89492165D01*
X152215965Y-89492169D01*
X152116098Y-89706335D01*
X152116094Y-89706344D01*
X152054938Y-89934586D01*
X152054936Y-89934596D01*
X152034341Y-90169999D01*
X152034341Y-90170000D01*
X152054936Y-90405403D01*
X152054938Y-90405413D01*
X152116094Y-90633655D01*
X152116096Y-90633659D01*
X152116097Y-90633663D01*
X152142462Y-90690203D01*
X152215964Y-90847828D01*
X152215965Y-90847830D01*
X152351505Y-91041402D01*
X152518597Y-91208494D01*
X152704158Y-91338425D01*
X152747783Y-91393002D01*
X152754977Y-91462500D01*
X152723454Y-91524855D01*
X152704158Y-91541575D01*
X152518597Y-91671505D01*
X152351506Y-91838597D01*
X152351501Y-91838604D01*
X152215967Y-92032165D01*
X152215965Y-92032169D01*
X152116098Y-92246335D01*
X152116094Y-92246344D01*
X152054938Y-92474586D01*
X152054936Y-92474596D01*
X152034341Y-92709999D01*
X152034341Y-92710003D01*
X152039609Y-92770225D01*
X152025842Y-92838725D01*
X151977226Y-92888907D01*
X151909197Y-92904840D01*
X151843354Y-92881464D01*
X151843194Y-92881348D01*
X151811595Y-92858389D01*
X151767429Y-92838725D01*
X151648267Y-92785671D01*
X151648265Y-92785670D01*
X151520594Y-92758533D01*
X151473391Y-92748500D01*
X151294609Y-92748500D01*
X151263954Y-92755015D01*
X151119733Y-92785670D01*
X151119728Y-92785672D01*
X150956408Y-92858387D01*
X150811768Y-92963475D01*
X150692140Y-93096336D01*
X150602750Y-93251164D01*
X150602747Y-93251170D01*
X150547504Y-93421192D01*
X150547503Y-93421194D01*
X150528815Y-93599000D01*
X150547503Y-93776805D01*
X150547504Y-93776807D01*
X150602747Y-93946829D01*
X150602750Y-93946835D01*
X150692141Y-94101665D01*
X150733812Y-94147946D01*
X150811764Y-94234521D01*
X150811767Y-94234523D01*
X150811770Y-94234526D01*
X150956407Y-94339612D01*
X151119733Y-94412329D01*
X151294609Y-94449500D01*
X151294610Y-94449500D01*
X151473389Y-94449500D01*
X151473391Y-94449500D01*
X151648267Y-94412329D01*
X151811593Y-94339612D01*
X151956230Y-94234526D01*
X152075859Y-94101665D01*
X152165250Y-93946835D01*
X152220497Y-93776803D01*
X152224367Y-93739982D01*
X152250950Y-93675370D01*
X152308248Y-93635385D01*
X152378067Y-93632725D01*
X152435368Y-93665265D01*
X152518597Y-93748494D01*
X152704158Y-93878425D01*
X152747783Y-93933002D01*
X152754977Y-94002500D01*
X152723454Y-94064855D01*
X152704158Y-94081575D01*
X152518597Y-94211505D01*
X152351506Y-94378597D01*
X152351501Y-94378604D01*
X152215967Y-94572165D01*
X152215965Y-94572169D01*
X152116098Y-94786335D01*
X152116094Y-94786344D01*
X152054938Y-95014586D01*
X152054936Y-95014596D01*
X152034341Y-95249999D01*
X152034341Y-95250000D01*
X152054936Y-95485403D01*
X152054938Y-95485413D01*
X152116094Y-95713655D01*
X152116096Y-95713659D01*
X152116097Y-95713663D01*
X152146746Y-95779389D01*
X152215964Y-95927828D01*
X152215965Y-95927830D01*
X152351505Y-96121402D01*
X152518597Y-96288494D01*
X152704158Y-96418425D01*
X152747783Y-96473002D01*
X152754977Y-96542500D01*
X152723454Y-96604855D01*
X152704158Y-96621575D01*
X152518597Y-96751505D01*
X152351506Y-96918597D01*
X152351501Y-96918604D01*
X152215967Y-97112165D01*
X152215965Y-97112169D01*
X152116098Y-97326335D01*
X152116094Y-97326344D01*
X152054938Y-97554586D01*
X152054936Y-97554596D01*
X152034341Y-97789999D01*
X152034341Y-97790000D01*
X152054936Y-98025403D01*
X152054938Y-98025413D01*
X152116094Y-98253655D01*
X152116096Y-98253659D01*
X152116097Y-98253663D01*
X152137015Y-98298521D01*
X152215964Y-98467828D01*
X152215965Y-98467830D01*
X152351505Y-98661402D01*
X152518597Y-98828494D01*
X152712169Y-98964034D01*
X152712171Y-98964035D01*
X152926337Y-99063903D01*
X153154592Y-99125063D01*
X153331034Y-99140500D01*
X154148960Y-99140500D01*
X154148966Y-99140500D01*
X154154189Y-99140043D01*
X154175811Y-99140043D01*
X154181034Y-99140500D01*
X154815500Y-99140500D01*
X154882539Y-99160185D01*
X154928294Y-99212989D01*
X154939500Y-99264500D01*
X154939500Y-99327289D01*
X154939264Y-99332697D01*
X154935523Y-99375445D01*
X154923082Y-99501760D01*
X154919454Y-99521699D01*
X154901601Y-99588330D01*
X154873318Y-99681563D01*
X154867040Y-99697971D01*
X154835614Y-99765367D01*
X154834101Y-99768393D01*
X154789236Y-99852327D01*
X154785341Y-99858667D01*
X154739015Y-99924828D01*
X154736154Y-99928600D01*
X154676895Y-100000808D01*
X154672806Y-100005320D01*
X154615320Y-100062806D01*
X154610808Y-100066895D01*
X154538600Y-100126154D01*
X154534828Y-100129015D01*
X154468667Y-100175341D01*
X154462327Y-100179236D01*
X154378393Y-100224101D01*
X154375367Y-100225614D01*
X154307971Y-100257040D01*
X154291563Y-100263318D01*
X154198330Y-100291601D01*
X154131699Y-100309454D01*
X154111760Y-100313082D01*
X153985445Y-100325523D01*
X153944789Y-100329080D01*
X153942696Y-100329264D01*
X153937290Y-100329500D01*
X137527710Y-100329500D01*
X137522303Y-100329264D01*
X137520015Y-100329063D01*
X137479554Y-100325523D01*
X137353238Y-100313082D01*
X137333299Y-100309454D01*
X137266669Y-100291601D01*
X137173435Y-100263319D01*
X137157027Y-100257040D01*
X137108433Y-100234381D01*
X137089618Y-100225607D01*
X137086605Y-100224101D01*
X137002671Y-100179236D01*
X136996331Y-100175341D01*
X136930170Y-100129015D01*
X136926398Y-100126154D01*
X136854190Y-100066895D01*
X136849688Y-100062815D01*
X136792182Y-100005309D01*
X136788103Y-100000808D01*
X136728844Y-99928600D01*
X136725983Y-99924828D01*
X136679657Y-99858667D01*
X136675762Y-99852327D01*
X136650982Y-99805969D01*
X136630888Y-99768375D01*
X136629406Y-99765411D01*
X136597958Y-99697971D01*
X136591682Y-99681570D01*
X136563398Y-99588330D01*
X136545541Y-99521685D01*
X136541918Y-99501771D01*
X136529482Y-99375519D01*
X136525735Y-99332695D01*
X136525500Y-99327293D01*
X136525500Y-98964000D01*
X136545185Y-98896961D01*
X136597989Y-98851206D01*
X136649500Y-98840000D01*
X137338946Y-98840000D01*
X137344189Y-98839541D01*
X137365811Y-98839541D01*
X137371054Y-98840000D01*
X137926446Y-98840000D01*
X136932552Y-97846106D01*
X136961761Y-97820798D01*
X137039493Y-97699844D01*
X137080000Y-97561889D01*
X137080000Y-97418111D01*
X137039493Y-97280156D01*
X136993498Y-97208587D01*
X137017680Y-97224128D01*
X138564696Y-98771144D01*
X138593492Y-98763429D01*
X138593493Y-98763429D01*
X138666044Y-98729597D01*
X137815696Y-97879249D01*
X137856900Y-97914952D01*
X137987685Y-97974680D01*
X138094237Y-97990000D01*
X138165763Y-97990000D01*
X138272315Y-97974680D01*
X138403100Y-97914952D01*
X138486359Y-97842807D01*
X139086369Y-98442817D01*
X139168110Y-98361076D01*
X139303600Y-98167578D01*
X139403429Y-97953492D01*
X139403433Y-97953483D01*
X139464567Y-97725326D01*
X139464569Y-97725315D01*
X139485157Y-97490001D01*
X139485157Y-97489998D01*
X139466959Y-97282000D01*
X140114815Y-97282000D01*
X140133503Y-97459805D01*
X140133504Y-97459807D01*
X140188747Y-97629829D01*
X140188750Y-97629835D01*
X140278141Y-97784665D01*
X140319812Y-97830946D01*
X140397764Y-97917521D01*
X140397767Y-97917523D01*
X140397770Y-97917526D01*
X140542407Y-98022612D01*
X140705733Y-98095329D01*
X140880609Y-98132500D01*
X140880610Y-98132500D01*
X141059389Y-98132500D01*
X141059391Y-98132500D01*
X141234267Y-98095329D01*
X141397593Y-98022612D01*
X141542230Y-97917526D01*
X141661859Y-97784665D01*
X141732102Y-97663000D01*
X144686815Y-97663000D01*
X144705503Y-97840805D01*
X144705504Y-97840807D01*
X144760747Y-98010829D01*
X144760750Y-98010835D01*
X144850141Y-98165665D01*
X144891812Y-98211946D01*
X144969764Y-98298521D01*
X144969767Y-98298523D01*
X144969770Y-98298526D01*
X145114407Y-98403612D01*
X145277733Y-98476329D01*
X145452609Y-98513500D01*
X145452610Y-98513500D01*
X145631389Y-98513500D01*
X145631391Y-98513500D01*
X145806267Y-98476329D01*
X145969593Y-98403612D01*
X146114230Y-98298526D01*
X146233859Y-98165665D01*
X146323250Y-98010835D01*
X146378497Y-97840803D01*
X146397185Y-97663000D01*
X146378497Y-97485197D01*
X146349912Y-97397222D01*
X146323251Y-97315167D01*
X146321387Y-97310982D01*
X146312093Y-97241733D01*
X146341714Y-97178453D01*
X146361773Y-97160217D01*
X146368230Y-97155526D01*
X146487859Y-97022665D01*
X146577250Y-96867835D01*
X146632497Y-96697803D01*
X146651185Y-96520000D01*
X146632497Y-96342197D01*
X146577250Y-96172165D01*
X146487859Y-96017335D01*
X146441003Y-95965296D01*
X146368235Y-95884478D01*
X146368232Y-95884476D01*
X146368231Y-95884475D01*
X146368230Y-95884474D01*
X146223593Y-95779388D01*
X146060267Y-95706671D01*
X146060265Y-95706670D01*
X145932594Y-95679533D01*
X145885391Y-95669500D01*
X145706609Y-95669500D01*
X145675954Y-95676015D01*
X145531733Y-95706670D01*
X145531728Y-95706672D01*
X145368408Y-95779387D01*
X145223768Y-95884475D01*
X145104140Y-96017336D01*
X145014750Y-96172164D01*
X145014747Y-96172170D01*
X144959504Y-96342192D01*
X144959503Y-96342194D01*
X144940815Y-96520000D01*
X144959503Y-96697805D01*
X144959504Y-96697807D01*
X145014749Y-96867833D01*
X145016620Y-96872036D01*
X145025902Y-96941287D01*
X144996270Y-97004562D01*
X144976226Y-97022783D01*
X144969771Y-97027472D01*
X144969764Y-97027478D01*
X144850140Y-97160336D01*
X144760750Y-97315164D01*
X144760747Y-97315170D01*
X144705504Y-97485192D01*
X144705503Y-97485194D01*
X144686815Y-97663000D01*
X141732102Y-97663000D01*
X141751250Y-97629835D01*
X141806497Y-97459803D01*
X141825185Y-97282000D01*
X141806497Y-97104197D01*
X141774370Y-97005320D01*
X141751252Y-96934170D01*
X141751249Y-96934164D01*
X141661859Y-96779335D01*
X141588449Y-96697805D01*
X141542235Y-96646478D01*
X141542232Y-96646476D01*
X141542231Y-96646475D01*
X141542230Y-96646474D01*
X141397593Y-96541388D01*
X141234267Y-96468671D01*
X141234265Y-96468670D01*
X141106594Y-96441533D01*
X141059391Y-96431500D01*
X140880609Y-96431500D01*
X140849954Y-96438015D01*
X140705733Y-96468670D01*
X140705728Y-96468672D01*
X140542408Y-96541387D01*
X140397768Y-96646475D01*
X140278140Y-96779336D01*
X140188750Y-96934164D01*
X140188747Y-96934170D01*
X140133504Y-97104192D01*
X140133503Y-97104194D01*
X140114815Y-97282000D01*
X139466959Y-97282000D01*
X139464569Y-97254684D01*
X139464567Y-97254673D01*
X139403433Y-97026516D01*
X139403429Y-97026507D01*
X139303600Y-96812422D01*
X139303599Y-96812420D01*
X139168113Y-96618926D01*
X139168108Y-96618920D01*
X139086370Y-96537182D01*
X139086369Y-96537182D01*
X138486359Y-97137191D01*
X138403100Y-97065048D01*
X138272315Y-97005320D01*
X138165763Y-96990000D01*
X138094237Y-96990000D01*
X137987685Y-97005320D01*
X137856900Y-97065048D01*
X137815695Y-97100751D01*
X138678363Y-96238081D01*
X138680492Y-96218994D01*
X138724547Y-96164764D01*
X138742443Y-96154524D01*
X138807829Y-96124035D01*
X139001401Y-95988495D01*
X139168495Y-95821401D01*
X139304035Y-95627830D01*
X139361778Y-95504000D01*
X150020815Y-95504000D01*
X150039503Y-95681805D01*
X150039504Y-95681807D01*
X150094747Y-95851829D01*
X150094750Y-95851835D01*
X150184141Y-96006665D01*
X150225812Y-96052946D01*
X150303764Y-96139521D01*
X150303767Y-96139523D01*
X150303770Y-96139526D01*
X150448407Y-96244612D01*
X150611733Y-96317329D01*
X150786609Y-96354500D01*
X150786610Y-96354500D01*
X150965389Y-96354500D01*
X150965391Y-96354500D01*
X151140267Y-96317329D01*
X151303593Y-96244612D01*
X151448230Y-96139526D01*
X151567859Y-96006665D01*
X151657250Y-95851835D01*
X151712497Y-95681803D01*
X151731185Y-95504000D01*
X151712497Y-95326197D01*
X151684873Y-95241181D01*
X151657252Y-95156170D01*
X151657249Y-95156164D01*
X151575515Y-95014596D01*
X151567859Y-95001335D01*
X151521003Y-94949296D01*
X151448235Y-94868478D01*
X151448232Y-94868476D01*
X151448231Y-94868475D01*
X151448230Y-94868474D01*
X151303593Y-94763388D01*
X151140267Y-94690671D01*
X151140265Y-94690670D01*
X151012594Y-94663533D01*
X150965391Y-94653500D01*
X150786609Y-94653500D01*
X150755954Y-94660015D01*
X150611733Y-94690670D01*
X150611728Y-94690672D01*
X150448408Y-94763387D01*
X150303768Y-94868475D01*
X150184140Y-95001336D01*
X150094750Y-95156164D01*
X150094747Y-95156170D01*
X150039504Y-95326192D01*
X150039503Y-95326194D01*
X150020815Y-95504000D01*
X139361778Y-95504000D01*
X139403903Y-95413663D01*
X139465063Y-95185408D01*
X139485659Y-94950000D01*
X139465063Y-94714592D01*
X139403903Y-94486337D01*
X139304035Y-94272171D01*
X139304034Y-94272169D01*
X139168494Y-94078597D01*
X139001403Y-93911506D01*
X138931410Y-93862497D01*
X138815838Y-93781573D01*
X138772215Y-93726999D01*
X138765021Y-93657500D01*
X138796543Y-93595145D01*
X138815836Y-93578428D01*
X139001401Y-93448495D01*
X139168495Y-93281401D01*
X139304035Y-93087830D01*
X139403903Y-92873663D01*
X139465063Y-92645408D01*
X139485659Y-92410000D01*
X139465063Y-92174592D01*
X139465061Y-92174587D01*
X139464678Y-92170202D01*
X139478444Y-92101702D01*
X139515317Y-92059078D01*
X139649959Y-91961255D01*
X139663392Y-91946337D01*
X139675877Y-91932470D01*
X139769588Y-91828394D01*
X139858979Y-91673564D01*
X139864670Y-91656048D01*
X146885780Y-91656048D01*
X146904468Y-91833853D01*
X146904469Y-91833855D01*
X146959712Y-92003877D01*
X146959715Y-92003883D01*
X147049106Y-92158713D01*
X147059451Y-92170202D01*
X147168729Y-92291569D01*
X147168732Y-92291571D01*
X147168735Y-92291574D01*
X147313372Y-92396660D01*
X147476698Y-92469377D01*
X147651574Y-92506548D01*
X147651575Y-92506548D01*
X147830354Y-92506548D01*
X147830356Y-92506548D01*
X148005232Y-92469377D01*
X148168558Y-92396660D01*
X148313195Y-92291574D01*
X148432824Y-92158713D01*
X148522215Y-92003883D01*
X148577462Y-91833851D01*
X148596150Y-91656048D01*
X148577462Y-91478245D01*
X148542780Y-91371505D01*
X148522217Y-91308218D01*
X148522214Y-91308212D01*
X148432824Y-91153383D01*
X148385968Y-91101344D01*
X148313200Y-91020526D01*
X148313197Y-91020524D01*
X148313196Y-91020523D01*
X148313195Y-91020522D01*
X148168558Y-90915436D01*
X148005232Y-90842719D01*
X148005230Y-90842718D01*
X147877559Y-90815581D01*
X147830356Y-90805548D01*
X147651574Y-90805548D01*
X147620919Y-90812063D01*
X147476698Y-90842718D01*
X147476693Y-90842720D01*
X147313373Y-90915435D01*
X147168733Y-91020523D01*
X147049105Y-91153384D01*
X146959715Y-91308212D01*
X146959712Y-91308218D01*
X146904469Y-91478240D01*
X146904468Y-91478242D01*
X146885780Y-91656048D01*
X139864670Y-91656048D01*
X139914226Y-91503532D01*
X139932914Y-91325729D01*
X139914226Y-91147926D01*
X139872831Y-91020526D01*
X139858981Y-90977899D01*
X139858978Y-90977893D01*
X139822919Y-90915437D01*
X139769588Y-90823064D01*
X139722732Y-90771025D01*
X139649964Y-90690207D01*
X139649961Y-90690205D01*
X139649960Y-90690204D01*
X139649959Y-90690203D01*
X139505322Y-90585117D01*
X139439514Y-90555817D01*
X139386279Y-90510569D01*
X139365957Y-90443720D01*
X139377570Y-90390133D01*
X139403900Y-90333669D01*
X139403903Y-90333663D01*
X139465063Y-90105408D01*
X139485659Y-89870000D01*
X139465063Y-89634592D01*
X139403903Y-89406337D01*
X139304035Y-89192171D01*
X139304034Y-89192169D01*
X139168494Y-88998597D01*
X139001403Y-88831506D01*
X138931410Y-88782497D01*
X138815838Y-88701573D01*
X138772215Y-88646999D01*
X138765021Y-88577500D01*
X138796543Y-88515145D01*
X138815836Y-88498428D01*
X139001401Y-88368495D01*
X139168495Y-88201401D01*
X139304035Y-88007830D01*
X139403903Y-87793663D01*
X139465063Y-87565408D01*
X139470432Y-87504042D01*
X142020857Y-87504042D01*
X142039545Y-87681847D01*
X142039546Y-87681849D01*
X142094789Y-87851871D01*
X142094792Y-87851877D01*
X142184183Y-88006707D01*
X142225854Y-88052988D01*
X142303806Y-88139563D01*
X142303809Y-88139565D01*
X142303812Y-88139568D01*
X142448449Y-88244654D01*
X142611775Y-88317371D01*
X142786651Y-88354542D01*
X142786652Y-88354542D01*
X142965431Y-88354542D01*
X142965433Y-88354542D01*
X143140309Y-88317371D01*
X143303635Y-88244654D01*
X143448272Y-88139568D01*
X143454490Y-88132663D01*
X143489612Y-88093655D01*
X143567901Y-88006707D01*
X143657292Y-87851877D01*
X143712539Y-87681845D01*
X143717988Y-87630000D01*
X149802315Y-87630000D01*
X149821003Y-87807805D01*
X149821004Y-87807807D01*
X149876247Y-87977829D01*
X149876250Y-87977835D01*
X149965641Y-88132665D01*
X149971854Y-88139565D01*
X150085264Y-88265521D01*
X150085267Y-88265523D01*
X150085270Y-88265526D01*
X150229907Y-88370612D01*
X150393233Y-88443329D01*
X150568109Y-88480500D01*
X150568110Y-88480500D01*
X150746889Y-88480500D01*
X150746891Y-88480500D01*
X150921767Y-88443329D01*
X151085093Y-88370612D01*
X151229730Y-88265526D01*
X151349359Y-88132665D01*
X151438750Y-87977835D01*
X151493997Y-87807803D01*
X151512685Y-87630000D01*
X151493997Y-87452197D01*
X151438750Y-87282165D01*
X151349359Y-87127335D01*
X151302503Y-87075296D01*
X151229735Y-86994478D01*
X151229732Y-86994476D01*
X151229731Y-86994475D01*
X151229730Y-86994474D01*
X151085093Y-86889388D01*
X150921767Y-86816671D01*
X150921765Y-86816670D01*
X150794094Y-86789533D01*
X150746891Y-86779500D01*
X150568109Y-86779500D01*
X150537454Y-86786015D01*
X150393233Y-86816670D01*
X150393228Y-86816672D01*
X150229908Y-86889387D01*
X150085268Y-86994475D01*
X149965640Y-87127336D01*
X149876250Y-87282164D01*
X149876247Y-87282170D01*
X149821004Y-87452192D01*
X149821003Y-87452194D01*
X149802315Y-87630000D01*
X143717988Y-87630000D01*
X143731227Y-87504042D01*
X143712539Y-87326239D01*
X143660586Y-87166344D01*
X143657294Y-87156212D01*
X143657291Y-87156206D01*
X143640623Y-87127336D01*
X143567901Y-87001377D01*
X143521045Y-86949338D01*
X143448277Y-86868520D01*
X143448274Y-86868518D01*
X143448273Y-86868517D01*
X143448272Y-86868516D01*
X143303635Y-86763430D01*
X143140309Y-86690713D01*
X143140307Y-86690712D01*
X143012636Y-86663575D01*
X142965433Y-86653542D01*
X142786651Y-86653542D01*
X142755996Y-86660057D01*
X142611775Y-86690712D01*
X142611770Y-86690714D01*
X142448450Y-86763429D01*
X142303810Y-86868517D01*
X142184182Y-87001378D01*
X142094792Y-87156206D01*
X142094789Y-87156212D01*
X142039546Y-87326234D01*
X142039545Y-87326236D01*
X142020857Y-87504042D01*
X139470432Y-87504042D01*
X139485659Y-87330000D01*
X139465063Y-87094592D01*
X139404488Y-86868520D01*
X139403905Y-86866344D01*
X139403904Y-86866343D01*
X139403903Y-86866337D01*
X139304035Y-86652171D01*
X139304034Y-86652169D01*
X139168494Y-86458597D01*
X139001403Y-86291506D01*
X138931410Y-86242497D01*
X138815838Y-86161573D01*
X138772215Y-86106999D01*
X138765021Y-86037500D01*
X138796543Y-85975145D01*
X138815836Y-85958428D01*
X139001401Y-85828495D01*
X139168495Y-85661401D01*
X139304035Y-85467830D01*
X139403903Y-85253663D01*
X139465063Y-85025408D01*
X139485659Y-84790000D01*
X139465063Y-84554592D01*
X139403903Y-84326337D01*
X139304035Y-84112171D01*
X139304034Y-84112169D01*
X139168494Y-83918597D01*
X139001403Y-83751506D01*
X138865762Y-83656530D01*
X138815838Y-83621573D01*
X138772215Y-83566999D01*
X138765021Y-83497500D01*
X138796543Y-83435145D01*
X138815836Y-83418428D01*
X139001401Y-83288495D01*
X139168495Y-83121401D01*
X139268406Y-82978713D01*
X140730000Y-82978713D01*
X140745418Y-83130338D01*
X140806299Y-83324381D01*
X140806304Y-83324391D01*
X140905005Y-83502215D01*
X140905005Y-83502216D01*
X141037478Y-83656530D01*
X141037479Y-83656531D01*
X141198304Y-83781018D01*
X141380907Y-83870589D01*
X141480000Y-83896244D01*
X141480000Y-83094110D01*
X141504457Y-83133610D01*
X141593962Y-83201201D01*
X141701840Y-83231895D01*
X141813521Y-83221546D01*
X141913922Y-83171552D01*
X141980000Y-83099069D01*
X141980000Y-83901366D01*
X141981944Y-83901069D01*
X141981945Y-83901069D01*
X142172660Y-83830436D01*
X142172664Y-83830434D01*
X142345267Y-83722850D01*
X142492668Y-83582735D01*
X142492669Y-83582733D01*
X142608856Y-83415804D01*
X142689059Y-83228907D01*
X142730000Y-83029690D01*
X142730000Y-82478384D01*
X142749685Y-82411345D01*
X142802489Y-82365590D01*
X142871647Y-82355646D01*
X142901454Y-82363823D01*
X143009764Y-82408687D01*
X143122280Y-82423500D01*
X143122287Y-82423500D01*
X143197713Y-82423500D01*
X143197720Y-82423500D01*
X143310236Y-82408687D01*
X143450233Y-82350698D01*
X143570451Y-82258451D01*
X143662698Y-82138233D01*
X143720687Y-81998236D01*
X143740466Y-81848000D01*
X143720687Y-81697764D01*
X143662698Y-81557767D01*
X143570451Y-81437549D01*
X143450233Y-81345302D01*
X143450229Y-81345300D01*
X143349884Y-81303736D01*
X143310236Y-81287313D01*
X143296171Y-81285461D01*
X143197727Y-81272500D01*
X143197720Y-81272500D01*
X143122280Y-81272500D01*
X143122272Y-81272500D01*
X143009764Y-81287313D01*
X143009763Y-81287313D01*
X142869769Y-81345300D01*
X142847821Y-81362142D01*
X142798743Y-81399800D01*
X142733575Y-81424994D01*
X142665131Y-81410956D01*
X142615141Y-81362142D01*
X142614839Y-81361602D01*
X142554994Y-81253784D01*
X142554994Y-81253783D01*
X142422521Y-81099469D01*
X142422520Y-81099468D01*
X142261695Y-80974981D01*
X142079093Y-80885411D01*
X141980000Y-80859753D01*
X141980000Y-81661889D01*
X141955543Y-81622390D01*
X141866038Y-81554799D01*
X141758160Y-81524105D01*
X141646479Y-81534454D01*
X141546078Y-81584448D01*
X141480000Y-81656930D01*
X141480000Y-80854633D01*
X141478053Y-80854931D01*
X141478047Y-80854933D01*
X141287342Y-80925562D01*
X141287335Y-80925565D01*
X141114732Y-81033149D01*
X140967331Y-81173264D01*
X140967330Y-81173266D01*
X140851143Y-81340195D01*
X140770940Y-81527092D01*
X140730000Y-81726309D01*
X140730000Y-82128000D01*
X141430000Y-82128000D01*
X141430000Y-82628000D01*
X140730000Y-82628000D01*
X140730000Y-82978713D01*
X139268406Y-82978713D01*
X139304035Y-82927830D01*
X139403903Y-82713663D01*
X139465063Y-82485408D01*
X139485659Y-82250000D01*
X139465063Y-82014592D01*
X139403903Y-81786337D01*
X139304035Y-81572171D01*
X139304034Y-81572169D01*
X139168494Y-81378597D01*
X139001403Y-81211506D01*
X138841396Y-81099469D01*
X138815838Y-81081573D01*
X138772215Y-81026999D01*
X138765021Y-80957500D01*
X138796543Y-80895145D01*
X138815836Y-80878428D01*
X139001401Y-80748495D01*
X139168495Y-80581401D01*
X139304035Y-80387830D01*
X139381788Y-80221089D01*
X144135904Y-80221089D01*
X144154592Y-80398894D01*
X144154593Y-80398896D01*
X144209836Y-80568918D01*
X144209839Y-80568924D01*
X144299230Y-80723754D01*
X144321507Y-80748495D01*
X144418853Y-80856610D01*
X144418856Y-80856612D01*
X144418859Y-80856615D01*
X144563496Y-80961701D01*
X144726822Y-81034418D01*
X144901698Y-81071589D01*
X144901699Y-81071589D01*
X145080478Y-81071589D01*
X145080480Y-81071589D01*
X145255356Y-81034418D01*
X145331549Y-81000494D01*
X145400798Y-80991210D01*
X145464075Y-81020838D01*
X145501288Y-81079973D01*
X145505305Y-81126735D01*
X145496395Y-81211505D01*
X145493939Y-81234876D01*
X145498682Y-81280000D01*
X145512627Y-81412681D01*
X145512628Y-81412683D01*
X145567871Y-81582705D01*
X145567874Y-81582711D01*
X145657265Y-81737541D01*
X145688220Y-81771920D01*
X145776888Y-81870397D01*
X145776891Y-81870399D01*
X145776894Y-81870402D01*
X145921531Y-81975488D01*
X146084857Y-82048205D01*
X146259733Y-82085376D01*
X146259734Y-82085376D01*
X146438513Y-82085376D01*
X146438515Y-82085376D01*
X146613391Y-82048205D01*
X146776717Y-81975488D01*
X146921354Y-81870402D01*
X146941525Y-81848000D01*
X148359534Y-81848000D01*
X148379312Y-81998234D01*
X148379313Y-81998236D01*
X148437302Y-82138233D01*
X148529549Y-82258451D01*
X148649767Y-82350698D01*
X148789764Y-82408687D01*
X148902280Y-82423500D01*
X148902287Y-82423500D01*
X148977713Y-82423500D01*
X148977720Y-82423500D01*
X149090236Y-82408687D01*
X149198547Y-82363823D01*
X149268017Y-82356354D01*
X149330496Y-82387629D01*
X149366148Y-82447718D01*
X149370000Y-82478384D01*
X149370000Y-82978713D01*
X149385418Y-83130338D01*
X149446299Y-83324381D01*
X149446304Y-83324391D01*
X149545005Y-83502215D01*
X149545005Y-83502216D01*
X149677478Y-83656530D01*
X149677479Y-83656531D01*
X149838304Y-83781018D01*
X150020907Y-83870589D01*
X150120000Y-83896244D01*
X150120000Y-83094110D01*
X150144457Y-83133610D01*
X150233962Y-83201201D01*
X150341840Y-83231895D01*
X150453521Y-83221546D01*
X150553922Y-83171552D01*
X150620000Y-83099069D01*
X150620000Y-83901366D01*
X150621944Y-83901069D01*
X150621945Y-83901069D01*
X150812660Y-83830436D01*
X150812664Y-83830434D01*
X150985267Y-83722850D01*
X151132668Y-83582735D01*
X151132669Y-83582733D01*
X151248856Y-83415804D01*
X151329059Y-83228907D01*
X151370000Y-83029690D01*
X151370000Y-82628000D01*
X150670000Y-82628000D01*
X150670000Y-82128000D01*
X151370000Y-82128000D01*
X151370000Y-81777286D01*
X151354581Y-81625661D01*
X151293700Y-81431618D01*
X151293695Y-81431608D01*
X151194994Y-81253784D01*
X151194994Y-81253783D01*
X151062521Y-81099469D01*
X151062520Y-81099468D01*
X150901695Y-80974981D01*
X150719093Y-80885411D01*
X150620000Y-80859753D01*
X150620000Y-81661889D01*
X150595543Y-81622390D01*
X150506038Y-81554799D01*
X150398160Y-81524105D01*
X150286479Y-81534454D01*
X150186078Y-81584448D01*
X150120000Y-81656930D01*
X150120000Y-80854633D01*
X150118053Y-80854931D01*
X150118047Y-80854933D01*
X149927342Y-80925562D01*
X149927335Y-80925565D01*
X149754732Y-81033149D01*
X149607331Y-81173264D01*
X149607330Y-81173266D01*
X149491142Y-81340197D01*
X149491140Y-81340200D01*
X149487760Y-81348078D01*
X149443232Y-81401921D01*
X149376663Y-81423142D01*
X149309189Y-81405005D01*
X149298332Y-81397556D01*
X149230233Y-81345302D01*
X149230232Y-81345301D01*
X149230230Y-81345300D01*
X149129884Y-81303736D01*
X149090236Y-81287313D01*
X149076171Y-81285461D01*
X148977727Y-81272500D01*
X148977720Y-81272500D01*
X148902280Y-81272500D01*
X148902272Y-81272500D01*
X148789764Y-81287313D01*
X148789763Y-81287313D01*
X148649770Y-81345300D01*
X148649767Y-81345301D01*
X148649767Y-81345302D01*
X148529549Y-81437549D01*
X148439580Y-81554799D01*
X148437300Y-81557770D01*
X148379313Y-81697763D01*
X148379312Y-81697765D01*
X148359534Y-81847999D01*
X148359534Y-81848000D01*
X146941525Y-81848000D01*
X147040983Y-81737541D01*
X147130374Y-81582711D01*
X147168759Y-81464574D01*
X147208195Y-81406900D01*
X147260909Y-81381603D01*
X147285143Y-81376453D01*
X147448469Y-81303736D01*
X147593106Y-81198650D01*
X147606266Y-81184035D01*
X147619024Y-81169865D01*
X147712735Y-81065789D01*
X147802126Y-80910959D01*
X147857373Y-80740927D01*
X147876061Y-80563124D01*
X147857373Y-80385321D01*
X147852399Y-80370015D01*
X147850403Y-80300175D01*
X147886483Y-80240342D01*
X147944543Y-80210408D01*
X148093023Y-80178848D01*
X148256349Y-80106131D01*
X148400986Y-80001045D01*
X148520615Y-79868184D01*
X148610006Y-79713354D01*
X148665253Y-79543322D01*
X148683941Y-79365519D01*
X148665253Y-79187716D01*
X148614713Y-79032170D01*
X148610008Y-79017689D01*
X148610005Y-79017683D01*
X148591600Y-78985804D01*
X148520615Y-78862854D01*
X148456409Y-78791546D01*
X148400991Y-78729997D01*
X148400988Y-78729995D01*
X148400987Y-78729994D01*
X148400986Y-78729993D01*
X148256349Y-78624907D01*
X148093023Y-78552190D01*
X148093021Y-78552189D01*
X147965350Y-78525052D01*
X147918147Y-78515019D01*
X147739365Y-78515019D01*
X147708710Y-78521534D01*
X147564489Y-78552189D01*
X147564484Y-78552191D01*
X147401164Y-78624906D01*
X147256524Y-78729994D01*
X147136896Y-78862855D01*
X147047506Y-79017683D01*
X147047503Y-79017689D01*
X146992260Y-79187711D01*
X146992259Y-79187713D01*
X146973571Y-79365519D01*
X146992259Y-79543324D01*
X146992261Y-79543329D01*
X146997232Y-79558629D01*
X146999227Y-79628470D01*
X146963146Y-79688303D01*
X146905082Y-79718236D01*
X146756609Y-79749794D01*
X146756604Y-79749796D01*
X146593284Y-79822511D01*
X146448644Y-79927599D01*
X146329016Y-80060460D01*
X146239626Y-80215288D01*
X146239624Y-80215292D01*
X146201241Y-80333424D01*
X146161803Y-80391099D01*
X146109094Y-80416395D01*
X146084855Y-80421547D01*
X146008663Y-80455470D01*
X145939413Y-80464754D01*
X145876136Y-80435125D01*
X145838923Y-80375990D01*
X145834907Y-80329233D01*
X145846274Y-80221089D01*
X145827586Y-80043286D01*
X145772339Y-79873254D01*
X145682948Y-79718424D01*
X145601953Y-79628470D01*
X145563324Y-79585567D01*
X145563321Y-79585565D01*
X145563320Y-79585564D01*
X145563319Y-79585563D01*
X145418682Y-79480477D01*
X145255356Y-79407760D01*
X145255354Y-79407759D01*
X145127683Y-79380622D01*
X145080480Y-79370589D01*
X144901698Y-79370589D01*
X144871043Y-79377104D01*
X144726822Y-79407759D01*
X144726817Y-79407761D01*
X144563497Y-79480476D01*
X144418857Y-79585564D01*
X144299229Y-79718425D01*
X144209839Y-79873253D01*
X144209836Y-79873259D01*
X144154593Y-80043281D01*
X144154592Y-80043283D01*
X144135904Y-80221089D01*
X139381788Y-80221089D01*
X139403903Y-80173663D01*
X139465063Y-79945408D01*
X139485659Y-79710000D01*
X139465063Y-79474592D01*
X139403903Y-79246337D01*
X139304035Y-79032171D01*
X139304034Y-79032169D01*
X139168494Y-78838597D01*
X139001402Y-78671505D01*
X138807830Y-78535965D01*
X138807828Y-78535964D01*
X138700746Y-78486031D01*
X138593663Y-78436097D01*
X138593659Y-78436096D01*
X138593655Y-78436094D01*
X138365413Y-78374938D01*
X138365403Y-78374936D01*
X138188966Y-78359500D01*
X137371034Y-78359500D01*
X137371028Y-78359500D01*
X137365784Y-78359958D01*
X137344216Y-78359958D01*
X137338972Y-78359500D01*
X137338966Y-78359500D01*
X136649500Y-78359500D01*
X136582461Y-78339815D01*
X136536706Y-78287011D01*
X136525500Y-78235500D01*
X136525500Y-77710705D01*
X136525736Y-77705299D01*
X136526580Y-77695661D01*
X136529476Y-77662544D01*
X136541918Y-77536223D01*
X136545542Y-77516309D01*
X136563402Y-77449653D01*
X136591683Y-77356424D01*
X136597953Y-77340037D01*
X136629420Y-77272558D01*
X136630872Y-77269653D01*
X136675764Y-77185666D01*
X136679657Y-77179331D01*
X136725994Y-77113155D01*
X136728827Y-77109420D01*
X136788122Y-77037168D01*
X136792162Y-77032710D01*
X136849710Y-76975162D01*
X136854168Y-76971122D01*
X136926420Y-76911827D01*
X136930155Y-76908994D01*
X136996334Y-76862654D01*
X137002666Y-76858764D01*
X137086653Y-76813872D01*
X137089558Y-76812420D01*
X137157037Y-76780953D01*
X137173424Y-76774683D01*
X137266653Y-76746402D01*
X137333309Y-76728542D01*
X137353223Y-76724918D01*
X137479542Y-76712477D01*
X137522305Y-76708735D01*
X137527706Y-76708500D01*
X141370592Y-76708500D01*
X141437631Y-76728185D01*
G37*
%TD.AperFunction*%
%TA.AperFunction,Conductor*%
G36*
X137670507Y-97280156D02*
G01*
X137630000Y-97418111D01*
X137630000Y-97561889D01*
X137670507Y-97699844D01*
X137732042Y-97795595D01*
X137514128Y-97577681D01*
X137480643Y-97516358D01*
X137485627Y-97446666D01*
X137514128Y-97402319D01*
X137732042Y-97184404D01*
X137670507Y-97280156D01*
G37*
%TD.AperFunction*%
%TD*%
M02*
