%TF.GenerationSoftware,KiCad,Pcbnew,7.0.9*%
%TF.CreationDate,2024-03-18T09:44:21-07:00*%
%TF.ProjectId,ESP32S3_Board,45535033-3253-4335-9f42-6f6172642e6b,rev?*%
%TF.SameCoordinates,Original*%
%TF.FileFunction,Copper,L3,Inr*%
%TF.FilePolarity,Positive*%
%FSLAX46Y46*%
G04 Gerber Fmt 4.6, Leading zero omitted, Abs format (unit mm)*
G04 Created by KiCad (PCBNEW 7.0.9) date 2024-03-18 09:44:21*
%MOMM*%
%LPD*%
G01*
G04 APERTURE LIST*
%TA.AperFunction,ComponentPad*%
%ADD10O,1.000000X2.100000*%
%TD*%
%TA.AperFunction,ComponentPad*%
%ADD11O,1.000000X1.600000*%
%TD*%
%TA.AperFunction,ComponentPad*%
%ADD12O,2.400000X1.700000*%
%TD*%
%TA.AperFunction,ViaPad*%
%ADD13C,0.700000*%
%TD*%
G04 APERTURE END LIST*
D10*
%TO.N,GND*%
%TO.C,J1*%
X150370000Y-82378000D03*
D11*
X150370000Y-78198000D03*
D10*
X141730000Y-82378000D03*
D11*
X141730000Y-78198000D03*
%TD*%
D12*
%TO.N,/IO7*%
%TO.C,J2*%
X136930000Y-79710000D03*
X137780000Y-79710000D03*
%TO.N,/IO6*%
X136930000Y-82250000D03*
X137780000Y-82250000D03*
%TO.N,/IO5*%
X136930000Y-84790000D03*
X137780000Y-84790000D03*
%TO.N,/IO4*%
X136930000Y-87330000D03*
X137780000Y-87330000D03*
%TO.N,/IO3*%
X136930000Y-89870000D03*
X137780000Y-89870000D03*
%TO.N,/IO2*%
X136930000Y-92410000D03*
X137780000Y-92410000D03*
%TO.N,+3.3V*%
X136930000Y-94950000D03*
X137780000Y-94950000D03*
%TO.N,GND*%
X136930000Y-97490000D03*
X137780000Y-97490000D03*
%TD*%
%TO.N,/IO17*%
%TO.C,J3*%
X153740000Y-80010000D03*
X154590000Y-80010000D03*
%TO.N,/IO33*%
X153740000Y-82550000D03*
X154590000Y-82550000D03*
%TO.N,/IO34*%
X153740000Y-85090000D03*
X154590000Y-85090000D03*
%TO.N,/IO35*%
X153740000Y-87630000D03*
X154590000Y-87630000D03*
%TO.N,/IO36*%
X153740000Y-90170000D03*
X154590000Y-90170000D03*
%TO.N,/IO37*%
X153740000Y-92710000D03*
X154590000Y-92710000D03*
%TO.N,/IO38*%
X153740000Y-95250000D03*
X154590000Y-95250000D03*
%TO.N,/IO45*%
X153740000Y-97790000D03*
X154590000Y-97790000D03*
%TD*%
D13*
%TO.N,Net-(J1-CC1)*%
X147828756Y-79365519D03*
%TO.N,/RESET*%
X139077729Y-91325729D03*
%TO.N,/BOOT*%
X147740965Y-91656048D03*
%TO.N,+3.3V*%
X150876000Y-95504000D03*
X145542000Y-97663000D03*
X142876042Y-87504042D03*
X151384000Y-93599000D03*
%TO.N,/USB_D-*%
X146349124Y-81234876D03*
%TO.N,/USB_D+*%
X147020876Y-80563124D03*
%TO.N,GND*%
X146304000Y-89281000D03*
X146268666Y-93531762D03*
X149860000Y-88011000D03*
X144526000Y-88265000D03*
X146304000Y-90170000D03*
X150241000Y-93345000D03*
X144526000Y-89281000D03*
X151765000Y-96393000D03*
X146558000Y-98806000D03*
X146304000Y-88265000D03*
X145415000Y-90170000D03*
X140187680Y-90332578D03*
X138430000Y-99314000D03*
X146177000Y-99695000D03*
X142113000Y-84963000D03*
X145415000Y-89281000D03*
X145415000Y-88265000D03*
X144526000Y-90170000D03*
X144018000Y-96774000D03*
%TO.N,/IO21*%
X150657500Y-87630000D03*
%TO.N,Net-(J1-CC2)*%
X144991089Y-80221089D03*
%TO.N,Net-(C10-Pad2)*%
X145796000Y-96520000D03*
%TO.N,Net-(AE1-ANT)*%
X140970000Y-97282000D03*
%TD*%
%TA.AperFunction,Conductor*%
%TO.N,+3.3V*%
G36*
X141436190Y-76728185D02*
G01*
X141481945Y-76780989D01*
X141491889Y-76850147D01*
X141462864Y-76913703D01*
X141412217Y-76948781D01*
X141287118Y-76995111D01*
X141287111Y-76995115D01*
X141114432Y-77102745D01*
X141114427Y-77102749D01*
X140966949Y-77242938D01*
X140966948Y-77242940D01*
X140850705Y-77409949D01*
X140770459Y-77596943D01*
X140729500Y-77796258D01*
X140729500Y-78548743D01*
X140744925Y-78700439D01*
X140805837Y-78894579D01*
X140805844Y-78894594D01*
X140904589Y-79072499D01*
X140904592Y-79072504D01*
X141037132Y-79226893D01*
X141037134Y-79226895D01*
X141198037Y-79351445D01*
X141198038Y-79351445D01*
X141198042Y-79351448D01*
X141380729Y-79441060D01*
X141577715Y-79492063D01*
X141780936Y-79502369D01*
X141982071Y-79471556D01*
X142172887Y-79400886D01*
X142345571Y-79293252D01*
X142493053Y-79153059D01*
X142609295Y-78986049D01*
X142689540Y-78799058D01*
X142730500Y-78599741D01*
X142730500Y-77847258D01*
X142716615Y-77710710D01*
X142715074Y-77695560D01*
X142654162Y-77501420D01*
X142654160Y-77501416D01*
X142654159Y-77501412D01*
X142555409Y-77323498D01*
X142555408Y-77323497D01*
X142555407Y-77323495D01*
X142422867Y-77169106D01*
X142422865Y-77169104D01*
X142261962Y-77044554D01*
X142261959Y-77044553D01*
X142261958Y-77044552D01*
X142079271Y-76954940D01*
X142079268Y-76954939D01*
X142070006Y-76952541D01*
X142010041Y-76916681D01*
X141978983Y-76854094D01*
X141986692Y-76784651D01*
X142030721Y-76730400D01*
X142097091Y-76708564D01*
X142101088Y-76708500D01*
X150009151Y-76708500D01*
X150076190Y-76728185D01*
X150121945Y-76780989D01*
X150131889Y-76850147D01*
X150102864Y-76913703D01*
X150052217Y-76948781D01*
X149927118Y-76995111D01*
X149927111Y-76995115D01*
X149754432Y-77102745D01*
X149754427Y-77102749D01*
X149606949Y-77242938D01*
X149606948Y-77242940D01*
X149490705Y-77409949D01*
X149410459Y-77596943D01*
X149369500Y-77796258D01*
X149369500Y-78548743D01*
X149384925Y-78700439D01*
X149445837Y-78894579D01*
X149445844Y-78894594D01*
X149544589Y-79072499D01*
X149544592Y-79072504D01*
X149677132Y-79226893D01*
X149677134Y-79226895D01*
X149838037Y-79351445D01*
X149838038Y-79351445D01*
X149838042Y-79351448D01*
X150020729Y-79441060D01*
X150217715Y-79492063D01*
X150420936Y-79502369D01*
X150622071Y-79471556D01*
X150812887Y-79400886D01*
X150985571Y-79293252D01*
X151133053Y-79153059D01*
X151249295Y-78986049D01*
X151329540Y-78799058D01*
X151370500Y-78599741D01*
X151370500Y-77847258D01*
X151356615Y-77710710D01*
X151355074Y-77695560D01*
X151294162Y-77501420D01*
X151294160Y-77501416D01*
X151294159Y-77501412D01*
X151195409Y-77323498D01*
X151195408Y-77323497D01*
X151195407Y-77323495D01*
X151062867Y-77169106D01*
X151062865Y-77169104D01*
X150901962Y-77044554D01*
X150901959Y-77044553D01*
X150901958Y-77044552D01*
X150719271Y-76954940D01*
X150719268Y-76954939D01*
X150710006Y-76952541D01*
X150650041Y-76916681D01*
X150618983Y-76854094D01*
X150626692Y-76784651D01*
X150670721Y-76730400D01*
X150737091Y-76708564D01*
X150741088Y-76708500D01*
X153937293Y-76708500D01*
X153942695Y-76708735D01*
X153985519Y-76712482D01*
X154111771Y-76724918D01*
X154131685Y-76728541D01*
X154198349Y-76746403D01*
X154291570Y-76774682D01*
X154307971Y-76780958D01*
X154308848Y-76781367D01*
X154375411Y-76812406D01*
X154378375Y-76813888D01*
X154415969Y-76833982D01*
X154462327Y-76858762D01*
X154468667Y-76862657D01*
X154534828Y-76908983D01*
X154538600Y-76911844D01*
X154610808Y-76971103D01*
X154615309Y-76975182D01*
X154672815Y-77032688D01*
X154676895Y-77037190D01*
X154736154Y-77109398D01*
X154739015Y-77113170D01*
X154785341Y-77179331D01*
X154789236Y-77185671D01*
X154834101Y-77269605D01*
X154835614Y-77272631D01*
X154867040Y-77340027D01*
X154873319Y-77356435D01*
X154901601Y-77449669D01*
X154919454Y-77516299D01*
X154923082Y-77536238D01*
X154935523Y-77662554D01*
X154939264Y-77705302D01*
X154939500Y-77710710D01*
X154939500Y-78535500D01*
X154919815Y-78602539D01*
X154867011Y-78648294D01*
X154815500Y-78659500D01*
X154181028Y-78659500D01*
X154175784Y-78659958D01*
X154154216Y-78659958D01*
X154148972Y-78659500D01*
X154148966Y-78659500D01*
X153331034Y-78659500D01*
X153154596Y-78674936D01*
X153154586Y-78674938D01*
X152926344Y-78736094D01*
X152926335Y-78736098D01*
X152712171Y-78835964D01*
X152712169Y-78835965D01*
X152518597Y-78971505D01*
X152351506Y-79138597D01*
X152351501Y-79138604D01*
X152215967Y-79332165D01*
X152215965Y-79332169D01*
X152116098Y-79546335D01*
X152116094Y-79546344D01*
X152054938Y-79774586D01*
X152054936Y-79774596D01*
X152034341Y-80009999D01*
X152034341Y-80010000D01*
X152054936Y-80245403D01*
X152054938Y-80245413D01*
X152116094Y-80473655D01*
X152116096Y-80473659D01*
X152116097Y-80473663D01*
X152160518Y-80568924D01*
X152215964Y-80687828D01*
X152215965Y-80687830D01*
X152351505Y-80881402D01*
X152518597Y-81048494D01*
X152704158Y-81178425D01*
X152747783Y-81233002D01*
X152754977Y-81302500D01*
X152723454Y-81364855D01*
X152704158Y-81381575D01*
X152518597Y-81511505D01*
X152351506Y-81678597D01*
X152351501Y-81678604D01*
X152215967Y-81872165D01*
X152215965Y-81872169D01*
X152116098Y-82086335D01*
X152116094Y-82086344D01*
X152054938Y-82314586D01*
X152054936Y-82314596D01*
X152034341Y-82549999D01*
X152034341Y-82550000D01*
X152054936Y-82785403D01*
X152054938Y-82785413D01*
X152116094Y-83013655D01*
X152116096Y-83013659D01*
X152116097Y-83013663D01*
X152166031Y-83120746D01*
X152215964Y-83227828D01*
X152215965Y-83227830D01*
X152351505Y-83421402D01*
X152518597Y-83588494D01*
X152704158Y-83718425D01*
X152747783Y-83773002D01*
X152754977Y-83842500D01*
X152723454Y-83904855D01*
X152704158Y-83921575D01*
X152518597Y-84051505D01*
X152351506Y-84218597D01*
X152351501Y-84218604D01*
X152215967Y-84412165D01*
X152215965Y-84412169D01*
X152116098Y-84626335D01*
X152116094Y-84626344D01*
X152054938Y-84854586D01*
X152054936Y-84854596D01*
X152034341Y-85089999D01*
X152034341Y-85090000D01*
X152054936Y-85325403D01*
X152054938Y-85325413D01*
X152116094Y-85553655D01*
X152116096Y-85553659D01*
X152116097Y-85553663D01*
X152137015Y-85598521D01*
X152215964Y-85767828D01*
X152215965Y-85767830D01*
X152351505Y-85961402D01*
X152518597Y-86128494D01*
X152704158Y-86258425D01*
X152747783Y-86313002D01*
X152754977Y-86382500D01*
X152723454Y-86444855D01*
X152704158Y-86461575D01*
X152518597Y-86591505D01*
X152351506Y-86758597D01*
X152351501Y-86758604D01*
X152215967Y-86952165D01*
X152215965Y-86952169D01*
X152116098Y-87166335D01*
X152116094Y-87166344D01*
X152054938Y-87394586D01*
X152054936Y-87394596D01*
X152034341Y-87629999D01*
X152034341Y-87630000D01*
X152054936Y-87865403D01*
X152054938Y-87865413D01*
X152116094Y-88093655D01*
X152116096Y-88093659D01*
X152116097Y-88093663D01*
X152134283Y-88132663D01*
X152215964Y-88307828D01*
X152215965Y-88307830D01*
X152351505Y-88501402D01*
X152518597Y-88668494D01*
X152704158Y-88798425D01*
X152747783Y-88853002D01*
X152754977Y-88922500D01*
X152723454Y-88984855D01*
X152704158Y-89001575D01*
X152518597Y-89131505D01*
X152351506Y-89298597D01*
X152351501Y-89298604D01*
X152215967Y-89492165D01*
X152215965Y-89492169D01*
X152116098Y-89706335D01*
X152116094Y-89706344D01*
X152054938Y-89934586D01*
X152054936Y-89934596D01*
X152034341Y-90169999D01*
X152034341Y-90170000D01*
X152054936Y-90405403D01*
X152054938Y-90405413D01*
X152116094Y-90633655D01*
X152116096Y-90633659D01*
X152116097Y-90633663D01*
X152137897Y-90680413D01*
X152215964Y-90847828D01*
X152215965Y-90847830D01*
X152351505Y-91041402D01*
X152518597Y-91208494D01*
X152704158Y-91338425D01*
X152747783Y-91393002D01*
X152754977Y-91462500D01*
X152723454Y-91524855D01*
X152704158Y-91541575D01*
X152518597Y-91671505D01*
X152351506Y-91838597D01*
X152351501Y-91838604D01*
X152215967Y-92032165D01*
X152215965Y-92032169D01*
X152116098Y-92246335D01*
X152116094Y-92246344D01*
X152054938Y-92474586D01*
X152054936Y-92474596D01*
X152034341Y-92709999D01*
X152034341Y-92710000D01*
X152054936Y-92945403D01*
X152054938Y-92945413D01*
X152116094Y-93173655D01*
X152116096Y-93173659D01*
X152116097Y-93173663D01*
X152120886Y-93183932D01*
X152215964Y-93387828D01*
X152215965Y-93387830D01*
X152351505Y-93581402D01*
X152518597Y-93748494D01*
X152704158Y-93878425D01*
X152747783Y-93933002D01*
X152754977Y-94002500D01*
X152723454Y-94064855D01*
X152704158Y-94081575D01*
X152518597Y-94211505D01*
X152351506Y-94378597D01*
X152351501Y-94378604D01*
X152215967Y-94572165D01*
X152215965Y-94572169D01*
X152116098Y-94786335D01*
X152116094Y-94786344D01*
X152054938Y-95014586D01*
X152054936Y-95014596D01*
X152034341Y-95249999D01*
X152034341Y-95250001D01*
X152049221Y-95420079D01*
X152035454Y-95488579D01*
X151986839Y-95538762D01*
X151918811Y-95554695D01*
X151899914Y-95552176D01*
X151854391Y-95542500D01*
X151675609Y-95542500D01*
X151644954Y-95549015D01*
X151500733Y-95579670D01*
X151500728Y-95579672D01*
X151337408Y-95652387D01*
X151192768Y-95757475D01*
X151073140Y-95890336D01*
X150983750Y-96045164D01*
X150983747Y-96045170D01*
X150928504Y-96215192D01*
X150928503Y-96215194D01*
X150909815Y-96393000D01*
X150928503Y-96570805D01*
X150928504Y-96570807D01*
X150983747Y-96740829D01*
X150983750Y-96740835D01*
X151073141Y-96895665D01*
X151093791Y-96918599D01*
X151192764Y-97028521D01*
X151192767Y-97028523D01*
X151192770Y-97028526D01*
X151337407Y-97133612D01*
X151500733Y-97206329D01*
X151675609Y-97243500D01*
X151675610Y-97243500D01*
X151854389Y-97243500D01*
X151854391Y-97243500D01*
X151957511Y-97221581D01*
X152027178Y-97226897D01*
X152082912Y-97269034D01*
X152107017Y-97334614D01*
X152103067Y-97374964D01*
X152054938Y-97554586D01*
X152054936Y-97554596D01*
X152034341Y-97789999D01*
X152034341Y-97790000D01*
X152054936Y-98025403D01*
X152054938Y-98025413D01*
X152116094Y-98253655D01*
X152116096Y-98253659D01*
X152116097Y-98253663D01*
X152139260Y-98303335D01*
X152215964Y-98467828D01*
X152215965Y-98467830D01*
X152351505Y-98661402D01*
X152518597Y-98828494D01*
X152712169Y-98964034D01*
X152712171Y-98964035D01*
X152926337Y-99063903D01*
X153154592Y-99125063D01*
X153331034Y-99140500D01*
X154148960Y-99140500D01*
X154148966Y-99140500D01*
X154154189Y-99140043D01*
X154175811Y-99140043D01*
X154181034Y-99140500D01*
X154815500Y-99140500D01*
X154882539Y-99160185D01*
X154928294Y-99212989D01*
X154939500Y-99264500D01*
X154939500Y-99327289D01*
X154939264Y-99332697D01*
X154935523Y-99375445D01*
X154923082Y-99501760D01*
X154919454Y-99521699D01*
X154901601Y-99588330D01*
X154873318Y-99681563D01*
X154867040Y-99697971D01*
X154835614Y-99765367D01*
X154834101Y-99768393D01*
X154789236Y-99852327D01*
X154785341Y-99858667D01*
X154739015Y-99924828D01*
X154736154Y-99928600D01*
X154676895Y-100000808D01*
X154672806Y-100005320D01*
X154615320Y-100062806D01*
X154610808Y-100066895D01*
X154538600Y-100126154D01*
X154534828Y-100129015D01*
X154468667Y-100175341D01*
X154462327Y-100179236D01*
X154378393Y-100224101D01*
X154375367Y-100225614D01*
X154307971Y-100257040D01*
X154291563Y-100263318D01*
X154198330Y-100291601D01*
X154131699Y-100309454D01*
X154111760Y-100313082D01*
X153985445Y-100325523D01*
X153944789Y-100329080D01*
X153942696Y-100329264D01*
X153937290Y-100329500D01*
X147007518Y-100329500D01*
X146940479Y-100309815D01*
X146894724Y-100257011D01*
X146884780Y-100187853D01*
X146900131Y-100143500D01*
X146958250Y-100042835D01*
X147013497Y-99872803D01*
X147032185Y-99695000D01*
X147021872Y-99596885D01*
X147034441Y-99528158D01*
X147072307Y-99483608D01*
X147130230Y-99441526D01*
X147249859Y-99308665D01*
X147339250Y-99153835D01*
X147394497Y-98983803D01*
X147413185Y-98806000D01*
X147394497Y-98628197D01*
X147358013Y-98515910D01*
X147339252Y-98458170D01*
X147339249Y-98458164D01*
X147283380Y-98361396D01*
X147249859Y-98303335D01*
X147203003Y-98251296D01*
X147130235Y-98170478D01*
X147130232Y-98170476D01*
X147130231Y-98170475D01*
X147130230Y-98170474D01*
X146985593Y-98065388D01*
X146822267Y-97992671D01*
X146822265Y-97992670D01*
X146694594Y-97965533D01*
X146647391Y-97955500D01*
X146468609Y-97955500D01*
X146437954Y-97962015D01*
X146293733Y-97992670D01*
X146293728Y-97992672D01*
X146130408Y-98065387D01*
X145985768Y-98170475D01*
X145866140Y-98303336D01*
X145776750Y-98458164D01*
X145776747Y-98458170D01*
X145721504Y-98628192D01*
X145721503Y-98628194D01*
X145702815Y-98806000D01*
X145713126Y-98904112D01*
X145700556Y-98972842D01*
X145662693Y-99017388D01*
X145604771Y-99059472D01*
X145604764Y-99059478D01*
X145485140Y-99192336D01*
X145395750Y-99347164D01*
X145395747Y-99347170D01*
X145340504Y-99517192D01*
X145340503Y-99517194D01*
X145321815Y-99695000D01*
X145340503Y-99872805D01*
X145340504Y-99872807D01*
X145395747Y-100042829D01*
X145395750Y-100042835D01*
X145450387Y-100137470D01*
X145453869Y-100143500D01*
X145470342Y-100211400D01*
X145447489Y-100277427D01*
X145392568Y-100320618D01*
X145346482Y-100329500D01*
X138823557Y-100329500D01*
X138756518Y-100309815D01*
X138710763Y-100257011D01*
X138700819Y-100187853D01*
X138729844Y-100124297D01*
X138773119Y-100092221D01*
X138857593Y-100054612D01*
X139002230Y-99949526D01*
X139121859Y-99816665D01*
X139211250Y-99661835D01*
X139266497Y-99491803D01*
X139285185Y-99314000D01*
X139266497Y-99136197D01*
X139238873Y-99051181D01*
X139211252Y-98966170D01*
X139211249Y-98966164D01*
X139121859Y-98811335D01*
X139058881Y-98741391D01*
X139009515Y-98686564D01*
X138979285Y-98623572D01*
X138987910Y-98554237D01*
X139013979Y-98515916D01*
X139168495Y-98361401D01*
X139304035Y-98167830D01*
X139403903Y-97953663D01*
X139465063Y-97725408D01*
X139485659Y-97490000D01*
X139467461Y-97282000D01*
X140114815Y-97282000D01*
X140133503Y-97459805D01*
X140133504Y-97459807D01*
X140188747Y-97629829D01*
X140188750Y-97629835D01*
X140278141Y-97784665D01*
X140282944Y-97789999D01*
X140397764Y-97917521D01*
X140397767Y-97917523D01*
X140397770Y-97917526D01*
X140542407Y-98022612D01*
X140705733Y-98095329D01*
X140880609Y-98132500D01*
X140880610Y-98132500D01*
X141059389Y-98132500D01*
X141059391Y-98132500D01*
X141234267Y-98095329D01*
X141397593Y-98022612D01*
X141542230Y-97917526D01*
X141661859Y-97784665D01*
X141751250Y-97629835D01*
X141806497Y-97459803D01*
X141825185Y-97282000D01*
X141806497Y-97104197D01*
X141759522Y-96959623D01*
X141751252Y-96934170D01*
X141751249Y-96934164D01*
X141661859Y-96779335D01*
X141657055Y-96774000D01*
X143162815Y-96774000D01*
X143181503Y-96951805D01*
X143181504Y-96951807D01*
X143236747Y-97121829D01*
X143236750Y-97121835D01*
X143326141Y-97276665D01*
X143330945Y-97282000D01*
X143445764Y-97409521D01*
X143445767Y-97409523D01*
X143445770Y-97409526D01*
X143590407Y-97514612D01*
X143753733Y-97587329D01*
X143928609Y-97624500D01*
X143928610Y-97624500D01*
X144107389Y-97624500D01*
X144107391Y-97624500D01*
X144282267Y-97587329D01*
X144445593Y-97514612D01*
X144590230Y-97409526D01*
X144709859Y-97276665D01*
X144799250Y-97121835D01*
X144843600Y-96985337D01*
X144883037Y-96927664D01*
X144947396Y-96900465D01*
X145016242Y-96912379D01*
X145067718Y-96959623D01*
X145068918Y-96961657D01*
X145104141Y-97022665D01*
X145145812Y-97068946D01*
X145223764Y-97155521D01*
X145223767Y-97155523D01*
X145223770Y-97155526D01*
X145368407Y-97260612D01*
X145531733Y-97333329D01*
X145706609Y-97370500D01*
X145706610Y-97370500D01*
X145885389Y-97370500D01*
X145885391Y-97370500D01*
X146060267Y-97333329D01*
X146223593Y-97260612D01*
X146368230Y-97155526D01*
X146487859Y-97022665D01*
X146577250Y-96867835D01*
X146632497Y-96697803D01*
X146651185Y-96520000D01*
X146632497Y-96342197D01*
X146599067Y-96239309D01*
X146577252Y-96172170D01*
X146577249Y-96172164D01*
X146559200Y-96140902D01*
X146487859Y-96017335D01*
X146436838Y-95960671D01*
X146368235Y-95884478D01*
X146368232Y-95884476D01*
X146368231Y-95884475D01*
X146368230Y-95884474D01*
X146223593Y-95779388D01*
X146060267Y-95706671D01*
X146060265Y-95706670D01*
X145932594Y-95679533D01*
X145885391Y-95669500D01*
X145706609Y-95669500D01*
X145675954Y-95676015D01*
X145531733Y-95706670D01*
X145531728Y-95706672D01*
X145368408Y-95779387D01*
X145223768Y-95884475D01*
X145104140Y-96017336D01*
X145014750Y-96172164D01*
X145014748Y-96172168D01*
X144970399Y-96308661D01*
X144930961Y-96366336D01*
X144866602Y-96393534D01*
X144797756Y-96381619D01*
X144746280Y-96334375D01*
X144745116Y-96332402D01*
X144709859Y-96271335D01*
X144681023Y-96239309D01*
X144590235Y-96138478D01*
X144590232Y-96138476D01*
X144590231Y-96138475D01*
X144590230Y-96138474D01*
X144445593Y-96033388D01*
X144282267Y-95960671D01*
X144282265Y-95960670D01*
X144127762Y-95927830D01*
X144107391Y-95923500D01*
X143928609Y-95923500D01*
X143908238Y-95927830D01*
X143753733Y-95960670D01*
X143753728Y-95960672D01*
X143590408Y-96033387D01*
X143445768Y-96138475D01*
X143326140Y-96271336D01*
X143236750Y-96426164D01*
X143236747Y-96426170D01*
X143181504Y-96596192D01*
X143181503Y-96596194D01*
X143162815Y-96774000D01*
X141657055Y-96774000D01*
X141588449Y-96697805D01*
X141542235Y-96646478D01*
X141542232Y-96646476D01*
X141542231Y-96646475D01*
X141542230Y-96646474D01*
X141397593Y-96541388D01*
X141234267Y-96468671D01*
X141234265Y-96468670D01*
X141106594Y-96441533D01*
X141059391Y-96431500D01*
X140880609Y-96431500D01*
X140849954Y-96438015D01*
X140705733Y-96468670D01*
X140705728Y-96468672D01*
X140542408Y-96541387D01*
X140397768Y-96646475D01*
X140278140Y-96779336D01*
X140188750Y-96934164D01*
X140188747Y-96934170D01*
X140133504Y-97104192D01*
X140133503Y-97104194D01*
X140114815Y-97282000D01*
X139467461Y-97282000D01*
X139465063Y-97254592D01*
X139403903Y-97026337D01*
X139304035Y-96812171D01*
X139304034Y-96812169D01*
X139168494Y-96618597D01*
X139001402Y-96451505D01*
X138807831Y-96315966D01*
X138742459Y-96285482D01*
X138690020Y-96239309D01*
X138679761Y-96203315D01*
X137815688Y-95339242D01*
X137856900Y-95374952D01*
X137987685Y-95434680D01*
X138094237Y-95450000D01*
X138165763Y-95450000D01*
X138272315Y-95434680D01*
X138403100Y-95374952D01*
X138486359Y-95302807D01*
X139086369Y-95902817D01*
X139168110Y-95821076D01*
X139303600Y-95627578D01*
X139403429Y-95413492D01*
X139403433Y-95413483D01*
X139464567Y-95185326D01*
X139464569Y-95185315D01*
X139485157Y-94950001D01*
X139485157Y-94949998D01*
X139464569Y-94714684D01*
X139464567Y-94714673D01*
X139403433Y-94486516D01*
X139403429Y-94486507D01*
X139303600Y-94272422D01*
X139303599Y-94272420D01*
X139168113Y-94078926D01*
X139168108Y-94078920D01*
X139086370Y-93997182D01*
X139086369Y-93997182D01*
X138486359Y-94597191D01*
X138403100Y-94525048D01*
X138272315Y-94465320D01*
X138165763Y-94450000D01*
X138094237Y-94450000D01*
X137987685Y-94465320D01*
X137856900Y-94525048D01*
X137815695Y-94560751D01*
X138678363Y-93698081D01*
X138680492Y-93678994D01*
X138724547Y-93624764D01*
X138742443Y-93614524D01*
X138807829Y-93584035D01*
X138882483Y-93531762D01*
X145413481Y-93531762D01*
X145432169Y-93709567D01*
X145432170Y-93709569D01*
X145487413Y-93879591D01*
X145487416Y-93879597D01*
X145576807Y-94034427D01*
X145604205Y-94064855D01*
X145696430Y-94167283D01*
X145696433Y-94167285D01*
X145696436Y-94167288D01*
X145841073Y-94272374D01*
X146004399Y-94345091D01*
X146179275Y-94382262D01*
X146179276Y-94382262D01*
X146358055Y-94382262D01*
X146358057Y-94382262D01*
X146532933Y-94345091D01*
X146696259Y-94272374D01*
X146840896Y-94167288D01*
X146960525Y-94034427D01*
X147049916Y-93879597D01*
X147105163Y-93709565D01*
X147123851Y-93531762D01*
X147105163Y-93353959D01*
X147102252Y-93345000D01*
X149385815Y-93345000D01*
X149404503Y-93522805D01*
X149404504Y-93522807D01*
X149459747Y-93692829D01*
X149459750Y-93692835D01*
X149549141Y-93847665D01*
X149577893Y-93879597D01*
X149668764Y-93980521D01*
X149668767Y-93980523D01*
X149668770Y-93980526D01*
X149813407Y-94085612D01*
X149976733Y-94158329D01*
X150151609Y-94195500D01*
X150151610Y-94195500D01*
X150330389Y-94195500D01*
X150330391Y-94195500D01*
X150505267Y-94158329D01*
X150668593Y-94085612D01*
X150813230Y-93980526D01*
X150932859Y-93847665D01*
X151022250Y-93692835D01*
X151077497Y-93522803D01*
X151096185Y-93345000D01*
X151077497Y-93167197D01*
X151032626Y-93029098D01*
X151022252Y-92997170D01*
X151022249Y-92997164D01*
X150992365Y-92945403D01*
X150932859Y-92842335D01*
X150886003Y-92790296D01*
X150813235Y-92709478D01*
X150813232Y-92709476D01*
X150813231Y-92709475D01*
X150813230Y-92709474D01*
X150668593Y-92604388D01*
X150505267Y-92531671D01*
X150505265Y-92531670D01*
X150377594Y-92504533D01*
X150330391Y-92494500D01*
X150151609Y-92494500D01*
X150120954Y-92501015D01*
X149976733Y-92531670D01*
X149976728Y-92531672D01*
X149813408Y-92604387D01*
X149668768Y-92709475D01*
X149549140Y-92842336D01*
X149459750Y-92997164D01*
X149459747Y-92997170D01*
X149404504Y-93167192D01*
X149404503Y-93167194D01*
X149385815Y-93345000D01*
X147102252Y-93345000D01*
X147049916Y-93183927D01*
X146960525Y-93029097D01*
X146913669Y-92977058D01*
X146840901Y-92896240D01*
X146840898Y-92896238D01*
X146840897Y-92896237D01*
X146840896Y-92896236D01*
X146696259Y-92791150D01*
X146532933Y-92718433D01*
X146532931Y-92718432D01*
X146405260Y-92691295D01*
X146358057Y-92681262D01*
X146179275Y-92681262D01*
X146148620Y-92687777D01*
X146004399Y-92718432D01*
X146004394Y-92718434D01*
X145841074Y-92791149D01*
X145696434Y-92896237D01*
X145576806Y-93029098D01*
X145487416Y-93183926D01*
X145487413Y-93183932D01*
X145432170Y-93353954D01*
X145432169Y-93353956D01*
X145413481Y-93531762D01*
X138882483Y-93531762D01*
X139001401Y-93448495D01*
X139168495Y-93281401D01*
X139304035Y-93087830D01*
X139403903Y-92873663D01*
X139465063Y-92645408D01*
X139485659Y-92410000D01*
X139465063Y-92174592D01*
X139465061Y-92174587D01*
X139464678Y-92170202D01*
X139478444Y-92101702D01*
X139515317Y-92059078D01*
X139649959Y-91961255D01*
X139663392Y-91946337D01*
X139675877Y-91932470D01*
X139769588Y-91828394D01*
X139858979Y-91673564D01*
X139864670Y-91656048D01*
X146885780Y-91656048D01*
X146904468Y-91833853D01*
X146904469Y-91833855D01*
X146959712Y-92003877D01*
X146959715Y-92003883D01*
X147049106Y-92158713D01*
X147059451Y-92170202D01*
X147168729Y-92291569D01*
X147168732Y-92291571D01*
X147168735Y-92291574D01*
X147313372Y-92396660D01*
X147476698Y-92469377D01*
X147651574Y-92506548D01*
X147651575Y-92506548D01*
X147830354Y-92506548D01*
X147830356Y-92506548D01*
X148005232Y-92469377D01*
X148168558Y-92396660D01*
X148313195Y-92291574D01*
X148432824Y-92158713D01*
X148522215Y-92003883D01*
X148577462Y-91833851D01*
X148596150Y-91656048D01*
X148577462Y-91478245D01*
X148542780Y-91371505D01*
X148522217Y-91308218D01*
X148522214Y-91308212D01*
X148432824Y-91153383D01*
X148360616Y-91073188D01*
X148313200Y-91020526D01*
X148313197Y-91020524D01*
X148313196Y-91020523D01*
X148313195Y-91020522D01*
X148168558Y-90915436D01*
X148005232Y-90842719D01*
X148005230Y-90842718D01*
X147877559Y-90815581D01*
X147830356Y-90805548D01*
X147651574Y-90805548D01*
X147620919Y-90812063D01*
X147476698Y-90842718D01*
X147476693Y-90842720D01*
X147313373Y-90915435D01*
X147168733Y-91020523D01*
X147049105Y-91153384D01*
X146959715Y-91308212D01*
X146959712Y-91308218D01*
X146904469Y-91478240D01*
X146904468Y-91478242D01*
X146885780Y-91656048D01*
X139864670Y-91656048D01*
X139914226Y-91503532D01*
X139932914Y-91325729D01*
X139931639Y-91313601D01*
X139944205Y-91244873D01*
X139991935Y-91193848D01*
X140059675Y-91176727D01*
X140080726Y-91179344D01*
X140098289Y-91183078D01*
X140098294Y-91183078D01*
X140277069Y-91183078D01*
X140277071Y-91183078D01*
X140451947Y-91145907D01*
X140615273Y-91073190D01*
X140759910Y-90968104D01*
X140879539Y-90835243D01*
X140968930Y-90680413D01*
X140971448Y-90672665D01*
X141012009Y-90547829D01*
X141024177Y-90510381D01*
X141042865Y-90332578D01*
X141025777Y-90170000D01*
X143670815Y-90170000D01*
X143689503Y-90347805D01*
X143689504Y-90347807D01*
X143744747Y-90517829D01*
X143744750Y-90517835D01*
X143834141Y-90672665D01*
X143875812Y-90718946D01*
X143953764Y-90805521D01*
X143953767Y-90805523D01*
X143953770Y-90805526D01*
X144098407Y-90910612D01*
X144261733Y-90983329D01*
X144436609Y-91020500D01*
X144436610Y-91020500D01*
X144615389Y-91020500D01*
X144615391Y-91020500D01*
X144790267Y-90983329D01*
X144920067Y-90925538D01*
X144989314Y-90916254D01*
X145020929Y-90925537D01*
X145150733Y-90983329D01*
X145325609Y-91020500D01*
X145325610Y-91020500D01*
X145504389Y-91020500D01*
X145504391Y-91020500D01*
X145679267Y-90983329D01*
X145809067Y-90925538D01*
X145878314Y-90916254D01*
X145909929Y-90925537D01*
X146039733Y-90983329D01*
X146214609Y-91020500D01*
X146214610Y-91020500D01*
X146393389Y-91020500D01*
X146393391Y-91020500D01*
X146568267Y-90983329D01*
X146731593Y-90910612D01*
X146876230Y-90805526D01*
X146995859Y-90672665D01*
X147085250Y-90517835D01*
X147140497Y-90347803D01*
X147159185Y-90170000D01*
X147140497Y-89992197D01*
X147087768Y-89829914D01*
X147085252Y-89822170D01*
X147085250Y-89822166D01*
X147085250Y-89822165D01*
X147065235Y-89787498D01*
X147048762Y-89719602D01*
X147065234Y-89663502D01*
X147085250Y-89628835D01*
X147140497Y-89458803D01*
X147159185Y-89281000D01*
X147140497Y-89103197D01*
X147085250Y-88933165D01*
X147028573Y-88834998D01*
X147012101Y-88767100D01*
X147028573Y-88711001D01*
X147085250Y-88612835D01*
X147140497Y-88442803D01*
X147159185Y-88265000D01*
X147140497Y-88087197D01*
X147115739Y-88011000D01*
X149004815Y-88011000D01*
X149023503Y-88188805D01*
X149023504Y-88188807D01*
X149078747Y-88358829D01*
X149078750Y-88358835D01*
X149168141Y-88513665D01*
X149209812Y-88559946D01*
X149287764Y-88646521D01*
X149287767Y-88646523D01*
X149287770Y-88646526D01*
X149432407Y-88751612D01*
X149595733Y-88824329D01*
X149770609Y-88861500D01*
X149770610Y-88861500D01*
X149949389Y-88861500D01*
X149949391Y-88861500D01*
X150124267Y-88824329D01*
X150287593Y-88751612D01*
X150432230Y-88646526D01*
X150462569Y-88612832D01*
X150544779Y-88521528D01*
X150604265Y-88484879D01*
X150636929Y-88480500D01*
X150746889Y-88480500D01*
X150746891Y-88480500D01*
X150921767Y-88443329D01*
X151085093Y-88370612D01*
X151229730Y-88265526D01*
X151349359Y-88132665D01*
X151438750Y-87977835D01*
X151493997Y-87807803D01*
X151512685Y-87630000D01*
X151493997Y-87452197D01*
X151438750Y-87282165D01*
X151349359Y-87127335D01*
X151302503Y-87075296D01*
X151229735Y-86994478D01*
X151229732Y-86994476D01*
X151229731Y-86994475D01*
X151229730Y-86994474D01*
X151085093Y-86889388D01*
X150921767Y-86816671D01*
X150921765Y-86816670D01*
X150794094Y-86789533D01*
X150746891Y-86779500D01*
X150568109Y-86779500D01*
X150537454Y-86786015D01*
X150393233Y-86816670D01*
X150393228Y-86816672D01*
X150229908Y-86889387D01*
X150085268Y-86994475D01*
X149972721Y-87119472D01*
X149913234Y-87156121D01*
X149880571Y-87160500D01*
X149770609Y-87160500D01*
X149743148Y-87166337D01*
X149595733Y-87197670D01*
X149595728Y-87197672D01*
X149432408Y-87270387D01*
X149287768Y-87375475D01*
X149168140Y-87508336D01*
X149078750Y-87663164D01*
X149078747Y-87663170D01*
X149023504Y-87833192D01*
X149023503Y-87833194D01*
X149004815Y-88011000D01*
X147115739Y-88011000D01*
X147085250Y-87917165D01*
X146995859Y-87762335D01*
X146949003Y-87710296D01*
X146876235Y-87629478D01*
X146876232Y-87629476D01*
X146876231Y-87629475D01*
X146876230Y-87629474D01*
X146731593Y-87524388D01*
X146568267Y-87451671D01*
X146568265Y-87451670D01*
X146440594Y-87424533D01*
X146393391Y-87414500D01*
X146214609Y-87414500D01*
X146183954Y-87421015D01*
X146039733Y-87451670D01*
X146039732Y-87451670D01*
X145909934Y-87509460D01*
X145840683Y-87518744D01*
X145809064Y-87509460D01*
X145680448Y-87452197D01*
X145679267Y-87451671D01*
X145679265Y-87451670D01*
X145551594Y-87424533D01*
X145504391Y-87414500D01*
X145325609Y-87414500D01*
X145294954Y-87421015D01*
X145150733Y-87451670D01*
X145150732Y-87451670D01*
X145020934Y-87509460D01*
X144951683Y-87518744D01*
X144920064Y-87509460D01*
X144791448Y-87452197D01*
X144790267Y-87451671D01*
X144790265Y-87451670D01*
X144662594Y-87424533D01*
X144615391Y-87414500D01*
X144436609Y-87414500D01*
X144405954Y-87421015D01*
X144261733Y-87451670D01*
X144261728Y-87451672D01*
X144098408Y-87524387D01*
X143953768Y-87629475D01*
X143834140Y-87762336D01*
X143744750Y-87917164D01*
X143744747Y-87917170D01*
X143689504Y-88087192D01*
X143689503Y-88087194D01*
X143670815Y-88265000D01*
X143689503Y-88442805D01*
X143689504Y-88442807D01*
X143744747Y-88612829D01*
X143744749Y-88612832D01*
X143744750Y-88612835D01*
X143792745Y-88695965D01*
X143801426Y-88711001D01*
X143817898Y-88778901D01*
X143801425Y-88834999D01*
X143750908Y-88922500D01*
X143744749Y-88933167D01*
X143744747Y-88933170D01*
X143689504Y-89103192D01*
X143689503Y-89103194D01*
X143670815Y-89281000D01*
X143689503Y-89458805D01*
X143689504Y-89458807D01*
X143744750Y-89628836D01*
X143764763Y-89663500D01*
X143781236Y-89731401D01*
X143764763Y-89787500D01*
X143744750Y-89822163D01*
X143689504Y-89992192D01*
X143689503Y-89992194D01*
X143670815Y-90170000D01*
X141025777Y-90170000D01*
X141024177Y-90154775D01*
X140971351Y-89992194D01*
X140968932Y-89984748D01*
X140968929Y-89984742D01*
X140879539Y-89829913D01*
X140832683Y-89777874D01*
X140759915Y-89697056D01*
X140759912Y-89697054D01*
X140759911Y-89697053D01*
X140759910Y-89697052D01*
X140615273Y-89591966D01*
X140451947Y-89519249D01*
X140451945Y-89519248D01*
X140324274Y-89492111D01*
X140277071Y-89482078D01*
X140098289Y-89482078D01*
X140067634Y-89488593D01*
X139923413Y-89519248D01*
X139923408Y-89519250D01*
X139760088Y-89591966D01*
X139760083Y-89591968D01*
X139649541Y-89672282D01*
X139583735Y-89695762D01*
X139515681Y-89679936D01*
X139466986Y-89629830D01*
X139456881Y-89604057D01*
X139453641Y-89591966D01*
X139403903Y-89406337D01*
X139304035Y-89192171D01*
X139304034Y-89192169D01*
X139168494Y-88998597D01*
X139001403Y-88831506D01*
X138917847Y-88773000D01*
X138815838Y-88701573D01*
X138772215Y-88646999D01*
X138765021Y-88577500D01*
X138796543Y-88515145D01*
X138815836Y-88498428D01*
X139001401Y-88368495D01*
X139168495Y-88201401D01*
X139304035Y-88007830D01*
X139403903Y-87793663D01*
X139465063Y-87565408D01*
X139485659Y-87330000D01*
X139465063Y-87094592D01*
X139403903Y-86866337D01*
X139304035Y-86652171D01*
X139304034Y-86652169D01*
X139168494Y-86458597D01*
X139001403Y-86291506D01*
X138931410Y-86242497D01*
X138815838Y-86161573D01*
X138772215Y-86106999D01*
X138765021Y-86037500D01*
X138796543Y-85975145D01*
X138815836Y-85958428D01*
X139001401Y-85828495D01*
X139168495Y-85661401D01*
X139304035Y-85467830D01*
X139403903Y-85253663D01*
X139465063Y-85025408D01*
X139485659Y-84790000D01*
X139465063Y-84554592D01*
X139403903Y-84326337D01*
X139304035Y-84112171D01*
X139304034Y-84112169D01*
X139168494Y-83918597D01*
X139001403Y-83751506D01*
X138866280Y-83656893D01*
X138815838Y-83621573D01*
X138772215Y-83566999D01*
X138765021Y-83497500D01*
X138796543Y-83435145D01*
X138815836Y-83418428D01*
X139001401Y-83288495D01*
X139168495Y-83121401D01*
X139268385Y-82978743D01*
X140729500Y-82978743D01*
X140744925Y-83130439D01*
X140805837Y-83324579D01*
X140805844Y-83324594D01*
X140904589Y-83502499D01*
X140904592Y-83502504D01*
X141037132Y-83656893D01*
X141037134Y-83656895D01*
X141198037Y-83781445D01*
X141198038Y-83781445D01*
X141198042Y-83781448D01*
X141380729Y-83871060D01*
X141577715Y-83922063D01*
X141762201Y-83931418D01*
X141828156Y-83954473D01*
X141871177Y-84009526D01*
X141877606Y-84079100D01*
X141845399Y-84141104D01*
X141806355Y-84168538D01*
X141685408Y-84222387D01*
X141540768Y-84327475D01*
X141421140Y-84460336D01*
X141331750Y-84615164D01*
X141331747Y-84615170D01*
X141276504Y-84785192D01*
X141276503Y-84785194D01*
X141257815Y-84963000D01*
X141276503Y-85140805D01*
X141276504Y-85140807D01*
X141331747Y-85310829D01*
X141331750Y-85310835D01*
X141421141Y-85465665D01*
X141462812Y-85511946D01*
X141540764Y-85598521D01*
X141540767Y-85598523D01*
X141540770Y-85598526D01*
X141685407Y-85703612D01*
X141848733Y-85776329D01*
X142023609Y-85813500D01*
X142023610Y-85813500D01*
X142202389Y-85813500D01*
X142202391Y-85813500D01*
X142377267Y-85776329D01*
X142540593Y-85703612D01*
X142685230Y-85598526D01*
X142804859Y-85465665D01*
X142894250Y-85310835D01*
X142949497Y-85140803D01*
X142968185Y-84963000D01*
X142949497Y-84785197D01*
X142921873Y-84700181D01*
X142894252Y-84615170D01*
X142894249Y-84615164D01*
X142804859Y-84460335D01*
X142758003Y-84408296D01*
X142685235Y-84327478D01*
X142685232Y-84327476D01*
X142685231Y-84327475D01*
X142685230Y-84327474D01*
X142540593Y-84222388D01*
X142377267Y-84149671D01*
X142377265Y-84149670D01*
X142249594Y-84122533D01*
X142202391Y-84112500D01*
X142104350Y-84112500D01*
X142037311Y-84092815D01*
X141991556Y-84040011D01*
X141981612Y-83970853D01*
X142010637Y-83907297D01*
X142061284Y-83872219D01*
X142141528Y-83842500D01*
X142172887Y-83830886D01*
X142345571Y-83723252D01*
X142493053Y-83583059D01*
X142609295Y-83416049D01*
X142689540Y-83229058D01*
X142730500Y-83029741D01*
X142730500Y-82478591D01*
X142750185Y-82411552D01*
X142802989Y-82365797D01*
X142872147Y-82355853D01*
X142901953Y-82364030D01*
X143009764Y-82408687D01*
X143122280Y-82423500D01*
X143122287Y-82423500D01*
X143197713Y-82423500D01*
X143197720Y-82423500D01*
X143310236Y-82408687D01*
X143450233Y-82350698D01*
X143570451Y-82258451D01*
X143662698Y-82138233D01*
X143720687Y-81998236D01*
X143740466Y-81848000D01*
X143720687Y-81697764D01*
X143662698Y-81557767D01*
X143570451Y-81437549D01*
X143450233Y-81345302D01*
X143450229Y-81345300D01*
X143349884Y-81303736D01*
X143310236Y-81287313D01*
X143296171Y-81285461D01*
X143197727Y-81272500D01*
X143197720Y-81272500D01*
X143122280Y-81272500D01*
X143122272Y-81272500D01*
X143009764Y-81287313D01*
X143009763Y-81287313D01*
X142869769Y-81345300D01*
X142869766Y-81345302D01*
X142799145Y-81399492D01*
X142733976Y-81424686D01*
X142665531Y-81410648D01*
X142615542Y-81361834D01*
X142615240Y-81361293D01*
X142555410Y-81253500D01*
X142555407Y-81253495D01*
X142422867Y-81099106D01*
X142422865Y-81099104D01*
X142261962Y-80974554D01*
X142261959Y-80974553D01*
X142261958Y-80974552D01*
X142079271Y-80884940D01*
X141882285Y-80833937D01*
X141882287Y-80833937D01*
X141746804Y-80827066D01*
X141679064Y-80823631D01*
X141679063Y-80823631D01*
X141679061Y-80823631D01*
X141477936Y-80854442D01*
X141477924Y-80854445D01*
X141287118Y-80925111D01*
X141287111Y-80925115D01*
X141114432Y-81032745D01*
X141114427Y-81032749D01*
X140966949Y-81172938D01*
X140966947Y-81172940D01*
X140966947Y-81172941D01*
X140949057Y-81198645D01*
X140850705Y-81339949D01*
X140770459Y-81526943D01*
X140729500Y-81726258D01*
X140729500Y-82978743D01*
X139268385Y-82978743D01*
X139304035Y-82927830D01*
X139403903Y-82713663D01*
X139465063Y-82485408D01*
X139485659Y-82250000D01*
X139465063Y-82014592D01*
X139403903Y-81786337D01*
X139304035Y-81572171D01*
X139304034Y-81572169D01*
X139168494Y-81378597D01*
X139001403Y-81211506D01*
X138880336Y-81126735D01*
X138815838Y-81081573D01*
X138772215Y-81026999D01*
X138765021Y-80957500D01*
X138796543Y-80895145D01*
X138815836Y-80878428D01*
X139001401Y-80748495D01*
X139168495Y-80581401D01*
X139304035Y-80387830D01*
X139381788Y-80221089D01*
X144135904Y-80221089D01*
X144154592Y-80398894D01*
X144154593Y-80398896D01*
X144209836Y-80568918D01*
X144209839Y-80568924D01*
X144299230Y-80723754D01*
X144321507Y-80748495D01*
X144418853Y-80856610D01*
X144418856Y-80856612D01*
X144418859Y-80856615D01*
X144563496Y-80961701D01*
X144726822Y-81034418D01*
X144901698Y-81071589D01*
X144901699Y-81071589D01*
X145080478Y-81071589D01*
X145080480Y-81071589D01*
X145255356Y-81034418D01*
X145331549Y-81000494D01*
X145400798Y-80991210D01*
X145464075Y-81020838D01*
X145501288Y-81079973D01*
X145505305Y-81126735D01*
X145496395Y-81211505D01*
X145493939Y-81234876D01*
X145498682Y-81280000D01*
X145512627Y-81412681D01*
X145512628Y-81412683D01*
X145567871Y-81582705D01*
X145567874Y-81582711D01*
X145657265Y-81737541D01*
X145698936Y-81783822D01*
X145776888Y-81870397D01*
X145776891Y-81870399D01*
X145776894Y-81870402D01*
X145921531Y-81975488D01*
X146084857Y-82048205D01*
X146259733Y-82085376D01*
X146259734Y-82085376D01*
X146438513Y-82085376D01*
X146438515Y-82085376D01*
X146613391Y-82048205D01*
X146776717Y-81975488D01*
X146921354Y-81870402D01*
X146941525Y-81848000D01*
X148359534Y-81848000D01*
X148379312Y-81998234D01*
X148379313Y-81998236D01*
X148437302Y-82138233D01*
X148529549Y-82258451D01*
X148649767Y-82350698D01*
X148789764Y-82408687D01*
X148902280Y-82423500D01*
X148902287Y-82423500D01*
X148977713Y-82423500D01*
X148977720Y-82423500D01*
X149090236Y-82408687D01*
X149198047Y-82364030D01*
X149267517Y-82356561D01*
X149329996Y-82387836D01*
X149365648Y-82447925D01*
X149369500Y-82478591D01*
X149369500Y-82978743D01*
X149384925Y-83130439D01*
X149445837Y-83324579D01*
X149445844Y-83324594D01*
X149544589Y-83502499D01*
X149544592Y-83502504D01*
X149677132Y-83656893D01*
X149677134Y-83656895D01*
X149838037Y-83781445D01*
X149838038Y-83781445D01*
X149838042Y-83781448D01*
X150020729Y-83871060D01*
X150217715Y-83922063D01*
X150420936Y-83932369D01*
X150622071Y-83901556D01*
X150812887Y-83830886D01*
X150985571Y-83723252D01*
X151133053Y-83583059D01*
X151249295Y-83416049D01*
X151329540Y-83229058D01*
X151370500Y-83029741D01*
X151370500Y-81777258D01*
X151362417Y-81697765D01*
X151355074Y-81625560D01*
X151294162Y-81431420D01*
X151294160Y-81431416D01*
X151294159Y-81431412D01*
X151195409Y-81253498D01*
X151195408Y-81253497D01*
X151195407Y-81253495D01*
X151062867Y-81099106D01*
X151062865Y-81099104D01*
X150901962Y-80974554D01*
X150901959Y-80974553D01*
X150901958Y-80974552D01*
X150719271Y-80884940D01*
X150522285Y-80833937D01*
X150522287Y-80833937D01*
X150386804Y-80827066D01*
X150319064Y-80823631D01*
X150319063Y-80823631D01*
X150319061Y-80823631D01*
X150117936Y-80854442D01*
X150117924Y-80854445D01*
X149927118Y-80925111D01*
X149927111Y-80925115D01*
X149754432Y-81032745D01*
X149754427Y-81032749D01*
X149606949Y-81172938D01*
X149606947Y-81172940D01*
X149606947Y-81172941D01*
X149589057Y-81198645D01*
X149490703Y-81339953D01*
X149487349Y-81347769D01*
X149442818Y-81401609D01*
X149376248Y-81422828D01*
X149308775Y-81404688D01*
X149297914Y-81397236D01*
X149230234Y-81345302D01*
X149230230Y-81345300D01*
X149129884Y-81303736D01*
X149090236Y-81287313D01*
X149076171Y-81285461D01*
X148977727Y-81272500D01*
X148977720Y-81272500D01*
X148902280Y-81272500D01*
X148902272Y-81272500D01*
X148789764Y-81287313D01*
X148789763Y-81287313D01*
X148649770Y-81345300D01*
X148649767Y-81345301D01*
X148649767Y-81345302D01*
X148529549Y-81437549D01*
X148466462Y-81519766D01*
X148437300Y-81557770D01*
X148379313Y-81697763D01*
X148379312Y-81697765D01*
X148359534Y-81847999D01*
X148359534Y-81848000D01*
X146941525Y-81848000D01*
X147040983Y-81737541D01*
X147130374Y-81582711D01*
X147168759Y-81464574D01*
X147208195Y-81406900D01*
X147260909Y-81381603D01*
X147285143Y-81376453D01*
X147448469Y-81303736D01*
X147593106Y-81198650D01*
X147606266Y-81184035D01*
X147619024Y-81169865D01*
X147712735Y-81065789D01*
X147802126Y-80910959D01*
X147857373Y-80740927D01*
X147876061Y-80563124D01*
X147857373Y-80385321D01*
X147852399Y-80370015D01*
X147850403Y-80300175D01*
X147886483Y-80240342D01*
X147944543Y-80210408D01*
X148093023Y-80178848D01*
X148256349Y-80106131D01*
X148400986Y-80001045D01*
X148520615Y-79868184D01*
X148610006Y-79713354D01*
X148665253Y-79543322D01*
X148683941Y-79365519D01*
X148665253Y-79187716D01*
X148614713Y-79032170D01*
X148610008Y-79017689D01*
X148610005Y-79017683D01*
X148591742Y-78986050D01*
X148520615Y-78862854D01*
X148463171Y-78799056D01*
X148400991Y-78729997D01*
X148400988Y-78729995D01*
X148400987Y-78729994D01*
X148400986Y-78729993D01*
X148256349Y-78624907D01*
X148093023Y-78552190D01*
X148093021Y-78552189D01*
X147965350Y-78525052D01*
X147918147Y-78515019D01*
X147739365Y-78515019D01*
X147708710Y-78521534D01*
X147564489Y-78552189D01*
X147564484Y-78552191D01*
X147401164Y-78624906D01*
X147256524Y-78729994D01*
X147136896Y-78862855D01*
X147047506Y-79017683D01*
X147047503Y-79017689D01*
X146992260Y-79187711D01*
X146992259Y-79187713D01*
X146973571Y-79365519D01*
X146992259Y-79543324D01*
X146992261Y-79543329D01*
X146997232Y-79558629D01*
X146999227Y-79628470D01*
X146963146Y-79688303D01*
X146905082Y-79718236D01*
X146756609Y-79749794D01*
X146756604Y-79749796D01*
X146593284Y-79822511D01*
X146448644Y-79927599D01*
X146329016Y-80060460D01*
X146239626Y-80215288D01*
X146239624Y-80215292D01*
X146201241Y-80333424D01*
X146161803Y-80391099D01*
X146109094Y-80416395D01*
X146084855Y-80421547D01*
X146008663Y-80455470D01*
X145939413Y-80464754D01*
X145876136Y-80435125D01*
X145838923Y-80375990D01*
X145834907Y-80329233D01*
X145846274Y-80221089D01*
X145827586Y-80043286D01*
X145772339Y-79873254D01*
X145682948Y-79718424D01*
X145601953Y-79628470D01*
X145563324Y-79585567D01*
X145563321Y-79585565D01*
X145563320Y-79585564D01*
X145563319Y-79585563D01*
X145418682Y-79480477D01*
X145255356Y-79407760D01*
X145255354Y-79407759D01*
X145127683Y-79380622D01*
X145080480Y-79370589D01*
X144901698Y-79370589D01*
X144871043Y-79377104D01*
X144726822Y-79407759D01*
X144726817Y-79407761D01*
X144563497Y-79480476D01*
X144418857Y-79585564D01*
X144299229Y-79718425D01*
X144209839Y-79873253D01*
X144209836Y-79873259D01*
X144154593Y-80043281D01*
X144154592Y-80043283D01*
X144135904Y-80221089D01*
X139381788Y-80221089D01*
X139403903Y-80173663D01*
X139465063Y-79945408D01*
X139485659Y-79710000D01*
X139465063Y-79474592D01*
X139403903Y-79246337D01*
X139304035Y-79032171D01*
X139304034Y-79032169D01*
X139168494Y-78838597D01*
X139001402Y-78671505D01*
X138807830Y-78535965D01*
X138807828Y-78535964D01*
X138700746Y-78486031D01*
X138593663Y-78436097D01*
X138593659Y-78436096D01*
X138593655Y-78436094D01*
X138365413Y-78374938D01*
X138365403Y-78374936D01*
X138188966Y-78359500D01*
X137371034Y-78359500D01*
X137371028Y-78359500D01*
X137365784Y-78359958D01*
X137344216Y-78359958D01*
X137338972Y-78359500D01*
X137338966Y-78359500D01*
X136649500Y-78359500D01*
X136582461Y-78339815D01*
X136536706Y-78287011D01*
X136525500Y-78235500D01*
X136525500Y-77710705D01*
X136525736Y-77705299D01*
X136529476Y-77662554D01*
X136535938Y-77596943D01*
X136541918Y-77536223D01*
X136545542Y-77516309D01*
X136563402Y-77449653D01*
X136591683Y-77356424D01*
X136597953Y-77340037D01*
X136629420Y-77272558D01*
X136630872Y-77269653D01*
X136675764Y-77185666D01*
X136679657Y-77179331D01*
X136686817Y-77169106D01*
X136725994Y-77113155D01*
X136728827Y-77109420D01*
X136788122Y-77037168D01*
X136792162Y-77032710D01*
X136849710Y-76975162D01*
X136854168Y-76971122D01*
X136926420Y-76911827D01*
X136930155Y-76908994D01*
X136996334Y-76862654D01*
X137002666Y-76858764D01*
X137086653Y-76813872D01*
X137089558Y-76812420D01*
X137157037Y-76780953D01*
X137173424Y-76774683D01*
X137266653Y-76746402D01*
X137333309Y-76728542D01*
X137353223Y-76724918D01*
X137479542Y-76712477D01*
X137522305Y-76708735D01*
X137527706Y-76708500D01*
X141369151Y-76708500D01*
X141436190Y-76728185D01*
G37*
%TD.AperFunction*%
%TA.AperFunction,Conductor*%
G36*
X137670507Y-94740156D02*
G01*
X137630000Y-94878111D01*
X137630000Y-95021889D01*
X137670507Y-95159844D01*
X137732044Y-95255598D01*
X137514127Y-95037681D01*
X137480642Y-94976358D01*
X137485626Y-94906666D01*
X137514127Y-94862319D01*
X137732042Y-94644404D01*
X137670507Y-94740156D01*
G37*
%TD.AperFunction*%
%TD*%
M02*
