%TF.GenerationSoftware,KiCad,Pcbnew,7.0.9*%
%TF.CreationDate,2024-03-17T18:44:57-07:00*%
%TF.ProjectId,ESP32S3_Board,45535033-3253-4335-9f42-6f6172642e6b,rev?*%
%TF.SameCoordinates,Original*%
%TF.FileFunction,Soldermask,Bot*%
%TF.FilePolarity,Negative*%
%FSLAX46Y46*%
G04 Gerber Fmt 4.6, Leading zero omitted, Abs format (unit mm)*
G04 Created by KiCad (PCBNEW 7.0.9) date 2024-03-17 18:44:57*
%MOMM*%
%LPD*%
G01*
G04 APERTURE LIST*
G04 Aperture macros list*
%AMRoundRect*
0 Rectangle with rounded corners*
0 $1 Rounding radius*
0 $2 $3 $4 $5 $6 $7 $8 $9 X,Y pos of 4 corners*
0 Add a 4 corners polygon primitive as box body*
4,1,4,$2,$3,$4,$5,$6,$7,$8,$9,$2,$3,0*
0 Add four circle primitives for the rounded corners*
1,1,$1+$1,$2,$3*
1,1,$1+$1,$4,$5*
1,1,$1+$1,$6,$7*
1,1,$1+$1,$8,$9*
0 Add four rect primitives between the rounded corners*
20,1,$1+$1,$2,$3,$4,$5,0*
20,1,$1+$1,$4,$5,$6,$7,0*
20,1,$1+$1,$6,$7,$8,$9,0*
20,1,$1+$1,$8,$9,$2,$3,0*%
G04 Aperture macros list end*
%ADD10C,0.650000*%
%ADD11O,1.000000X2.100000*%
%ADD12O,1.000000X1.600000*%
%ADD13O,2.400000X1.700000*%
%ADD14RoundRect,0.140000X0.170000X-0.140000X0.170000X0.140000X-0.170000X0.140000X-0.170000X-0.140000X0*%
%ADD15RoundRect,0.140000X-0.170000X0.140000X-0.170000X-0.140000X0.170000X-0.140000X0.170000X0.140000X0*%
%ADD16RoundRect,0.147500X0.172500X-0.147500X0.172500X0.147500X-0.172500X0.147500X-0.172500X-0.147500X0*%
%ADD17R,1.400000X1.200000*%
%ADD18RoundRect,0.135000X-0.185000X0.135000X-0.185000X-0.135000X0.185000X-0.135000X0.185000X0.135000X0*%
%ADD19RoundRect,0.140000X-0.140000X-0.170000X0.140000X-0.170000X0.140000X0.170000X-0.140000X0.170000X0*%
%ADD20RoundRect,0.135000X0.135000X0.185000X-0.135000X0.185000X-0.135000X-0.185000X0.135000X-0.185000X0*%
%ADD21RoundRect,0.140000X0.140000X0.170000X-0.140000X0.170000X-0.140000X-0.170000X0.140000X-0.170000X0*%
%ADD22R,0.660000X0.200000*%
%ADD23R,0.200000X0.660000*%
%ADD24R,4.000000X4.000000*%
%ADD25RoundRect,0.100000X-0.130000X-0.100000X0.130000X-0.100000X0.130000X0.100000X-0.130000X0.100000X0*%
%ADD26RoundRect,0.135000X-0.135000X-0.185000X0.135000X-0.185000X0.135000X0.185000X-0.135000X0.185000X0*%
G04 APERTURE END LIST*
D10*
%TO.C,J1*%
X148940000Y-81848000D03*
X143160000Y-81848000D03*
D11*
X150370000Y-82378000D03*
D12*
X150370000Y-78198000D03*
D11*
X141730000Y-82378000D03*
D12*
X141730000Y-78198000D03*
%TD*%
D13*
%TO.C,J2*%
X136930000Y-79710000D03*
X137780000Y-79710000D03*
X136930000Y-82250000D03*
X137780000Y-82250000D03*
X136930000Y-84790000D03*
X137780000Y-84790000D03*
X136930000Y-87330000D03*
X137780000Y-87330000D03*
X136930000Y-89870000D03*
X137780000Y-89870000D03*
X136930000Y-92410000D03*
X137780000Y-92410000D03*
X136930000Y-94950000D03*
X137780000Y-94950000D03*
X136930000Y-97490000D03*
X137780000Y-97490000D03*
%TD*%
%TO.C,J3*%
X153740000Y-80010000D03*
X154590000Y-80010000D03*
X153740000Y-82550000D03*
X154590000Y-82550000D03*
X153740000Y-85090000D03*
X154590000Y-85090000D03*
X153740000Y-87630000D03*
X154590000Y-87630000D03*
X153740000Y-90170000D03*
X154590000Y-90170000D03*
X153740000Y-92710000D03*
X154590000Y-92710000D03*
X153740000Y-95250000D03*
X154590000Y-95250000D03*
X153740000Y-97790000D03*
X154590000Y-97790000D03*
%TD*%
D14*
%TO.C,C9*%
X151892000Y-98496000D03*
X151892000Y-97536000D03*
%TD*%
D15*
%TO.C,C2*%
X143002000Y-94008000D03*
X143002000Y-94968000D03*
%TD*%
D16*
%TO.C,L2*%
X141986000Y-96266000D03*
X141986000Y-95296000D03*
%TD*%
D17*
%TO.C,Y1*%
X148082000Y-96774000D03*
X150282000Y-96774000D03*
X150282000Y-98474000D03*
X148082000Y-98474000D03*
%TD*%
D18*
%TO.C,R1*%
X145542000Y-95756000D03*
X145542000Y-96776000D03*
%TD*%
D19*
%TO.C,C6*%
X139756000Y-94234000D03*
X140716000Y-94234000D03*
%TD*%
D20*
%TO.C,R3*%
X150116000Y-79883000D03*
X149096000Y-79883000D03*
%TD*%
D21*
%TO.C,C15*%
X140942000Y-96266000D03*
X139982000Y-96266000D03*
%TD*%
%TO.C,C14*%
X140942000Y-95250000D03*
X139982000Y-95250000D03*
%TD*%
D19*
%TO.C,C8*%
X147348000Y-93726000D03*
X148308000Y-93726000D03*
%TD*%
D14*
%TO.C,C10*%
X146558000Y-97762000D03*
X146558000Y-96802000D03*
%TD*%
D15*
%TO.C,C3*%
X144018000Y-95024000D03*
X144018000Y-95984000D03*
%TD*%
D22*
%TO.C,U1*%
X142024000Y-91862000D03*
X142024000Y-91462000D03*
X142024000Y-91062000D03*
X142024000Y-90662000D03*
X142024000Y-90262000D03*
X142024000Y-89862000D03*
X142024000Y-89462000D03*
X142024000Y-89062000D03*
X142024000Y-88662000D03*
X142024000Y-88262000D03*
X142024000Y-87862000D03*
X142024000Y-87462000D03*
X142024000Y-87062000D03*
X142024000Y-86662000D03*
D23*
X142834000Y-85852000D03*
X143234000Y-85852000D03*
X143634000Y-85852000D03*
X144034000Y-85852000D03*
X144434000Y-85852000D03*
X144834000Y-85852000D03*
X145234000Y-85852000D03*
X145634000Y-85852000D03*
X146034000Y-85852000D03*
X146434000Y-85852000D03*
X146834000Y-85852000D03*
X147234000Y-85852000D03*
X147634000Y-85852000D03*
X148034000Y-85852000D03*
D22*
X148844000Y-86662000D03*
X148844000Y-87062000D03*
X148844000Y-87462000D03*
X148844000Y-87862000D03*
X148844000Y-88262000D03*
X148844000Y-88662000D03*
X148844000Y-89062000D03*
X148844000Y-89462000D03*
X148844000Y-89862000D03*
X148844000Y-90262000D03*
X148844000Y-90662000D03*
X148844000Y-91062000D03*
X148844000Y-91462000D03*
X148844000Y-91862000D03*
D23*
X148034000Y-92672000D03*
X147634000Y-92672000D03*
X147234000Y-92672000D03*
X146834000Y-92672000D03*
X146434000Y-92672000D03*
X146034000Y-92672000D03*
X145634000Y-92672000D03*
X145234000Y-92672000D03*
X144834000Y-92672000D03*
X144434000Y-92672000D03*
X144034000Y-92672000D03*
X143634000Y-92672000D03*
X143234000Y-92672000D03*
X142834000Y-92672000D03*
D24*
X145434000Y-89262000D03*
%TD*%
D19*
%TO.C,C5*%
X139700000Y-93218000D03*
X140660000Y-93218000D03*
%TD*%
D25*
%TO.C,L1*%
X140208000Y-92202000D03*
X140848000Y-92202000D03*
%TD*%
D26*
%TO.C,R4*%
X141730000Y-80010000D03*
X142750000Y-80010000D03*
%TD*%
D21*
%TO.C,C1*%
X144780000Y-84836000D03*
X143820000Y-84836000D03*
%TD*%
%TO.C,C4*%
X140942000Y-91186000D03*
X139982000Y-91186000D03*
%TD*%
M02*
