%TF.GenerationSoftware,KiCad,Pcbnew,7.0.9*%
%TF.CreationDate,2024-03-18T09:44:21-07:00*%
%TF.ProjectId,ESP32S3_Board,45535033-3253-4335-9f42-6f6172642e6b,rev?*%
%TF.SameCoordinates,Original*%
%TF.FileFunction,Copper,L4,Bot*%
%TF.FilePolarity,Positive*%
%FSLAX46Y46*%
G04 Gerber Fmt 4.6, Leading zero omitted, Abs format (unit mm)*
G04 Created by KiCad (PCBNEW 7.0.9) date 2024-03-18 09:44:21*
%MOMM*%
%LPD*%
G01*
G04 APERTURE LIST*
G04 Aperture macros list*
%AMRoundRect*
0 Rectangle with rounded corners*
0 $1 Rounding radius*
0 $2 $3 $4 $5 $6 $7 $8 $9 X,Y pos of 4 corners*
0 Add a 4 corners polygon primitive as box body*
4,1,4,$2,$3,$4,$5,$6,$7,$8,$9,$2,$3,0*
0 Add four circle primitives for the rounded corners*
1,1,$1+$1,$2,$3*
1,1,$1+$1,$4,$5*
1,1,$1+$1,$6,$7*
1,1,$1+$1,$8,$9*
0 Add four rect primitives between the rounded corners*
20,1,$1+$1,$2,$3,$4,$5,0*
20,1,$1+$1,$4,$5,$6,$7,0*
20,1,$1+$1,$6,$7,$8,$9,0*
20,1,$1+$1,$8,$9,$2,$3,0*%
G04 Aperture macros list end*
%TA.AperFunction,SMDPad,CuDef*%
%ADD10RoundRect,0.147500X-0.147500X-0.172500X0.147500X-0.172500X0.147500X0.172500X-0.147500X0.172500X0*%
%TD*%
%TA.AperFunction,ComponentPad*%
%ADD11O,1.000000X2.100000*%
%TD*%
%TA.AperFunction,ComponentPad*%
%ADD12O,1.000000X1.600000*%
%TD*%
%TA.AperFunction,ComponentPad*%
%ADD13O,2.400000X1.700000*%
%TD*%
%TA.AperFunction,SMDPad,CuDef*%
%ADD14RoundRect,0.140000X0.170000X-0.140000X0.170000X0.140000X-0.170000X0.140000X-0.170000X-0.140000X0*%
%TD*%
%TA.AperFunction,SMDPad,CuDef*%
%ADD15RoundRect,0.140000X-0.170000X0.140000X-0.170000X-0.140000X0.170000X-0.140000X0.170000X0.140000X0*%
%TD*%
%TA.AperFunction,SMDPad,CuDef*%
%ADD16RoundRect,0.147500X0.172500X-0.147500X0.172500X0.147500X-0.172500X0.147500X-0.172500X-0.147500X0*%
%TD*%
%TA.AperFunction,SMDPad,CuDef*%
%ADD17R,1.400000X1.200000*%
%TD*%
%TA.AperFunction,SMDPad,CuDef*%
%ADD18RoundRect,0.135000X-0.185000X0.135000X-0.185000X-0.135000X0.185000X-0.135000X0.185000X0.135000X0*%
%TD*%
%TA.AperFunction,SMDPad,CuDef*%
%ADD19RoundRect,0.140000X-0.140000X-0.170000X0.140000X-0.170000X0.140000X0.170000X-0.140000X0.170000X0*%
%TD*%
%TA.AperFunction,SMDPad,CuDef*%
%ADD20RoundRect,0.135000X0.135000X0.185000X-0.135000X0.185000X-0.135000X-0.185000X0.135000X-0.185000X0*%
%TD*%
%TA.AperFunction,SMDPad,CuDef*%
%ADD21RoundRect,0.140000X0.140000X0.170000X-0.140000X0.170000X-0.140000X-0.170000X0.140000X-0.170000X0*%
%TD*%
%TA.AperFunction,SMDPad,CuDef*%
%ADD22R,0.660000X0.200000*%
%TD*%
%TA.AperFunction,SMDPad,CuDef*%
%ADD23R,0.200000X0.660000*%
%TD*%
%TA.AperFunction,SMDPad,CuDef*%
%ADD24R,4.000000X4.000000*%
%TD*%
%TA.AperFunction,SMDPad,CuDef*%
%ADD25RoundRect,0.135000X-0.135000X-0.185000X0.135000X-0.185000X0.135000X0.185000X-0.135000X0.185000X0*%
%TD*%
%TA.AperFunction,ViaPad*%
%ADD26C,0.700000*%
%TD*%
%TA.AperFunction,Conductor*%
%ADD27C,0.200000*%
%TD*%
%TA.AperFunction,Conductor*%
%ADD28C,0.300000*%
%TD*%
G04 APERTURE END LIST*
D10*
%TO.P,L1,1,1*%
%TO.N,+3.3V*%
X140043000Y-92202000D03*
%TO.P,L1,2,2*%
%TO.N,Net-(C4-Pad1)*%
X141013000Y-92202000D03*
%TD*%
D11*
%TO.P,J1,S1,SHIELD*%
%TO.N,GND*%
X150370000Y-82378000D03*
D12*
X150370000Y-78198000D03*
D11*
X141730000Y-82378000D03*
D12*
X141730000Y-78198000D03*
%TD*%
D13*
%TO.P,J2,1,Pin_1*%
%TO.N,/IO7*%
X136930000Y-79710000D03*
X137780000Y-79710000D03*
%TO.P,J2,2,Pin_2*%
%TO.N,/IO6*%
X136930000Y-82250000D03*
X137780000Y-82250000D03*
%TO.P,J2,3,Pin_3*%
%TO.N,/IO5*%
X136930000Y-84790000D03*
X137780000Y-84790000D03*
%TO.P,J2,4,Pin_4*%
%TO.N,/IO4*%
X136930000Y-87330000D03*
X137780000Y-87330000D03*
%TO.P,J2,5,Pin_5*%
%TO.N,/IO3*%
X136930000Y-89870000D03*
X137780000Y-89870000D03*
%TO.P,J2,6,Pin_6*%
%TO.N,/IO2*%
X136930000Y-92410000D03*
X137780000Y-92410000D03*
%TO.P,J2,7,Pin_7*%
%TO.N,+3.3V*%
X136930000Y-94950000D03*
X137780000Y-94950000D03*
%TO.P,J2,8,Pin_8*%
%TO.N,GND*%
X136930000Y-97490000D03*
X137780000Y-97490000D03*
%TD*%
%TO.P,J3,1,Pin_1*%
%TO.N,/IO17*%
X153740000Y-80010000D03*
X154590000Y-80010000D03*
%TO.P,J3,2,Pin_2*%
%TO.N,/IO33*%
X153740000Y-82550000D03*
X154590000Y-82550000D03*
%TO.P,J3,3,Pin_3*%
%TO.N,/IO34*%
X153740000Y-85090000D03*
X154590000Y-85090000D03*
%TO.P,J3,4,Pin_4*%
%TO.N,/IO35*%
X153740000Y-87630000D03*
X154590000Y-87630000D03*
%TO.P,J3,5,Pin_5*%
%TO.N,/IO36*%
X153740000Y-90170000D03*
X154590000Y-90170000D03*
%TO.P,J3,6,Pin_6*%
%TO.N,/IO37*%
X153740000Y-92710000D03*
X154590000Y-92710000D03*
%TO.P,J3,7,Pin_7*%
%TO.N,/IO38*%
X153740000Y-95250000D03*
X154590000Y-95250000D03*
%TO.P,J3,8,Pin_8*%
%TO.N,/IO45*%
X153740000Y-97790000D03*
X154590000Y-97790000D03*
%TD*%
D14*
%TO.P,C9,1*%
%TO.N,Net-(U1-XTAL_N)*%
X151892000Y-98496000D03*
%TO.P,C9,2*%
%TO.N,GND*%
X151892000Y-97536000D03*
%TD*%
D15*
%TO.P,C2,1*%
%TO.N,+3.3V*%
X143002000Y-94008000D03*
%TO.P,C2,2*%
%TO.N,GND*%
X143002000Y-94968000D03*
%TD*%
D16*
%TO.P,L2,1,1*%
%TO.N,Net-(AE1-ANT)*%
X141986000Y-96266000D03*
%TO.P,L2,2,2*%
%TO.N,Net-(U1-LNA_IN)*%
X141986000Y-95296000D03*
%TD*%
D17*
%TO.P,Y1,1,1*%
%TO.N,Net-(C10-Pad2)*%
X148082000Y-96774000D03*
%TO.P,Y1,2,2*%
%TO.N,GND*%
X150282000Y-96774000D03*
%TO.P,Y1,3,3*%
%TO.N,Net-(U1-XTAL_N)*%
X150282000Y-98474000D03*
%TO.P,Y1,4,4*%
%TO.N,GND*%
X148082000Y-98474000D03*
%TD*%
D18*
%TO.P,R1,1*%
%TO.N,Net-(U1-XTAL_P)*%
X145542000Y-95756000D03*
%TO.P,R1,2*%
%TO.N,Net-(C10-Pad2)*%
X145542000Y-96776000D03*
%TD*%
D19*
%TO.P,C6,1*%
%TO.N,+3.3V*%
X139756000Y-94234000D03*
%TO.P,C6,2*%
%TO.N,GND*%
X140716000Y-94234000D03*
%TD*%
D20*
%TO.P,R3,1*%
%TO.N,GND*%
X150116000Y-79883000D03*
%TO.P,R3,2*%
%TO.N,Net-(J1-CC1)*%
X149096000Y-79883000D03*
%TD*%
D21*
%TO.P,C15,1*%
%TO.N,Net-(AE1-ANT)*%
X140942000Y-96266000D03*
%TO.P,C15,2*%
%TO.N,GND*%
X139982000Y-96266000D03*
%TD*%
%TO.P,C14,1*%
%TO.N,Net-(U1-LNA_IN)*%
X140942000Y-95250000D03*
%TO.P,C14,2*%
%TO.N,GND*%
X139982000Y-95250000D03*
%TD*%
D19*
%TO.P,C8,1*%
%TO.N,+3.3V*%
X147348000Y-93726000D03*
%TO.P,C8,2*%
%TO.N,GND*%
X148308000Y-93726000D03*
%TD*%
D14*
%TO.P,C10,1*%
%TO.N,GND*%
X146558000Y-97762000D03*
%TO.P,C10,2*%
%TO.N,Net-(C10-Pad2)*%
X146558000Y-96802000D03*
%TD*%
D15*
%TO.P,C3,1*%
%TO.N,+3.3V*%
X144018000Y-95024000D03*
%TO.P,C3,2*%
%TO.N,GND*%
X144018000Y-95984000D03*
%TD*%
D22*
%TO.P,U1,1,LNA_IN*%
%TO.N,Net-(U1-LNA_IN)*%
X142024000Y-91862000D03*
%TO.P,U1,2,VDD3P3*%
%TO.N,Net-(C4-Pad1)*%
X142024000Y-91462000D03*
%TO.P,U1,3,VDD3P3*%
X142024000Y-91062000D03*
%TO.P,U1,4,CHIP_PU*%
%TO.N,/RESET*%
X142024000Y-90662000D03*
%TO.P,U1,5,GPIO0*%
%TO.N,/BOOT*%
X142024000Y-90262000D03*
%TO.P,U1,6,GPIO1*%
%TO.N,unconnected-(U1-GPIO1-Pad6)*%
X142024000Y-89862000D03*
%TO.P,U1,7,GPIO2*%
%TO.N,/IO2*%
X142024000Y-89462000D03*
%TO.P,U1,8,GPIO3*%
%TO.N,/IO3*%
X142024000Y-89062000D03*
%TO.P,U1,9,GPIO4*%
%TO.N,/IO4*%
X142024000Y-88662000D03*
%TO.P,U1,10,GPIO5*%
%TO.N,/IO5*%
X142024000Y-88262000D03*
%TO.P,U1,11,GPIO6*%
%TO.N,/IO6*%
X142024000Y-87862000D03*
%TO.P,U1,12,GPIO7*%
%TO.N,/IO7*%
X142024000Y-87462000D03*
%TO.P,U1,13,GPIO8*%
%TO.N,unconnected-(U1-GPIO8-Pad13)*%
X142024000Y-87062000D03*
%TO.P,U1,14,GPIO9*%
%TO.N,unconnected-(U1-GPIO9-Pad14)*%
X142024000Y-86662000D03*
D23*
%TO.P,U1,15,GPIO10*%
%TO.N,unconnected-(U1-GPIO10-Pad15)*%
X142834000Y-85852000D03*
%TO.P,U1,16,GPIO11*%
%TO.N,unconnected-(U1-GPIO11-Pad16)*%
X143234000Y-85852000D03*
%TO.P,U1,17,GPIO12*%
%TO.N,unconnected-(U1-GPIO12-Pad17)*%
X143634000Y-85852000D03*
%TO.P,U1,18,GPIO13*%
%TO.N,unconnected-(U1-GPIO13-Pad18)*%
X144034000Y-85852000D03*
%TO.P,U1,19,GPIO14*%
%TO.N,unconnected-(U1-GPIO14-Pad19)*%
X144434000Y-85852000D03*
%TO.P,U1,20,VDD3P3_RTC*%
%TO.N,+3.3V*%
X144834000Y-85852000D03*
%TO.P,U1,21,XTAL_32K_P*%
%TO.N,unconnected-(U1-XTAL_32K_P-Pad21)*%
X145234000Y-85852000D03*
%TO.P,U1,22,XTAL_32K_N*%
%TO.N,unconnected-(U1-XTAL_32K_N-Pad22)*%
X145634000Y-85852000D03*
%TO.P,U1,23,GPIO17*%
%TO.N,/IO17*%
X146034000Y-85852000D03*
%TO.P,U1,24,GPIO18*%
%TO.N,unconnected-(U1-GPIO18-Pad24)*%
X146434000Y-85852000D03*
%TO.P,U1,25,GPIO19*%
%TO.N,/USB_D-*%
X146834000Y-85852000D03*
%TO.P,U1,26,GPIO20*%
%TO.N,/USB_D+*%
X147234000Y-85852000D03*
%TO.P,U1,27,GP1O21*%
%TO.N,/IO21*%
X147634000Y-85852000D03*
%TO.P,U1,28,SPICS1*%
%TO.N,unconnected-(U1-SPICS1-Pad28)*%
X148034000Y-85852000D03*
D22*
%TO.P,U1,29,VDD_SPI*%
%TO.N,unconnected-(U1-VDD_SPI-Pad29)*%
X148844000Y-86662000D03*
%TO.P,U1,30,SPIHD*%
%TO.N,unconnected-(U1-SPIHD-Pad30)*%
X148844000Y-87062000D03*
%TO.P,U1,31,SPIWP*%
%TO.N,unconnected-(U1-SPIWP-Pad31)*%
X148844000Y-87462000D03*
%TO.P,U1,32,SPICS0*%
%TO.N,unconnected-(U1-SPICS0-Pad32)*%
X148844000Y-87862000D03*
%TO.P,U1,33,SPICLK*%
%TO.N,unconnected-(U1-SPICLK-Pad33)*%
X148844000Y-88262000D03*
%TO.P,U1,34,SPIQ*%
%TO.N,unconnected-(U1-SPIQ-Pad34)*%
X148844000Y-88662000D03*
%TO.P,U1,35,SPID*%
%TO.N,unconnected-(U1-SPID-Pad35)*%
X148844000Y-89062000D03*
%TO.P,U1,36,SPICLK_N*%
%TO.N,unconnected-(U1-SPICLK_N-Pad36)*%
X148844000Y-89462000D03*
%TO.P,U1,37,SPICLK_P*%
%TO.N,unconnected-(U1-SPICLK_P-Pad37)*%
X148844000Y-89862000D03*
%TO.P,U1,38,GPIO33*%
%TO.N,/IO33*%
X148844000Y-90262000D03*
%TO.P,U1,39,GPIO34*%
%TO.N,/IO34*%
X148844000Y-90662000D03*
%TO.P,U1,40,GPIO35*%
%TO.N,/IO35*%
X148844000Y-91062000D03*
%TO.P,U1,41,GPIO36*%
%TO.N,/IO36*%
X148844000Y-91462000D03*
%TO.P,U1,42,GPIO37*%
%TO.N,/IO37*%
X148844000Y-91862000D03*
D23*
%TO.P,U1,43,GPIO38*%
%TO.N,/IO38*%
X148034000Y-92672000D03*
%TO.P,U1,44,MTCK*%
%TO.N,unconnected-(U1-MTCK-Pad44)*%
X147634000Y-92672000D03*
%TO.P,U1,45,MTDO*%
%TO.N,unconnected-(U1-MTDO-Pad45)*%
X147234000Y-92672000D03*
%TO.P,U1,46,VDD3P3_CPU*%
%TO.N,+3.3V*%
X146834000Y-92672000D03*
%TO.P,U1,47,MTDI*%
%TO.N,unconnected-(U1-MTDI-Pad47)*%
X146434000Y-92672000D03*
%TO.P,U1,48,MTMS*%
%TO.N,unconnected-(U1-MTMS-Pad48)*%
X146034000Y-92672000D03*
%TO.P,U1,49,U0TXD*%
%TO.N,unconnected-(U1-U0TXD-Pad49)*%
X145634000Y-92672000D03*
%TO.P,U1,50,U0RXD*%
%TO.N,unconnected-(U1-U0RXD-Pad50)*%
X145234000Y-92672000D03*
%TO.P,U1,51,GPIO45*%
%TO.N,/IO45*%
X144834000Y-92672000D03*
%TO.P,U1,52,GPIO46*%
%TO.N,unconnected-(U1-GPIO46-Pad52)*%
X144434000Y-92672000D03*
%TO.P,U1,53,XTAL_N*%
%TO.N,Net-(U1-XTAL_N)*%
X144034000Y-92672000D03*
%TO.P,U1,54,XTAL_P*%
%TO.N,Net-(U1-XTAL_P)*%
X143634000Y-92672000D03*
%TO.P,U1,55,VDDA*%
%TO.N,+3.3V*%
X143234000Y-92672000D03*
%TO.P,U1,56,VDDA*%
X142834000Y-92672000D03*
D24*
%TO.P,U1,57,GND*%
%TO.N,GND*%
X145434000Y-89262000D03*
%TD*%
D19*
%TO.P,C5,1*%
%TO.N,+3.3V*%
X139700000Y-93218000D03*
%TO.P,C5,2*%
%TO.N,GND*%
X140660000Y-93218000D03*
%TD*%
D25*
%TO.P,R4,1*%
%TO.N,GND*%
X141730000Y-80010000D03*
%TO.P,R4,2*%
%TO.N,Net-(J1-CC2)*%
X142750000Y-80010000D03*
%TD*%
D21*
%TO.P,C1,1*%
%TO.N,+3.3V*%
X144780000Y-84836000D03*
%TO.P,C1,2*%
%TO.N,GND*%
X143820000Y-84836000D03*
%TD*%
%TO.P,C4,1*%
%TO.N,Net-(C4-Pad1)*%
X140942000Y-91186000D03*
%TO.P,C4,2*%
%TO.N,GND*%
X139982000Y-91186000D03*
%TD*%
D26*
%TO.N,Net-(J1-CC1)*%
X147828756Y-79365519D03*
%TO.N,/RESET*%
X139077729Y-91325729D03*
%TO.N,/BOOT*%
X147740965Y-91656048D03*
%TO.N,+3.3V*%
X150876000Y-95504000D03*
X145542000Y-97663000D03*
X142876042Y-87504042D03*
X151384000Y-93599000D03*
%TO.N,/USB_D-*%
X146349124Y-81234876D03*
%TO.N,/USB_D+*%
X147020876Y-80563124D03*
%TO.N,GND*%
X146304000Y-89281000D03*
X146268666Y-93531762D03*
X149860000Y-88011000D03*
X144526000Y-88265000D03*
X146304000Y-90170000D03*
X150241000Y-93345000D03*
X144526000Y-89281000D03*
X151765000Y-96393000D03*
X146558000Y-98806000D03*
X146304000Y-88265000D03*
X145415000Y-90170000D03*
X140187680Y-90332578D03*
X138430000Y-99314000D03*
X146177000Y-99695000D03*
X142113000Y-84963000D03*
X145415000Y-89281000D03*
X145415000Y-88265000D03*
X144526000Y-90170000D03*
X144018000Y-96774000D03*
%TO.N,/IO21*%
X150657500Y-87630000D03*
%TO.N,Net-(J1-CC2)*%
X144991089Y-80221089D03*
%TO.N,Net-(C10-Pad2)*%
X145796000Y-96520000D03*
%TO.N,Net-(AE1-ANT)*%
X140970000Y-97282000D03*
%TD*%
D27*
%TO.N,/RESET*%
X140485000Y-89812000D02*
X140612000Y-89812000D01*
X140081000Y-89408000D02*
X140485000Y-89812000D01*
X139580000Y-90470609D02*
X139580000Y-89655000D01*
X139580000Y-89655000D02*
X139827000Y-89408000D01*
X139077729Y-91325729D02*
X139192000Y-91211458D01*
X139192000Y-91211458D02*
X139192000Y-90858609D01*
X139192000Y-90858609D02*
X139580000Y-90470609D01*
X139827000Y-89408000D02*
X140081000Y-89408000D01*
X140612000Y-89812000D02*
X141462000Y-90662000D01*
X141462000Y-90662000D02*
X142024000Y-90662000D01*
D28*
%TO.N,+3.3V*%
X139700000Y-93218000D02*
X139700000Y-92692196D01*
X139700000Y-92692196D02*
X140190196Y-92202000D01*
%TO.N,Net-(J1-CC1)*%
X148578519Y-79365519D02*
X149096000Y-79883000D01*
X147828756Y-79365519D02*
X148578519Y-79365519D01*
D27*
%TO.N,Net-(C4-Pad1)*%
X142024000Y-91462000D02*
X142024000Y-91062000D01*
X140942000Y-92108000D02*
X140848000Y-92202000D01*
X140942000Y-91186000D02*
X140942000Y-92108000D01*
X141066000Y-91062000D02*
X140942000Y-91186000D01*
X142024000Y-91062000D02*
X141066000Y-91062000D01*
%TO.N,/BOOT*%
X143403025Y-91731025D02*
X142621000Y-90949000D01*
X147740965Y-91656048D02*
X147665988Y-91731025D01*
X142554000Y-90262000D02*
X142024000Y-90262000D01*
X142621000Y-90949000D02*
X142621000Y-90329000D01*
X142621000Y-90329000D02*
X142554000Y-90262000D01*
X147665988Y-91731025D02*
X143403025Y-91731025D01*
D28*
%TO.N,+3.3V*%
X145490076Y-97663000D02*
X145542000Y-97663000D01*
D27*
X144834000Y-84890000D02*
X144780000Y-84836000D01*
X143455000Y-86741000D02*
X142876042Y-87319958D01*
D28*
X146834000Y-93212000D02*
X147348000Y-93726000D01*
X142834000Y-92672000D02*
X142834000Y-93332000D01*
X143002000Y-94008000D02*
X143048846Y-94008000D01*
X144018000Y-94977154D02*
X144018000Y-95024000D01*
X139756000Y-94234000D02*
X139756000Y-93274000D01*
X146834000Y-92672000D02*
X146834000Y-93212000D01*
X143002000Y-94008000D02*
X143002000Y-93500000D01*
X147983000Y-94361000D02*
X147348000Y-93726000D01*
X144018000Y-95024000D02*
X144668000Y-95674000D01*
D27*
X144834000Y-85852000D02*
X144834000Y-84890000D01*
D28*
X139756000Y-93274000D02*
X139700000Y-93218000D01*
X151384000Y-93599000D02*
X150622000Y-94361000D01*
X138846000Y-94234000D02*
X138130000Y-94950000D01*
X150622000Y-94361000D02*
X147983000Y-94361000D01*
X142834000Y-92672000D02*
X143184000Y-92672000D01*
D27*
X142876042Y-87319958D02*
X142876042Y-87504042D01*
X144834000Y-86382000D02*
X144475000Y-86741000D01*
D28*
X144668000Y-95674000D02*
X144668000Y-96840924D01*
X139756000Y-94234000D02*
X138846000Y-94234000D01*
X143048846Y-94008000D02*
X144018000Y-94977154D01*
D27*
X144475000Y-86741000D02*
X143455000Y-86741000D01*
X144834000Y-85852000D02*
X144834000Y-86382000D01*
D28*
X143002000Y-93500000D02*
X142834000Y-93332000D01*
X144668000Y-96840924D02*
X145490076Y-97663000D01*
D27*
%TO.N,/USB_D-*%
X146808999Y-81341198D02*
X146702677Y-81234876D01*
X146808999Y-85826999D02*
X146808999Y-81341198D01*
X146834000Y-85852000D02*
X146808999Y-85826999D01*
X146702677Y-81234876D02*
X146349124Y-81234876D01*
%TO.N,/USB_D+*%
X147020876Y-80916677D02*
X147020876Y-80563124D01*
X147259001Y-81154802D02*
X147020876Y-80916677D01*
X147259001Y-85826999D02*
X147259001Y-81154802D01*
X147234000Y-85852000D02*
X147259001Y-85826999D01*
%TO.N,Net-(U1-XTAL_N)*%
X151870000Y-98474000D02*
X151892000Y-98496000D01*
X149282000Y-97574000D02*
X150182000Y-98474000D01*
X150182000Y-98474000D02*
X150282000Y-98474000D01*
X149282000Y-96074000D02*
X149282000Y-97574000D01*
X144034000Y-92672000D02*
X144034000Y-93107000D01*
X148712000Y-95504000D02*
X149282000Y-96074000D01*
X146431000Y-95504000D02*
X148712000Y-95504000D01*
X150282000Y-98474000D02*
X151870000Y-98474000D01*
X144034000Y-93107000D02*
X146431000Y-95504000D01*
%TO.N,Net-(U1-XTAL_P)*%
X143634000Y-93468000D02*
X145542000Y-95376000D01*
X145542000Y-95376000D02*
X145542000Y-95756000D01*
X143634000Y-92672000D02*
X143634000Y-93468000D01*
D28*
%TO.N,GND*%
X139982000Y-96266000D02*
X139354000Y-96266000D01*
X151892000Y-96520000D02*
X151765000Y-96393000D01*
X143002000Y-94968000D02*
X143002000Y-95247999D01*
X140660000Y-93218000D02*
X140660000Y-94178000D01*
X139982000Y-95250000D02*
X139982000Y-94968000D01*
X143820000Y-84836000D02*
X142240000Y-84836000D01*
X143738001Y-95984000D02*
X144018000Y-95984000D01*
X150282000Y-96774000D02*
X151384000Y-96774000D01*
X144018000Y-95984000D02*
X144018000Y-96774000D01*
X150116000Y-78452000D02*
X150370000Y-78198000D01*
D27*
X149860000Y-93726000D02*
X150241000Y-93345000D01*
D28*
X139982000Y-91186000D02*
X139982000Y-90538258D01*
D27*
X148308000Y-93726000D02*
X149860000Y-93726000D01*
D28*
X151384000Y-96774000D02*
X151765000Y-96393000D01*
X139982000Y-96266000D02*
X139982000Y-95250000D01*
X151892000Y-97536000D02*
X151892000Y-96520000D01*
X147750000Y-98806000D02*
X148082000Y-98474000D01*
X146558000Y-97762000D02*
X146558000Y-98806000D01*
X140660000Y-94178000D02*
X140716000Y-94234000D01*
X141730000Y-80010000D02*
X141730000Y-78198000D01*
X143002000Y-95247999D02*
X143738001Y-95984000D01*
X139982000Y-90538258D02*
X140187680Y-90332578D01*
X139982000Y-94968000D02*
X140716000Y-94234000D01*
X142240000Y-84836000D02*
X142113000Y-84963000D01*
X139354000Y-96266000D02*
X138130000Y-97490000D01*
X146558000Y-98806000D02*
X147750000Y-98806000D01*
X150116000Y-79883000D02*
X150116000Y-78452000D01*
D27*
%TO.N,/IO2*%
X139573000Y-88900000D02*
X139230000Y-89243000D01*
X142024000Y-89462000D02*
X140656026Y-89462000D01*
X140656026Y-89462000D02*
X140094026Y-88900000D01*
X139230000Y-90325635D02*
X138130000Y-91425635D01*
X140094026Y-88900000D02*
X139573000Y-88900000D01*
X138130000Y-91425635D02*
X138130000Y-92410000D01*
X139230000Y-89243000D02*
X139230000Y-90325635D01*
%TO.N,/IO3*%
X138684000Y-88392000D02*
X138130000Y-88946000D01*
X142024000Y-89062000D02*
X140751000Y-89062000D01*
X140751000Y-89062000D02*
X140081000Y-88392000D01*
X138130000Y-88946000D02*
X138130000Y-89870000D01*
X140081000Y-88392000D02*
X138684000Y-88392000D01*
%TO.N,/IO4*%
X139527000Y-87330000D02*
X138130000Y-87330000D01*
X140859000Y-88662000D02*
X139527000Y-87330000D01*
X142024000Y-88662000D02*
X140859000Y-88662000D01*
%TO.N,/IO5*%
X142024000Y-88262000D02*
X141094000Y-88262000D01*
X141094000Y-88262000D02*
X138130000Y-85298000D01*
X138130000Y-85298000D02*
X138130000Y-84790000D01*
%TO.N,/IO6*%
X139446000Y-83566000D02*
X138130000Y-82250000D01*
X142024000Y-87862000D02*
X141329000Y-87862000D01*
X141329000Y-87862000D02*
X139446000Y-85979000D01*
X139446000Y-85979000D02*
X139446000Y-83566000D01*
%TO.N,/IO7*%
X140081000Y-85915500D02*
X140081000Y-81661000D01*
X140081000Y-81661000D02*
X138130000Y-79710000D01*
X141627500Y-87462000D02*
X140081000Y-85915500D01*
X142024000Y-87462000D02*
X141627500Y-87462000D01*
%TO.N,/IO21*%
X150657500Y-87630000D02*
X150657500Y-86268500D01*
X147993000Y-84963000D02*
X147634000Y-85322000D01*
X147634000Y-85322000D02*
X147634000Y-85852000D01*
X149352000Y-84963000D02*
X147993000Y-84963000D01*
X150657500Y-86268500D02*
X149352000Y-84963000D01*
%TO.N,/IO17*%
X146034000Y-85852000D02*
X146034000Y-82788000D01*
X145034000Y-81026000D02*
X146096876Y-79963124D01*
X146096876Y-79963124D02*
X147781124Y-79963124D01*
X145034000Y-81788000D02*
X145034000Y-81026000D01*
X147781124Y-79963124D02*
X148590000Y-80772000D01*
X146034000Y-82788000D02*
X145034000Y-81788000D01*
X152628000Y-80772000D02*
X153390000Y-80010000D01*
X148590000Y-80772000D02*
X152628000Y-80772000D01*
%TO.N,/IO45*%
X144834000Y-93081500D02*
X146621500Y-94869000D01*
X144834000Y-92672000D02*
X144834000Y-93081500D01*
X153390000Y-96875000D02*
X153390000Y-97790000D01*
X146621500Y-94869000D02*
X151384000Y-94869000D01*
X151384000Y-94869000D02*
X153390000Y-96875000D01*
%TO.N,/IO38*%
X151473000Y-92672000D02*
X153390000Y-94589000D01*
X153390000Y-94589000D02*
X153390000Y-95250000D01*
X148034000Y-92672000D02*
X151473000Y-92672000D01*
%TO.N,/IO37*%
X151552000Y-91862000D02*
X152400000Y-92710000D01*
X152400000Y-92710000D02*
X153390000Y-92710000D01*
X148844000Y-91862000D02*
X151552000Y-91862000D01*
%TO.N,/IO36*%
X152098000Y-91462000D02*
X153390000Y-90170000D01*
X148844000Y-91462000D02*
X152098000Y-91462000D01*
%TO.N,/IO35*%
X150746000Y-91062000D02*
X153390000Y-88418000D01*
X148844000Y-91062000D02*
X150746000Y-91062000D01*
X153390000Y-88418000D02*
X153390000Y-87630000D01*
%TO.N,/IO34*%
X152019000Y-88773000D02*
X152019000Y-86461000D01*
X152019000Y-86461000D02*
X153390000Y-85090000D01*
X150130000Y-90662000D02*
X152019000Y-88773000D01*
X148844000Y-90662000D02*
X150130000Y-90662000D01*
%TO.N,/IO33*%
X148844000Y-90262000D02*
X149374000Y-90262000D01*
X151257000Y-84683000D02*
X153390000Y-82550000D01*
X149374000Y-90262000D02*
X151257000Y-88379000D01*
X151257000Y-88379000D02*
X151257000Y-84683000D01*
D28*
%TO.N,Net-(J1-CC2)*%
X144991089Y-80221089D02*
X142961089Y-80221089D01*
X142961089Y-80221089D02*
X142750000Y-80010000D01*
D27*
%TO.N,Net-(U1-LNA_IN)*%
X142024000Y-95258000D02*
X141986000Y-95296000D01*
X141986000Y-95296000D02*
X140988000Y-95296000D01*
X140988000Y-95296000D02*
X140942000Y-95250000D01*
X142024000Y-91862000D02*
X142024000Y-95258000D01*
%TO.N,Net-(C10-Pad2)*%
X146558000Y-96802000D02*
X148054000Y-96802000D01*
X146558000Y-96802000D02*
X145568000Y-96802000D01*
X148054000Y-96802000D02*
X148082000Y-96774000D01*
X145568000Y-96802000D02*
X145542000Y-96776000D01*
%TO.N,Net-(AE1-ANT)*%
X141986000Y-96266000D02*
X140970000Y-97282000D01*
X141986000Y-96266000D02*
X140942000Y-96266000D01*
%TD*%
M02*
