%TF.GenerationSoftware,KiCad,Pcbnew,7.0.9*%
%TF.CreationDate,2024-03-17T18:44:57-07:00*%
%TF.ProjectId,ESP32S3_Board,45535033-3253-4335-9f42-6f6172642e6b,rev?*%
%TF.SameCoordinates,Original*%
%TF.FileFunction,Legend,Top*%
%TF.FilePolarity,Positive*%
%FSLAX46Y46*%
G04 Gerber Fmt 4.6, Leading zero omitted, Abs format (unit mm)*
G04 Created by KiCad (PCBNEW 7.0.9) date 2024-03-17 18:44:57*
%MOMM*%
%LPD*%
G01*
G04 APERTURE LIST*
%ADD10C,0.175000*%
%ADD11C,0.120000*%
%ADD12C,0.250000*%
%ADD13C,0.150000*%
G04 APERTURE END LIST*
D10*
X147244559Y-96118709D02*
X147387416Y-96166328D01*
X147387416Y-96166328D02*
X147435035Y-96213947D01*
X147435035Y-96213947D02*
X147482654Y-96309185D01*
X147482654Y-96309185D02*
X147482654Y-96452042D01*
X147482654Y-96452042D02*
X147435035Y-96547280D01*
X147435035Y-96547280D02*
X147387416Y-96594900D01*
X147387416Y-96594900D02*
X147292178Y-96642519D01*
X147292178Y-96642519D02*
X146911226Y-96642519D01*
X146911226Y-96642519D02*
X146911226Y-95642519D01*
X146911226Y-95642519D02*
X147244559Y-95642519D01*
X147244559Y-95642519D02*
X147339797Y-95690138D01*
X147339797Y-95690138D02*
X147387416Y-95737757D01*
X147387416Y-95737757D02*
X147435035Y-95832995D01*
X147435035Y-95832995D02*
X147435035Y-95928233D01*
X147435035Y-95928233D02*
X147387416Y-96023471D01*
X147387416Y-96023471D02*
X147339797Y-96071090D01*
X147339797Y-96071090D02*
X147244559Y-96118709D01*
X147244559Y-96118709D02*
X146911226Y-96118709D01*
X148101702Y-95642519D02*
X148292178Y-95642519D01*
X148292178Y-95642519D02*
X148387416Y-95690138D01*
X148387416Y-95690138D02*
X148482654Y-95785376D01*
X148482654Y-95785376D02*
X148530273Y-95975852D01*
X148530273Y-95975852D02*
X148530273Y-96309185D01*
X148530273Y-96309185D02*
X148482654Y-96499661D01*
X148482654Y-96499661D02*
X148387416Y-96594900D01*
X148387416Y-96594900D02*
X148292178Y-96642519D01*
X148292178Y-96642519D02*
X148101702Y-96642519D01*
X148101702Y-96642519D02*
X148006464Y-96594900D01*
X148006464Y-96594900D02*
X147911226Y-96499661D01*
X147911226Y-96499661D02*
X147863607Y-96309185D01*
X147863607Y-96309185D02*
X147863607Y-95975852D01*
X147863607Y-95975852D02*
X147911226Y-95785376D01*
X147911226Y-95785376D02*
X148006464Y-95690138D01*
X148006464Y-95690138D02*
X148101702Y-95642519D01*
X149149321Y-95642519D02*
X149339797Y-95642519D01*
X149339797Y-95642519D02*
X149435035Y-95690138D01*
X149435035Y-95690138D02*
X149530273Y-95785376D01*
X149530273Y-95785376D02*
X149577892Y-95975852D01*
X149577892Y-95975852D02*
X149577892Y-96309185D01*
X149577892Y-96309185D02*
X149530273Y-96499661D01*
X149530273Y-96499661D02*
X149435035Y-96594900D01*
X149435035Y-96594900D02*
X149339797Y-96642519D01*
X149339797Y-96642519D02*
X149149321Y-96642519D01*
X149149321Y-96642519D02*
X149054083Y-96594900D01*
X149054083Y-96594900D02*
X148958845Y-96499661D01*
X148958845Y-96499661D02*
X148911226Y-96309185D01*
X148911226Y-96309185D02*
X148911226Y-95975852D01*
X148911226Y-95975852D02*
X148958845Y-95785376D01*
X148958845Y-95785376D02*
X149054083Y-95690138D01*
X149054083Y-95690138D02*
X149149321Y-95642519D01*
X149863607Y-95642519D02*
X150435035Y-95642519D01*
X150149321Y-96642519D02*
X150149321Y-95642519D01*
X141894654Y-96642519D02*
X141561321Y-96166328D01*
X141323226Y-96642519D02*
X141323226Y-95642519D01*
X141323226Y-95642519D02*
X141704178Y-95642519D01*
X141704178Y-95642519D02*
X141799416Y-95690138D01*
X141799416Y-95690138D02*
X141847035Y-95737757D01*
X141847035Y-95737757D02*
X141894654Y-95832995D01*
X141894654Y-95832995D02*
X141894654Y-95975852D01*
X141894654Y-95975852D02*
X141847035Y-96071090D01*
X141847035Y-96071090D02*
X141799416Y-96118709D01*
X141799416Y-96118709D02*
X141704178Y-96166328D01*
X141704178Y-96166328D02*
X141323226Y-96166328D01*
X142275607Y-96594900D02*
X142418464Y-96642519D01*
X142418464Y-96642519D02*
X142656559Y-96642519D01*
X142656559Y-96642519D02*
X142751797Y-96594900D01*
X142751797Y-96594900D02*
X142799416Y-96547280D01*
X142799416Y-96547280D02*
X142847035Y-96452042D01*
X142847035Y-96452042D02*
X142847035Y-96356804D01*
X142847035Y-96356804D02*
X142799416Y-96261566D01*
X142799416Y-96261566D02*
X142751797Y-96213947D01*
X142751797Y-96213947D02*
X142656559Y-96166328D01*
X142656559Y-96166328D02*
X142466083Y-96118709D01*
X142466083Y-96118709D02*
X142370845Y-96071090D01*
X142370845Y-96071090D02*
X142323226Y-96023471D01*
X142323226Y-96023471D02*
X142275607Y-95928233D01*
X142275607Y-95928233D02*
X142275607Y-95832995D01*
X142275607Y-95832995D02*
X142323226Y-95737757D01*
X142323226Y-95737757D02*
X142370845Y-95690138D01*
X142370845Y-95690138D02*
X142466083Y-95642519D01*
X142466083Y-95642519D02*
X142704178Y-95642519D01*
X142704178Y-95642519D02*
X142847035Y-95690138D01*
X143132750Y-95642519D02*
X143704178Y-95642519D01*
X143418464Y-96642519D02*
X143418464Y-95642519D01*
D11*
%TO.C,J1*%
X150750000Y-81148000D02*
X150750000Y-79148000D01*
X150750000Y-77248000D02*
X150750000Y-75348000D01*
X150750000Y-75348000D02*
X141350000Y-75348000D01*
X141350000Y-81148000D02*
X141350000Y-79148000D01*
X141350000Y-77248000D02*
X141350000Y-75348000D01*
%TO.C,C7*%
X149238580Y-98554000D02*
X148957420Y-98554000D01*
X149238580Y-97534000D02*
X148957420Y-97534000D01*
%TO.C,C13*%
X145280748Y-85625000D02*
X145803252Y-85625000D01*
X145280748Y-87095000D02*
X145803252Y-87095000D01*
%TO.C,C12*%
X142181252Y-91159000D02*
X141658748Y-91159000D01*
X142181252Y-89689000D02*
X141658748Y-89689000D01*
D12*
%TO.C,SW2*%
X147040000Y-93892000D02*
X147040000Y-93052000D01*
X147450000Y-91922000D02*
X148010000Y-91922000D01*
X147590000Y-92472000D02*
X149590000Y-92472000D01*
X147590000Y-94472000D02*
X147590000Y-92472000D01*
X148010000Y-95022000D02*
X147450000Y-95022000D01*
X149170000Y-91922000D02*
X149730000Y-91922000D01*
X149590000Y-92472000D02*
X149590000Y-94472000D01*
X149590000Y-94472000D02*
X147590000Y-94472000D01*
X149730000Y-95022000D02*
X149170000Y-95022000D01*
X150140000Y-93052000D02*
X150140000Y-93892000D01*
X149290000Y-93472000D02*
G75*
G03*
X149290000Y-93472000I-700000J0D01*
G01*
%TO.C,AE1*%
X140814000Y-97746000D02*
X144174000Y-97756000D01*
X141734000Y-98556000D02*
X141734000Y-99056000D01*
X141734000Y-99056000D02*
X142244000Y-99056000D01*
X142244000Y-98556000D02*
X141734000Y-98556000D01*
X142244000Y-99056000D02*
X142244000Y-98556000D01*
X144014000Y-99856000D02*
X140814000Y-99856000D01*
D11*
%TO.C,C11*%
X144672164Y-91080000D02*
X144887836Y-91080000D01*
X144672164Y-91800000D02*
X144887836Y-91800000D01*
D12*
%TO.C,SW1*%
X144298000Y-93052000D02*
X144298000Y-93892000D01*
X143888000Y-95022000D02*
X143328000Y-95022000D01*
X143748000Y-94472000D02*
X141748000Y-94472000D01*
X143748000Y-92472000D02*
X143748000Y-94472000D01*
X143328000Y-91922000D02*
X143888000Y-91922000D01*
X142168000Y-95022000D02*
X141608000Y-95022000D01*
X141748000Y-94472000D02*
X141748000Y-92472000D01*
X141748000Y-92472000D02*
X143748000Y-92472000D01*
X141608000Y-91922000D02*
X142168000Y-91922000D01*
X141198000Y-93892000D02*
X141198000Y-93052000D01*
X143448000Y-93472000D02*
G75*
G03*
X143448000Y-93472000I-700000J0D01*
G01*
D11*
%TO.C,U2*%
X143480000Y-87376000D02*
X143480000Y-85576000D01*
X143480000Y-87376000D02*
X143480000Y-88176000D01*
X140360000Y-87376000D02*
X140360000Y-86576000D01*
X140360000Y-87376000D02*
X140360000Y-88176000D01*
%TO.C,R2*%
X139320000Y-93625641D02*
X139320000Y-93318359D01*
X140080000Y-93625641D02*
X140080000Y-93318359D01*
D12*
%TO.C,LED1*%
X150242000Y-84704000D02*
X150242000Y-85214000D01*
X150562000Y-84964000D02*
X149922000Y-84964000D01*
D13*
X151172000Y-85964000D02*
X151172000Y-85964000D01*
X151172000Y-85964000D02*
X151172000Y-89804000D01*
X150932000Y-85964000D02*
X151172000Y-85964000D01*
X147772000Y-85964000D02*
X147532000Y-85964000D01*
X147532000Y-85964000D02*
X147532000Y-85964000D01*
X147532000Y-85964000D02*
X147532000Y-89804000D01*
X151172000Y-89804000D02*
X151172000Y-89804000D01*
X151172000Y-89804000D02*
X150932000Y-89804000D01*
X147532000Y-89804000D02*
X147772000Y-89804000D01*
X147532000Y-89804000D02*
X147532000Y-89804000D01*
X147772000Y-90024000D02*
X147312000Y-90024000D01*
X147312000Y-90024000D02*
X147312000Y-89664000D01*
X147312000Y-90024000D02*
X147312000Y-90024000D01*
D12*
X148462000Y-90424000D02*
X148462000Y-90804000D01*
%TD*%
M02*
