%TF.GenerationSoftware,KiCad,Pcbnew,7.0.9*%
%TF.CreationDate,2024-03-17T18:44:57-07:00*%
%TF.ProjectId,ESP32S3_Board,45535033-3253-4335-9f42-6f6172642e6b,rev?*%
%TF.SameCoordinates,Original*%
%TF.FileFunction,Paste,Top*%
%TF.FilePolarity,Positive*%
%FSLAX46Y46*%
G04 Gerber Fmt 4.6, Leading zero omitted, Abs format (unit mm)*
G04 Created by KiCad (PCBNEW 7.0.9) date 2024-03-17 18:44:57*
%MOMM*%
%LPD*%
G01*
G04 APERTURE LIST*
G04 Aperture macros list*
%AMRoundRect*
0 Rectangle with rounded corners*
0 $1 Rounding radius*
0 $2 $3 $4 $5 $6 $7 $8 $9 X,Y pos of 4 corners*
0 Add a 4 corners polygon primitive as box body*
4,1,4,$2,$3,$4,$5,$6,$7,$8,$9,$2,$3,0*
0 Add four circle primitives for the rounded corners*
1,1,$1+$1,$2,$3*
1,1,$1+$1,$4,$5*
1,1,$1+$1,$6,$7*
1,1,$1+$1,$8,$9*
0 Add four rect primitives between the rounded corners*
20,1,$1+$1,$2,$3,$4,$5,0*
20,1,$1+$1,$4,$5,$6,$7,0*
20,1,$1+$1,$6,$7,$8,$9,0*
20,1,$1+$1,$8,$9,$2,$3,0*%
G04 Aperture macros list end*
%ADD10R,0.600000X1.450000*%
%ADD11R,0.300000X1.450000*%
%ADD12RoundRect,0.225000X0.225000X0.250000X-0.225000X0.250000X-0.225000X-0.250000X0.225000X-0.250000X0*%
%ADD13RoundRect,0.250000X-0.250000X-0.475000X0.250000X-0.475000X0.250000X0.475000X-0.250000X0.475000X0*%
%ADD14RoundRect,0.250000X0.250000X0.475000X-0.250000X0.475000X-0.250000X-0.475000X0.250000X-0.475000X0*%
%ADD15R,1.250000X0.700000*%
%ADD16R,0.700000X0.350000*%
%ADD17R,1.000000X1.750000*%
%ADD18RoundRect,0.140000X-0.140000X-0.170000X0.140000X-0.170000X0.140000X0.170000X-0.140000X0.170000X0*%
%ADD19RoundRect,0.150000X-0.150000X0.512500X-0.150000X-0.512500X0.150000X-0.512500X0.150000X0.512500X0*%
%ADD20RoundRect,0.135000X0.185000X-0.135000X0.185000X0.135000X-0.185000X0.135000X-0.185000X-0.135000X0*%
%ADD21R,1.000000X1.550000*%
G04 APERTURE END LIST*
D10*
%TO.C,J1*%
X149300000Y-83293000D03*
X148500000Y-83293000D03*
D11*
X147300000Y-83293000D03*
X146300000Y-83293000D03*
X145800000Y-83293000D03*
X144800000Y-83293000D03*
D10*
X143600000Y-83293000D03*
X142800000Y-83293000D03*
X142800000Y-83293000D03*
X143600000Y-83293000D03*
D11*
X144300000Y-83293000D03*
X145300000Y-83293000D03*
X146800000Y-83293000D03*
X147800000Y-83293000D03*
D10*
X148500000Y-83293000D03*
X149300000Y-83293000D03*
%TD*%
D12*
%TO.C,C7*%
X149873000Y-98044000D03*
X148323000Y-98044000D03*
%TD*%
D13*
%TO.C,C13*%
X144592000Y-86360000D03*
X146492000Y-86360000D03*
%TD*%
D14*
%TO.C,C12*%
X142870000Y-90424000D03*
X140970000Y-90424000D03*
%TD*%
D15*
%TO.C,SW2*%
X146710000Y-92372000D03*
X150470000Y-92372000D03*
X146710000Y-94572000D03*
X150470000Y-94572000D03*
D16*
X148590000Y-95102000D03*
X148590000Y-91842000D03*
%TD*%
D17*
%TO.C,AE1*%
X140914000Y-98806000D03*
X144074000Y-98806000D03*
%TD*%
D18*
%TO.C,C11*%
X144300000Y-91440000D03*
X145260000Y-91440000D03*
%TD*%
D15*
%TO.C,SW1*%
X144628000Y-94572000D03*
X140868000Y-94572000D03*
X144628000Y-92372000D03*
X140868000Y-92372000D03*
D16*
X142748000Y-91842000D03*
X142748000Y-95102000D03*
%TD*%
D19*
%TO.C,U2*%
X142870000Y-86238500D03*
X141920000Y-86238500D03*
X140970000Y-86238500D03*
X140970000Y-88513500D03*
X142870000Y-88513500D03*
%TD*%
D20*
%TO.C,R2*%
X139700000Y-93982000D03*
X139700000Y-92962000D03*
%TD*%
D21*
%TO.C,LED1*%
X150242000Y-86244000D03*
X148462000Y-86244000D03*
X148462000Y-89524000D03*
X150242000Y-89524000D03*
%TD*%
M02*
